solid master_design
facet normal -0.995184896367252 -4.36140536761555e-029 -0.0980154173714624
  outer loop
    vertex 7434.32608411806 4162.71910390567 -66.3038523950167
    vertex 7434.33980456825 4156.31910390567 -66.4898603895793
    vertex 7434.32608411806 4156.31910390567 -66.3038523950167
  endloop
endfacet
facet normal -0.998795541154277 -1.63716086720351e-029 -0.0490659451181249
  outer loop
    vertex 7434.33980456825 4156.31910390567 -66.4898603895793
    vertex 7434.32608411806 4162.71910390567 -66.3038523950167
    vertex 7434.33980456825 4162.71910390567 -66.4898603895793
  endloop
endfacet
facet normal -0.998795541154277 -1.63716086720351e-029 -0.0490659451181249
  outer loop
    vertex 7434.33980456825 4162.71910390567 -66.4898603895793
    vertex 7434.34438151186 4156.31910390567 -66.6763175599478
    vertex 7434.33980456825 4156.31910390567 -66.4898603895793
  endloop
endfacet
facet normal -0.999698861182871 0.0 -0.024539497746907
  outer loop
    vertex 7434.34438151186 4156.31910390567 -66.6763175599478
    vertex 7434.33980456825 4162.71910390567 -66.4898603895793
    vertex 7434.34438151186 4162.71910390567 -66.6763175599478
  endloop
endfacet
facet normal 0.0 1.0 0.0
  outer loop
    vertex 7425.99419620272 4162.71910390567 -66.6762878977362
    vertex 7426.7489591011 4162.71910390567 -66.489847247578
    vertex 7426.74828987273 4162.71910390567 -66.676304408864
  endloop
endfacet
facet normal 0.0 1.0 0.0
  outer loop
    vertex 7426.7489591011 4162.71910390567 -66.489847247578
    vertex 7425.99419620272 4162.71910390567 -66.6762878977362
    vertex 7404.72877442129 4162.71910390567 -66.6758222843664
  endloop
endfacet
facet normal 0.0 1.0 0.0
  outer loop
    vertex 7426.7489591011 4162.71910390567 -66.489847247578
    vertex 7404.72877442129 4162.71910390567 -66.6758222843664
    vertex 7404.72877442129 4162.71910390567 -58.0794747703401
  endloop
endfacet
facet normal 0.0 1.0 0.0
  outer loop
    vertex 7426.7489591011 4162.71910390567 -66.489847247578
    vertex 7404.72877442129 4162.71910390567 -58.0794747703401
    vertex 7426.76268019536 4162.71910390567 -66.3038393005249
  endloop
endfacet
facet normal 0.0 1.0 0.0
  outer loop
    vertex 7426.76268019536 4162.71910390567 -66.3038393005249
    vertex 7404.72877442129 4162.71910390567 -58.0794747703401
    vertex 7426.78551173933 4162.71910390567 -66.1187286703747
  endloop
endfacet
facet normal 0.0 1.0 0.0
  outer loop
    vertex 7426.78551173933 4162.71910390567 -66.1187286703747
    vertex 7404.72877442129 4162.71910390567 -58.0794747703401
    vertex 7426.81739872982 4162.71910390567 -65.9349613048493
  endloop
endfacet
facet normal 0.0 1.0 0.0
  outer loop
    vertex 7426.81739872982 4162.71910390567 -65.9349613048493
    vertex 7404.72877442129 4162.71910390567 -58.0794747703401
    vertex 7426.85826434828 4162.71910390567 -65.7529799156284
  endloop
endfacet
facet normal 0.0 1.0 0.0
  outer loop
    vertex 7426.85826434828 4162.71910390567 -65.7529799156284
    vertex 7404.72877442129 4162.71910390567 -58.0794747703401
    vertex 7426.90801014585 4162.71910390567 -65.5732229118182
  endloop
endfacet
facet normal 0.0 1.0 0.0
  outer loop
    vertex 7426.90801014585 4162.71910390567 -65.5732229118182
    vertex 7404.72877442129 4162.71910390567 -58.0794747703401
    vertex 7426.96651628055 4162.71910390567 -65.3961233437859
  endloop
endfacet
facet normal 0.0 1.0 0.0
  outer loop
    vertex 7426.96651628055 4162.71910390567 -65.3961233437859
    vertex 7404.72877442129 4162.71910390567 -58.0794747703401
    vertex 7427.03364180597 4162.71910390567 -65.2221078599029
  endloop
endfacet
facet normal 0.0 1.0 0.0
  outer loop
    vertex 7427.03364180597 4162.71910390567 -65.2221078599029
    vertex 7404.72877442129 4162.71910390567 -58.0794747703401
    vertex 7427.10922501085 4162.71910390567 -65.0515956787118
  endloop
endfacet
facet normal 0.0 1.0 0.0
  outer loop
    vertex 7427.10922501085 4162.71910390567 -65.0515956787118
    vertex 7404.72877442129 4162.71910390567 -58.0794747703401
    vertex 7427.19308380863 4162.71910390567 -64.8849975789922
  endloop
endfacet
facet normal 0.0 1.0 0.0
  outer loop
    vertex 7427.19308380863 4162.71910390567 -64.8849975789922
    vertex 7404.72877442129 4162.71910390567 -58.0794747703401
    vertex 7427.28501617611 4162.71910390567 -64.7227149101586
  endloop
endfacet
facet normal 0.0 1.0 0.0
  outer loop
    vertex 7427.28501617611 4162.71910390567 -64.7227149101586
    vertex 7404.72877442129 4162.71910390567 -58.0794747703401
    vertex 7427.38480064017 4162.71910390567 -64.5651386253746
  endloop
endfacet
facet normal 0.0 1.0 0.0
  outer loop
    vertex 7427.38480064017 4162.71910390567 -64.5651386253746
    vertex 7404.72877442129 4162.71910390567 -58.0794747703401
    vertex 7427.4921968113 4162.71910390567 -64.4126483397121
  endloop
endfacet
facet normal 0.0 1.0 0.0
  outer loop
    vertex 7427.4921968113 4162.71910390567 -64.4126483397121
    vertex 7404.72877442129 4162.71910390567 -58.0794747703401
    vertex 7427.60694596271 4162.71910390567 -64.265611415626
  endloop
endfacet
facet normal 0.0 1.0 0.0
  outer loop
    vertex 7427.60694596271 4162.71910390567 -64.265611415626
    vertex 7404.72877442129 4162.71910390567 -58.0794747703401
    vertex 7427.72877165365 4162.71910390567 -64.1243820779453
  endloop
endfacet
facet normal 0.0 1.0 0.0
  outer loop
    vertex 7427.72877165365 4162.71910390567 -64.1243820779453
    vertex 7404.72877442129 4162.71910390567 -58.0794747703401
    vertex 7427.85738039536 4162.71910390567 -63.9893005605147
  endloop
endfacet
facet normal 0.0 1.0 0.0
  outer loop
    vertex 7427.85738039536 4162.71910390567 -63.9893005605147
    vertex 7404.72877442129 4162.71910390567 -58.0794747703401
    vertex 7427.99246235811 4162.71910390567 -63.8606922865414
  endloop
endfacet
facet normal 0.0 1.0 0.0
  outer loop
    vertex 7427.99246235811 4162.71910390567 -63.8606922865414
    vertex 7404.72877442129 4162.71910390567 -58.0794747703401
    vertex 7428.13369211762 4162.71910390567 -63.7388670846222
  endloop
endfacet
facet normal 0.0 1.0 0.0
  outer loop
    vertex 7428.13369211762 4162.71910390567 -63.7388670846222
    vertex 7404.72877442129 4162.71910390567 -58.0794747703401
    vertex 7428.28072943904 4162.71910390567 -63.6241184423391
  endloop
endfacet
facet normal 0.0 1.0 0.0
  outer loop
    vertex 7428.28072943904 4162.71910390567 -63.6241184423391
    vertex 7404.72877442129 4162.71910390567 -58.0794747703401
    vertex 7428.43322009657 4162.71910390567 -63.5167227992222
  endloop
endfacet
facet normal 0.0 1.0 0.0
  outer loop
    vertex 7428.43322009657 4162.71910390567 -63.5167227992222
    vertex 7404.72877442129 4162.71910390567 -58.0794747703401
    vertex 7428.59079672686 4162.71910390567 -63.4169388807825
  endloop
endfacet
facet normal 0.0 1.0 0.0
  outer loop
    vertex 7428.59079672686 4162.71910390567 -63.4169388807825
    vertex 7404.72877442129 4162.71910390567 -58.0794747703401
    vertex 7428.75307971402 4162.71910390567 -63.3250070752195
  endloop
endfacet
facet normal 0.0 1.0 0.0
  outer loop
    vertex 7428.75307971402 4162.71910390567 -63.3250070752195
    vertex 7404.72877442129 4162.71910390567 -58.0794747703401
    vertex 7428.91967810411 4162.71910390567 -63.2411488543052
  endloop
endfacet
facet normal 0.0 1.0 0.0
  outer loop
    vertex 7428.91967810411 4162.71910390567 -63.2411488543052
    vertex 7404.72877442129 4162.71910390567 -58.0794747703401
    vertex 7429.09019054701 4162.71910390567 -63.1655662398388
  endloop
endfacet
facet normal 0.0 1.0 0.0
  outer loop
    vertex 7429.09019054701 4162.71910390567 -63.1655662398388
    vertex 7404.72877442129 4162.71910390567 -58.0794747703401
    vertex 7429.26420626332 4162.71910390567 -63.0984413169588
  endloop
endfacet
facet normal 0.0 1.0 0.0
  outer loop
    vertex 7429.26420626332 4162.71910390567 -63.0984413169588
    vertex 7404.72877442129 4162.71910390567 -58.0794747703401
    vertex 7429.44130603394 4162.71910390567 -63.0399357954839
  endloop
endfacet
facet normal 0.0 1.0 0.0
  outer loop
    vertex 7429.44130603394 4162.71910390567 -63.0399357954839
    vertex 7404.72877442129 4162.71910390567 -58.0794747703401
    vertex 7429.62106320999 4162.71910390567 -62.9901906203399
  endloop
endfacet
facet normal 0.0 1.0 0.0
  outer loop
    vertex 7429.62106320999 4162.71910390567 -62.9901906203399
    vertex 7404.72877442129 4162.71910390567 -58.0794747703401
    vertex 7429.80304474071 4162.71910390567 -62.9493256320107
  endloop
endfacet
facet normal 0.0 1.0 0.0
  outer loop
    vertex 7429.80304474071 4162.71910390567 -62.9493256320107
    vertex 7404.72877442129 4162.71910390567 -58.0794747703401
    vertex 7429.98681221665 4162.71910390567 -62.9174392778327
  endloop
endfacet
facet normal 0.0 1.0 0.0
  outer loop
    vertex 7429.98681221665 4162.71910390567 -62.9174392778327
    vertex 7404.72877442129 4162.71910390567 -58.0794747703401
    vertex 7430.17192292586 4162.71910390567 -62.8946083748259
  endloop
endfacet
facet normal 0.0 1.0 0.0
  outer loop
    vertex 7430.17192292586 4162.71910390567 -62.8946083748259
    vertex 7404.72877442129 4162.71910390567 -58.0794747703401
    vertex 7430.35793092042 4162.71910390567 -62.8808879246355
  endloop
endfacet
facet normal 0.0 1.0 0.0
  outer loop
    vertex 7430.35793092042 4162.71910390567 -62.8808879246355
    vertex 7404.72877442129 4162.71910390567 -58.0794747703401
    vertex 7430.54438809079 4162.71910390567 -62.8763109810277
  endloop
endfacet
facet normal 0.0 1.0 0.0
  outer loop
    vertex 7430.54438809079 4162.71910390567 -62.8763109810277
    vertex 7404.72877442129 4162.71910390567 -58.0794747703401
    vertex 7450.54438151186 4162.71910390567 -58.0795864178707
  endloop
endfacet
facet normal 0.0 1.0 0.0
  outer loop
    vertex 7434.33980456825 4162.71910390567 -66.4898603895793
    vertex 7450.54438151186 4162.71910390567 -66.6763109810226
    vertex 7434.34438151186 4162.71910390567 -66.6763175599478
  endloop
endfacet
facet normal 0.0 1.0 0.0
  outer loop
    vertex 7450.54438151186 4162.71910390567 -66.6763109810226
    vertex 7434.33980456825 4162.71910390567 -66.4898603895793
    vertex 7450.54438151186 4162.71910390567 -58.0795864178707
  endloop
endfacet
facet normal 0.0 1.0 0.0
  outer loop
    vertex 7450.54438151186 4162.71910390567 -58.0795864178707
    vertex 7434.33980456825 4162.71910390567 -66.4898603895793
    vertex 7434.32608411806 4162.71910390567 -66.3038523950167
  endloop
endfacet
facet normal 0.0 1.0 0.0
  outer loop
    vertex 7450.54438151186 4162.71910390567 -58.0795864178707
    vertex 7434.32608411806 4162.71910390567 -66.3038523950167
    vertex 7434.30325321505 4162.71910390567 -66.1187416858113
  endloop
endfacet
facet normal 0.0 1.0 0.0
  outer loop
    vertex 7450.54438151186 4162.71910390567 -58.0795864178707
    vertex 7434.30325321505 4162.71910390567 -66.1187416858113
    vertex 7434.27136686087 4162.71910390567 -65.9349742098753
  endloop
endfacet
facet normal 0.0 1.0 0.0
  outer loop
    vertex 7450.54438151186 4162.71910390567 -58.0795864178707
    vertex 7434.27136686087 4162.71910390567 -65.9349742098753
    vertex 7434.23050187255 4162.71910390567 -65.7529926791545
  endloop
endfacet
facet normal 0.0 1.0 0.0
  outer loop
    vertex 7450.54438151186 4162.71910390567 -58.0795864178707
    vertex 7434.23050187255 4162.71910390567 -65.7529926791545
    vertex 7434.1807566974 4162.71910390567 -65.573235503096
  endloop
endfacet
facet normal 0.0 1.0 0.0
  outer loop
    vertex 7450.54438151186 4162.71910390567 -58.0795864178707
    vertex 7434.1807566974 4162.71910390567 -65.573235503096
    vertex 7434.12225117593 4162.71910390567 -65.3961357324819
  endloop
endfacet
facet normal 0.0 1.0 0.0
  outer loop
    vertex 7450.54438151186 4162.71910390567 -58.0795864178707
    vertex 7434.12225117593 4162.71910390567 -65.3961357324819
    vertex 7434.05512625305 4162.71910390567 -65.2221200161716
  endloop
endfacet
facet normal 0.0 1.0 0.0
  outer loop
    vertex 7450.54438151186 4162.71910390567 -58.0795864178707
    vertex 7434.05512625305 4162.71910390567 -65.2221200161716
    vertex 7433.97954363858 4162.71910390567 -65.0516075732677
  endloop
endfacet
facet normal 0.0 1.0 0.0
  outer loop
    vertex 7450.54438151186 4162.71910390567 -58.0795864178707
    vertex 7433.97954363858 4162.71910390567 -65.0516075732677
    vertex 7433.89568541766 4162.71910390567 -64.8850091831803
  endloop
endfacet
facet normal 0.0 1.0 0.0
  outer loop
    vertex 7450.54438151186 4162.71910390567 -58.0795864178707
    vertex 7433.89568541766 4162.71910390567 -64.8850091831803
    vertex 7433.8037536121 4162.71910390567 -64.7227261960234
  endloop
endfacet
facet normal 0.0 1.0 0.0
  outer loop
    vertex 7450.54438151186 4162.71910390567 -58.0795864178707
    vertex 7433.8037536121 4162.71910390567 -64.7227261960234
    vertex 7433.70396969366 4162.71910390567 -64.5651495657274
  endloop
endfacet
facet normal 0.0 1.0 0.0
  outer loop
    vertex 7450.54438151186 4162.71910390567 -58.0795864178707
    vertex 7433.70396969366 4162.71910390567 -64.5651495657274
    vertex 7433.59657405055 4162.71910390567 -64.4126589081967
  endloop
endfacet
facet normal 0.0 1.0 0.0
  outer loop
    vertex 7450.54438151186 4162.71910390567 -58.0795864178707
    vertex 7433.59657405055 4162.71910390567 -64.4126589081967
    vertex 7433.48182540826 4162.71910390567 -64.265621586782
  endloop
endfacet
facet normal 0.0 1.0 0.0
  outer loop
    vertex 7450.54438151186 4162.71910390567 -58.0795864178707
    vertex 7433.48182540826 4162.71910390567 -64.265621586782
    vertex 7433.36000020634 4162.71910390567 -64.1243918272694
  endloop
endfacet
facet normal 0.0 1.0 0.0
  outer loop
    vertex 7450.54438151186 4162.71910390567 -58.0795864178707
    vertex 7433.36000020634 4162.71910390567 -64.1243918272694
    vertex 7433.23139193237 4162.71910390567 -63.98930986452
  endloop
endfacet
facet normal 0.0 1.0 0.0
  outer loop
    vertex 7450.54438151186 4162.71910390567 -58.0795864178707
    vertex 7433.23139193237 4162.71910390567 -63.98930986452
    vertex 7433.09631041494 4162.71910390567 -63.8607011228137
  endloop
endfacet
facet normal 0.0 1.0 0.0
  outer loop
    vertex 7450.54438151186 4162.71910390567 -58.0795864178707
    vertex 7433.09631041494 4162.71910390567 -63.8607011228137
    vertex 7432.95508107726 4162.71910390567 -63.7388754318741
  endloop
endfacet
facet normal 0.0 1.0 0.0
  outer loop
    vertex 7450.54438151186 4162.71910390567 -58.0795864178707
    vertex 7432.95508107726 4162.71910390567 -63.7388754318741
    vertex 7432.80804415317 4162.71910390567 -63.6241262804614
  endloop
endfacet
facet normal 0.0 1.0 0.0
  outer loop
    vertex 7450.54438151186 4162.71910390567 -58.0795864178707
    vertex 7432.80804415317 4162.71910390567 -63.6241262804614
    vertex 7432.65555386751 4162.71910390567 -63.5167301093322
  endloop
endfacet
facet normal 0.0 1.0 0.0
  outer loop
    vertex 7450.54438151186 4162.71910390567 -58.0795864178707
    vertex 7432.65555386751 4162.71910390567 -63.5167301093322
    vertex 7432.49797758273 4162.71910390567 -63.4169456452695
  endloop
endfacet
facet normal 0.0 1.0 0.0
  outer loop
    vertex 7450.54438151186 4162.71910390567 -58.0795864178707
    vertex 7432.49797758273 4162.71910390567 -63.4169456452695
    vertex 7432.33569491389 4162.71910390567 -63.3250132777873
  endloop
endfacet
facet normal 0.0 1.0 0.0
  outer loop
    vertex 7450.54438151186 4162.71910390567 -58.0795864178707
    vertex 7432.33569491389 4162.71910390567 -63.3250132777873
    vertex 7432.16909681417 4162.71910390567 -63.2411544800111
  endloop
endfacet
facet normal 0.0 1.0 0.0
  outer loop
    vertex 7450.54438151186 4162.71910390567 -58.0795864178707
    vertex 7432.16909681417 4162.71910390567 -63.2411544800111
    vertex 7431.99858463298 4162.71910390567 -63.1655712751301
  endloop
endfacet
facet normal 0.0 1.0 0.0
  outer loop
    vertex 7450.54438151186 4162.71910390567 -58.0795864178707
    vertex 7431.99858463298 4162.71910390567 -63.1655712751301
    vertex 7431.8245691491 4162.71910390567 -63.0984457497051
  endloop
endfacet
facet normal 0.0 1.0 0.0
  outer loop
    vertex 7450.54438151186 4162.71910390567 -58.0795864178707
    vertex 7431.8245691491 4162.71910390567 -63.0984457497051
    vertex 7431.64746958107 4162.71910390567 -63.0399396150063
  endloop
endfacet
facet normal 0.0 1.0 0.0
  outer loop
    vertex 7450.54438151186 4162.71910390567 -58.0795864178707
    vertex 7431.64746958107 4162.71910390567 -63.0399396150063
    vertex 7431.46771257726 4162.71910390567 -62.9901938174367
  endloop
endfacet
facet normal 0.0 1.0 0.0
  outer loop
    vertex 7450.54438151186 4162.71910390567 -58.0795864178707
    vertex 7431.46771257726 4162.71910390567 -62.9901938174367
    vertex 7431.28573118804 4162.71910390567 -62.94932819898
  endloop
endfacet
facet normal 0.0 1.0 0.0
  outer loop
    vertex 7450.54438151186 4162.71910390567 -58.0795864178707
    vertex 7431.28573118804 4162.71910390567 -62.94932819898
    vertex 7431.10196382251 4162.71910390567 -62.9174412084903
  endloop
endfacet
facet normal 0.0 1.0 0.0
  outer loop
    vertex 7450.54438151186 4162.71910390567 -58.0795864178707
    vertex 7431.10196382251 4162.71910390567 -62.9174412084903
    vertex 7430.91685319236 4162.71910390567 -62.8946096645208
  endloop
endfacet
facet normal 0.0 1.0 0.0
  outer loop
    vertex 7450.54438151186 4162.71910390567 -58.0795864178707
    vertex 7430.91685319236 4162.71910390567 -62.8946096645208
    vertex 7430.73084524531 4162.71910390567 -62.8808885702606
  endloop
endfacet
facet normal 0.0 1.0 0.0
  outer loop
    vertex 7450.54438151186 4162.71910390567 -58.0795864178707
    vertex 7430.73084524531 4162.71910390567 -62.8808885702606
    vertex 7430.54438809079 4162.71910390567 -62.8763109810277
  endloop
endfacet
facet normal 0.970030832522039 -1.08119968746496e-028 -0.242981859315878
  outer loop
    vertex 7426.85826434828 4162.71910390567 -65.7529799156284
    vertex 7426.90801014585 4156.31910390567 -65.5732229118182
    vertex 7426.85826434828 4156.31910390567 -65.7529799156284
  endloop
endfacet
facet normal 0.956939833161898 -1.29169105244887e-028 -0.290286334001582
  outer loop
    vertex 7426.90801014585 4156.31910390567 -65.5732229118182
    vertex 7426.85826434828 4162.71910390567 -65.7529799156284
    vertex 7426.90801014585 4162.71910390567 -65.5732229118182
  endloop
endfacet
facet normal 0.995184556974208 -4.36155870591121e-029 -0.0980188632868667
  outer loop
    vertex 7426.76268019536 4162.71910390567 -66.3038393005249
    vertex 7426.78551173933 4156.31910390567 -66.1187286703747
    vertex 7426.76268019536 4156.31910390567 -66.3038393005249
  endloop
endfacet
facet normal 0.989176255929394 -6.52916210329608e-029 -0.146732187012618
  outer loop
    vertex 7426.78551173933 4156.31910390567 -66.1187286703747
    vertex 7426.76268019536 4162.71910390567 -66.3038393005249
    vertex 7426.78551173933 4162.71910390567 -66.1187286703747
  endloop
endfacet
facet normal -2.18953272836269e-005 -5.08481787537712e-018 -0.999999999760297
  outer loop
    vertex 7425.99419620272 4162.71910390567 -66.6762878977362
    vertex 7404.72877442129 4156.31910390567 -66.6758222843664
    vertex 7404.72877442129 4162.71910390567 -66.6758222843664
  endloop
endfacet
facet normal -2.18953272836269e-005 -5.08481787537712e-018 -0.999999999760297
  outer loop
    vertex 7404.72877442129 4156.31910390567 -66.6758222843664
    vertex 7425.99419620272 4162.71910390567 -66.6762878977362
    vertex 7426.74828987273 4156.31910390567 -66.676304408864
  endloop
endfacet
facet normal -2.18953272836269e-005 -5.08481787537712e-018 -0.999999999760297
  outer loop
    vertex 7426.74828987273 4156.31910390567 -66.676304408864
    vertex 7425.99419620272 4162.71910390567 -66.6762878977362
    vertex 7426.74828987273 4162.71910390567 -66.676304408864
  endloop
endfacet
facet normal 0.881920448220471 -2.09758727153024e-028 -0.471398263690697
  outer loop
    vertex 7427.19308380863 4162.71910390567 -64.8849975789922
    vertex 7427.28501617611 4156.31910390567 -64.7227149101586
    vertex 7427.19308380863 4156.31910390567 -64.8849975789922
  endloop
endfacet
facet normal 0.857727719934354 -2.2876165875188e-028 -0.514104229175577
  outer loop
    vertex 7427.28501617611 4156.31910390567 -64.7227149101586
    vertex 7427.19308380863 4162.71910390567 -64.8849975789922
    vertex 7427.28501617611 4162.71910390567 -64.7227149101586
  endloop
endfacet
facet normal 0.55556879349946 -3.69980593316742e-028 -0.831470574157351
  outer loop
    vertex 7428.43322009657 4162.71910390567 -63.5167227992222
    vertex 7428.28072943904 4156.31910390567 -63.6241184423391
    vertex 7428.28072943904 4162.71910390567 -63.6241184423391
  endloop
endfacet
facet normal 0.595697913900781 -3.57404807654911e-028 -0.803208562811838
  outer loop
    vertex 7428.28072943904 4156.31910390567 -63.6241184423391
    vertex 7428.43322009657 4162.71910390567 -63.5167227992222
    vertex 7428.43322009657 4156.31910390567 -63.5167227992222
  endloop
endfacet
facet normal 0.671557672040879 -3.29702548310546e-028 -0.740952288020649
  outer loop
    vertex 7427.99246235811 4162.71910390567 -63.8606922865414
    vertex 7427.85738039536 4156.31910390567 -63.9893005605147
    vertex 7427.85738039536 4162.71910390567 -63.9893005605147
  endloop
endfacet
facet normal 0.707105556973418 -3.14642811798807e-028 -0.707108005397558
  outer loop
    vertex 7427.85738039536 4156.31910390567 -63.9893005605147
    vertex 7427.99246235811 4162.71910390567 -63.8606922865414
    vertex 7427.99246235811 4156.31910390567 -63.8606922865414
  endloop
endfacet
facet normal 0.242978500491932 -4.31636314475082e-028 -0.970031673863639
  outer loop
    vertex 7429.62106320999 4162.71910390567 -62.9901906203399
    vertex 7429.44130603394 4156.31910390567 -63.0399357954839
    vertex 7429.44130603394 4162.71910390567 -63.0399357954839
  endloop
endfacet
facet normal 0.290283020506251 -4.25811267554203e-028 -0.956940838299718
  outer loop
    vertex 7429.44130603394 4156.31910390567 -63.0399357954839
    vertex 7429.62106320999 4162.71910390567 -62.9901906203399
    vertex 7429.62106320999 4156.31910390567 -62.9901906203399
  endloop
endfacet
facet normal 0.195088623985996 -4.36421511707699e-028 -0.980785618160896
  outer loop
    vertex 7429.80304474071 4162.71910390567 -62.9493256320107
    vertex 7429.62106320999 4156.31910390567 -62.9901906203399
    vertex 7429.62106320999 4162.71910390567 -62.9901906203399
  endloop
endfacet
facet normal 0.242978500491932 -4.31636314475082e-028 -0.970031673863639
  outer loop
    vertex 7429.62106320999 4156.31910390567 -62.9901906203399
    vertex 7429.80304474071 4162.71910390567 -62.9493256320107
    vertex 7429.80304474071 4156.31910390567 -62.9493256320107
  endloop
endfacet
facet normal -0.7409522880224 -2.98823931532019e-028 -0.671557672038947
  outer loop
    vertex 7433.36000020634 4162.71910390567 -64.1243918272694
    vertex 7433.48182540826 4156.31910390567 -64.265621586782
    vertex 7433.36000020634 4156.31910390567 -64.1243918272694
  endloop
endfacet
facet normal -0.773011551684412 -2.8228624775456e-028 -0.63439194585245
  outer loop
    vertex 7433.48182540826 4156.31910390567 -64.265621586782
    vertex 7433.36000020634 4162.71910390567 -64.1243918272694
    vertex 7433.48182540826 4162.71910390567 -64.265621586782
  endloop
endfacet
facet normal -0.671560237653315 -3.29701513569552e-028 -0.740949962685081
  outer loop
    vertex 7433.09631041494 4162.71910390567 -63.8607011228137
    vertex 7432.95508107726 4156.31910390567 -63.7388754318741
    vertex 7432.95508107726 4162.71910390567 -63.7388754318741
  endloop
endfacet
facet normal -0.634394622473298 -3.43967025029917e-028 -0.773009355038451
  outer loop
    vertex 7432.95508107726 4156.31910390567 -63.7388754318741
    vertex 7433.09631041494 4162.71910390567 -63.8607011228137
    vertex 7433.09631041494 4156.31910390567 -63.8607011228137
  endloop
endfacet
facet normal -0.707108005398017 -3.1464172228496e-028 -0.707105556972959
  outer loop
    vertex 7433.23139193237 4162.71910390567 -63.98930986452
    vertex 7433.09631041494 4156.31910390567 -63.8607011228137
    vertex 7433.09631041494 4162.71910390567 -63.8607011228137
  endloop
endfacet
facet normal -0.671560237653315 -3.29701513569552e-028 -0.740949962685081
  outer loop
    vertex 7433.09631041494 4156.31910390567 -63.8607011228137
    vertex 7433.23139193237 4162.71910390567 -63.98930986452
    vertex 7433.23139193237 4156.31910390567 -63.98930986452
  endloop
endfacet
facet normal -0.595700695080607 -3.57403889799206e-028 -0.803206500148301
  outer loop
    vertex 7432.80804415317 4162.71910390567 -63.6241262804614
    vertex 7432.65555386751 4156.31910390567 -63.5167301093322
    vertex 7432.65555386751 4162.71910390567 -63.5167301093322
  endloop
endfacet
facet normal -0.55557167253682 -3.69979737292808e-028 -0.831468650446089
  outer loop
    vertex 7432.65555386751 4156.31910390567 -63.5167301093322
    vertex 7432.80804415317 4162.71910390567 -63.6241262804614
    vertex 7432.80804415317 4156.31910390567 -63.6241262804614
  endloop
endfacet
facet normal 0.634391945851853 -3.43968002506099e-028 -0.773011551684902
  outer loop
    vertex 7428.13369211762 4162.71910390567 -63.7388670846222
    vertex 7427.99246235811 4156.31910390567 -63.8606922865414
    vertex 7427.99246235811 4162.71910390567 -63.8606922865414
  endloop
endfacet
facet normal 0.671557672040879 -3.29702548310546e-028 -0.740952288020649
  outer loop
    vertex 7427.99246235811 4156.31910390567 -63.8606922865414
    vertex 7428.13369211762 4162.71910390567 -63.7388670846222
    vertex 7428.13369211762 4156.31910390567 -63.7388670846222
  endloop
endfacet
facet normal 0.773009355039876 -2.82287438811694e-028 -0.634394622471561
  outer loop
    vertex 7427.60694596271 4162.71910390567 -64.265611415626
    vertex 7427.72877165365 4156.31910390567 -64.1243820779453
    vertex 7427.60694596271 4156.31910390567 -64.265611415626
  endloop
endfacet
facet normal 0.740949962685446 -2.98825073193454e-028 -0.671560237652913
  outer loop
    vertex 7427.72877165365 4156.31910390567 -64.1243820779453
    vertex 7427.60694596271 4162.71910390567 -64.265611415626
    vertex 7427.72877165365 4162.71910390567 -64.1243820779453
  endloop
endfacet
facet normal 0.740949962685446 -2.98825073193454e-028 -0.671560237652913
  outer loop
    vertex 7427.72877165365 4162.71910390567 -64.1243820779453
    vertex 7427.85738039536 4156.31910390567 -63.9893005605147
    vertex 7427.72877165365 4156.31910390567 -64.1243820779453
  endloop
endfacet
facet normal 0.707105556973418 -3.14642811798807e-028 -0.707108005397558
  outer loop
    vertex 7427.85738039536 4156.31910390567 -63.9893005605147
    vertex 7427.72877165365 4162.71910390567 -64.1243820779453
    vertex 7427.85738039536 4162.71910390567 -63.9893005605147
  endloop
endfacet
facet normal 0.514101259210983 -3.81665063323302e-028 -0.857729500062625
  outer loop
    vertex 7428.59079672686 4162.71910390567 -63.4169388807825
    vertex 7428.43322009657 4156.31910390567 -63.5167227992222
    vertex 7428.43322009657 4162.71910390567 -63.5167227992222
  endloop
endfacet
facet normal 0.55556879349946 -3.69980593316742e-028 -0.831470574157351
  outer loop
    vertex 7428.43322009657 4156.31910390567 -63.5167227992222
    vertex 7428.59079672686 4162.71910390567 -63.4169388807825
    vertex 7428.59079672686 4156.31910390567 -63.4169388807825
  endloop
endfacet
facet normal -0.242981859314721 -4.3163594009026e-028 -0.970030832522328
  outer loop
    vertex 7431.46771257726 4162.71910390567 -62.9901938174367
    vertex 7431.28573118804 4156.31910390567 -62.94932819898
    vertex 7431.28573118804 4162.71910390567 -62.94932819898
  endloop
endfacet
facet normal -0.195092020045158 -4.36421211111798e-028 -0.980784942642728
  outer loop
    vertex 7431.28573118804 4156.31910390567 -62.94932819898
    vertex 7431.46771257726 4162.71910390567 -62.9901938174367
    vertex 7431.46771257726 4156.31910390567 -62.9901938174367
  endloop
endfacet
facet normal 0.0490659451165073 -4.44435411656243e-028 -0.998795541154357
  outer loop
    vertex 7430.35793092042 4162.71910390567 -62.8808879246355
    vertex 7430.17192292586 4156.31910390567 -62.8946083748259
    vertex 7430.17192292586 4162.71910390567 -62.8946083748259
  endloop
endfacet
facet normal 0.0980154173699791 -4.42828778131261e-028 -0.995184896367398
  outer loop
    vertex 7430.17192292586 4156.31910390567 -62.8946083748259
    vertex 7430.35793092042 4162.71910390567 -62.8808879246355
    vertex 7430.35793092042 4156.31910390567 -62.8808879246355
  endloop
endfacet
facet normal -1.73129598944985e-006 -4.44971361346593e-028 -0.999999999998501
  outer loop
    vertex 7430.54438809079 4162.71910390567 -62.8763109810277
    vertex 7430.35793092042 4156.31910390567 -62.8808879246355
    vertex 7430.35793092042 4162.71910390567 -62.8808879246355
  endloop
endfacet
facet normal 0.0490659451165073 -4.44435411656243e-028 -0.998795541154357
  outer loop
    vertex 7430.35793092042 4156.31910390567 -62.8808879246355
    vertex 7430.54438809079 4162.71910390567 -62.8763109810277
    vertex 7430.54438809079 4156.31910390567 -62.8763109810277
  endloop
endfacet
facet normal 0.146728761897832 -4.40155331292536e-028 -0.989176763997178
  outer loop
    vertex 7429.98681221665 4162.71910390567 -62.9174392778327
    vertex 7429.80304474071 4156.31910390567 -62.9493256320107
    vertex 7429.80304474071 4162.71910390567 -62.9493256320107
  endloop
endfacet
facet normal 0.195088623985996 -4.36421511707699e-028 -0.980785618160896
  outer loop
    vertex 7429.80304474071 4156.31910390567 -62.9493256320107
    vertex 7429.98681221665 4162.71910390567 -62.9174392778327
    vertex 7429.98681221665 4156.31910390567 -62.9174392778327
  endloop
endfacet
facet normal 0.0980154173699791 -4.42828778131261e-028 -0.995184896367398
  outer loop
    vertex 7430.17192292586 4162.71910390567 -62.8946083748259
    vertex 7429.98681221665 4156.31910390567 -62.9174392778327
    vertex 7429.98681221665 4162.71910390567 -62.9174392778327
  endloop
endfacet
facet normal 0.146728761897832 -4.40155331292536e-028 -0.989176763997178
  outer loop
    vertex 7429.98681221665 4156.31910390567 -62.9174392778327
    vertex 7430.17192292586 4162.71910390567 -62.8946083748259
    vertex 7430.17192292586 4156.31910390567 -62.8946083748259
  endloop
endfacet
facet normal -1.0 0.0 0.0
  outer loop
    vertex 7404.72877442129 4162.71910390567 -58.0794747703401
    vertex 7404.72877442129 4156.31910390567 -66.6758222843664
    vertex 7404.72877442129 4156.31910390567 -58.0794747703401
  endloop
endfacet
facet normal -1.0 0.0 0.0
  outer loop
    vertex 7404.72877442129 4156.31910390567 -66.6758222843664
    vertex 7404.72877442129 4162.71910390567 -58.0794747703401
    vertex 7404.72877442129 4162.71910390567 -66.6758222843664
  endloop
endfacet
facet normal 0.290283020506251 -4.25811267554203e-028 -0.956940838299718
  outer loop
    vertex 7429.44130603394 4162.71910390567 -63.0399357954839
    vertex 7429.26420626332 4156.31910390567 -63.0984413169588
    vertex 7429.26420626332 4162.71910390567 -63.0984413169588
  endloop
endfacet
facet normal 0.336888223299951 -4.18960403992924e-028 -0.941544648437769
  outer loop
    vertex 7429.26420626332 4156.31910390567 -63.0984413169588
    vertex 7429.44130603394 4162.71910390567 -63.0399357954839
    vertex 7429.44130603394 4156.31910390567 -63.0399357954839
  endloop
endfacet
facet normal 0.427553528356376 -4.02249675793186e-028 -0.903990033346615
  outer loop
    vertex 7428.91967810411 4162.71910390567 -63.2411488543052
    vertex 7428.75307971402 4156.31910390567 -63.3250070752195
    vertex 7428.75307971402 4162.71910390567 -63.3250070752195
  endloop
endfacet
facet normal 0.471395209956836 -3.92430068762943e-028 -0.881922080475226
  outer loop
    vertex 7428.75307971402 4156.31910390567 -63.3250070752195
    vertex 7428.91967810411 4162.71910390567 -63.2411488543052
    vertex 7428.91967810411 4156.31910390567 -63.2411488543052
  endloop
endfacet
facet normal -3.6280210642996e-031 -1.0 -4.49839765895509e-029
  outer loop
    vertex 7450.54438151186 4156.31910390567 -66.676310981023
    vertex 7434.33980456825 4156.31910390567 -66.4898603895793
    vertex 7434.34438151186 4156.31910390567 -66.6763175599478
  endloop
endfacet
facet normal -3.6280210642996e-031 -1.0 -4.49839765895509e-029
  outer loop
    vertex 7434.33980456825 4156.31910390567 -66.4898603895793
    vertex 7450.54438151186 4156.31910390567 -66.676310981023
    vertex 7450.54438151186 4156.31910390567 -58.0795864178707
  endloop
endfacet
facet normal -3.6280210642996e-031 -1.0 -4.49839765895509e-029
  outer loop
    vertex 7434.33980456825 4156.31910390567 -66.4898603895793
    vertex 7450.54438151186 4156.31910390567 -58.0795864178707
    vertex 7434.32608411806 4156.31910390567 -66.3038523950167
  endloop
endfacet
facet normal -3.6280210642996e-031 -1.0 -4.49839765895509e-029
  outer loop
    vertex 7434.32608411806 4156.31910390567 -66.3038523950167
    vertex 7450.54438151186 4156.31910390567 -58.0795864178707
    vertex 7434.30325321505 4156.31910390567 -66.1187416858113
  endloop
endfacet
facet normal -3.6280210642996e-031 -1.0 -4.49839765895509e-029
  outer loop
    vertex 7434.30325321505 4156.31910390567 -66.1187416858113
    vertex 7450.54438151186 4156.31910390567 -58.0795864178707
    vertex 7434.27136686087 4156.31910390567 -65.9349742098753
  endloop
endfacet
facet normal -3.6280210642996e-031 -1.0 -4.49839765895509e-029
  outer loop
    vertex 7434.27136686087 4156.31910390567 -65.9349742098753
    vertex 7450.54438151186 4156.31910390567 -58.0795864178707
    vertex 7434.23050187255 4156.31910390567 -65.7529926791545
  endloop
endfacet
facet normal -3.6280210642996e-031 -1.0 -4.49839765895509e-029
  outer loop
    vertex 7434.23050187255 4156.31910390567 -65.7529926791545
    vertex 7450.54438151186 4156.31910390567 -58.0795864178707
    vertex 7434.1807566974 4156.31910390567 -65.573235503096
  endloop
endfacet
facet normal -3.6280210642996e-031 -1.0 -4.49839765895509e-029
  outer loop
    vertex 7434.1807566974 4156.31910390567 -65.573235503096
    vertex 7450.54438151186 4156.31910390567 -58.0795864178707
    vertex 7434.12225117593 4156.31910390567 -65.3961357324819
  endloop
endfacet
facet normal -3.6280210642996e-031 -1.0 -4.49839765895509e-029
  outer loop
    vertex 7434.12225117593 4156.31910390567 -65.3961357324819
    vertex 7450.54438151186 4156.31910390567 -58.0795864178707
    vertex 7434.05512625305 4156.31910390567 -65.2221200161716
  endloop
endfacet
facet normal -3.6280210642996e-031 -1.0 -4.49839765895509e-029
  outer loop
    vertex 7434.05512625305 4156.31910390567 -65.2221200161716
    vertex 7450.54438151186 4156.31910390567 -58.0795864178707
    vertex 7433.97954363858 4156.31910390567 -65.0516075732677
  endloop
endfacet
facet normal -3.6280210642996e-031 -1.0 -4.49839765895509e-029
  outer loop
    vertex 7433.97954363858 4156.31910390567 -65.0516075732677
    vertex 7450.54438151186 4156.31910390567 -58.0795864178707
    vertex 7433.89568541766 4156.31910390567 -64.8850091831803
  endloop
endfacet
facet normal -3.6280210642996e-031 -1.0 -4.49839765895509e-029
  outer loop
    vertex 7433.89568541766 4156.31910390567 -64.8850091831803
    vertex 7450.54438151186 4156.31910390567 -58.0795864178707
    vertex 7433.8037536121 4156.31910390567 -64.7227261960234
  endloop
endfacet
facet normal -3.6280210642996e-031 -1.0 -4.49839765895509e-029
  outer loop
    vertex 7433.8037536121 4156.31910390567 -64.7227261960234
    vertex 7450.54438151186 4156.31910390567 -58.0795864178707
    vertex 7433.70396969366 4156.31910390567 -64.5651495657274
  endloop
endfacet
facet normal -3.6280210642996e-031 -1.0 -4.49839765895509e-029
  outer loop
    vertex 7433.70396969366 4156.31910390567 -64.5651495657274
    vertex 7450.54438151186 4156.31910390567 -58.0795864178707
    vertex 7433.59657405055 4156.31910390567 -64.4126589081967
  endloop
endfacet
facet normal -3.6280210642996e-031 -1.0 -4.49839765895509e-029
  outer loop
    vertex 7433.59657405055 4156.31910390567 -64.4126589081967
    vertex 7450.54438151186 4156.31910390567 -58.0795864178707
    vertex 7433.48182540826 4156.31910390567 -64.265621586782
  endloop
endfacet
facet normal -3.6280210642996e-031 -1.0 -4.49839765895509e-029
  outer loop
    vertex 7433.48182540826 4156.31910390567 -64.265621586782
    vertex 7450.54438151186 4156.31910390567 -58.0795864178707
    vertex 7433.36000020634 4156.31910390567 -64.1243918272694
  endloop
endfacet
facet normal -3.6280210642996e-031 -1.0 -4.49839765895509e-029
  outer loop
    vertex 7433.36000020634 4156.31910390567 -64.1243918272694
    vertex 7450.54438151186 4156.31910390567 -58.0795864178707
    vertex 7433.23139193237 4156.31910390567 -63.98930986452
  endloop
endfacet
facet normal -3.6280210642996e-031 -1.0 -4.49839765895509e-029
  outer loop
    vertex 7433.23139193237 4156.31910390567 -63.98930986452
    vertex 7450.54438151186 4156.31910390567 -58.0795864178707
    vertex 7433.09631041494 4156.31910390567 -63.8607011228137
  endloop
endfacet
facet normal -3.6280210642996e-031 -1.0 -4.49839765895509e-029
  outer loop
    vertex 7433.09631041494 4156.31910390567 -63.8607011228137
    vertex 7450.54438151186 4156.31910390567 -58.0795864178707
    vertex 7432.95508107726 4156.31910390567 -63.7388754318741
  endloop
endfacet
facet normal -3.6280210642996e-031 -1.0 -4.49839765895509e-029
  outer loop
    vertex 7432.95508107726 4156.31910390567 -63.7388754318741
    vertex 7450.54438151186 4156.31910390567 -58.0795864178707
    vertex 7432.80804415317 4156.31910390567 -63.6241262804614
  endloop
endfacet
facet normal -3.6280210642996e-031 -1.0 -4.49839765895509e-029
  outer loop
    vertex 7432.80804415317 4156.31910390567 -63.6241262804614
    vertex 7450.54438151186 4156.31910390567 -58.0795864178707
    vertex 7432.65555386751 4156.31910390567 -63.5167301093322
  endloop
endfacet
facet normal -3.6280210642996e-031 -1.0 -4.49839765895509e-029
  outer loop
    vertex 7432.65555386751 4156.31910390567 -63.5167301093322
    vertex 7450.54438151186 4156.31910390567 -58.0795864178707
    vertex 7432.49797758273 4156.31910390567 -63.4169456452695
  endloop
endfacet
facet normal -3.6280210642996e-031 -1.0 -4.49839765895509e-029
  outer loop
    vertex 7432.49797758273 4156.31910390567 -63.4169456452695
    vertex 7450.54438151186 4156.31910390567 -58.0795864178707
    vertex 7432.33569491389 4156.31910390567 -63.3250132777873
  endloop
endfacet
facet normal -3.6280210642996e-031 -1.0 -4.49839765895509e-029
  outer loop
    vertex 7432.33569491389 4156.31910390567 -63.3250132777873
    vertex 7450.54438151186 4156.31910390567 -58.0795864178707
    vertex 7432.16909681417 4156.31910390567 -63.2411544800111
  endloop
endfacet
facet normal -3.6280210642996e-031 -1.0 -4.49839765895509e-029
  outer loop
    vertex 7432.16909681417 4156.31910390567 -63.2411544800111
    vertex 7450.54438151186 4156.31910390567 -58.0795864178707
    vertex 7431.99858463298 4156.31910390567 -63.1655712751301
  endloop
endfacet
facet normal -3.6280210642996e-031 -1.0 -4.49839765895509e-029
  outer loop
    vertex 7431.99858463298 4156.31910390567 -63.1655712751301
    vertex 7450.54438151186 4156.31910390567 -58.0795864178707
    vertex 7431.8245691491 4156.31910390567 -63.0984457497051
  endloop
endfacet
facet normal -3.6280210642996e-031 -1.0 -4.49839765895509e-029
  outer loop
    vertex 7431.8245691491 4156.31910390567 -63.0984457497051
    vertex 7450.54438151186 4156.31910390567 -58.0795864178707
    vertex 7431.64746958107 4156.31910390567 -63.0399396150063
  endloop
endfacet
facet normal -3.6280210642996e-031 -1.0 -4.49839765895509e-029
  outer loop
    vertex 7431.64746958107 4156.31910390567 -63.0399396150063
    vertex 7450.54438151186 4156.31910390567 -58.0795864178707
    vertex 7431.46771257726 4156.31910390567 -62.9901938174367
  endloop
endfacet
facet normal -3.6280210642996e-031 -1.0 -4.49839765895509e-029
  outer loop
    vertex 7431.46771257726 4156.31910390567 -62.9901938174367
    vertex 7450.54438151186 4156.31910390567 -58.0795864178707
    vertex 7431.28573118804 4156.31910390567 -62.94932819898
  endloop
endfacet
facet normal -3.6280210642996e-031 -1.0 -4.49839765895509e-029
  outer loop
    vertex 7431.28573118804 4156.31910390567 -62.94932819898
    vertex 7450.54438151186 4156.31910390567 -58.0795864178707
    vertex 7431.10196382251 4156.31910390567 -62.9174412084903
  endloop
endfacet
facet normal -3.6280210642996e-031 -1.0 -4.49839765895509e-029
  outer loop
    vertex 7431.10196382251 4156.31910390567 -62.9174412084903
    vertex 7450.54438151186 4156.31910390567 -58.0795864178707
    vertex 7430.91685319236 4156.31910390567 -62.8946096645208
  endloop
endfacet
facet normal -3.6280210642996e-031 -1.0 -4.49839765895509e-029
  outer loop
    vertex 7430.91685319236 4156.31910390567 -62.8946096645208
    vertex 7450.54438151186 4156.31910390567 -58.0795864178707
    vertex 7430.73084524531 4156.31910390567 -62.8808885702606
  endloop
endfacet
facet normal -3.6280210642996e-031 -1.0 -4.49839765895509e-029
  outer loop
    vertex 7430.73084524531 4156.31910390567 -62.8808885702606
    vertex 7450.54438151186 4156.31910390567 -58.0795864178707
    vertex 7430.54438809079 4156.31910390567 -62.8763109810277
  endloop
endfacet
facet normal -3.6280210642996e-031 -1.0 -4.49839765895509e-029
  outer loop
    vertex 7426.7489591011 4156.31910390567 -66.489847247578
    vertex 7404.72877442129 4156.31910390567 -66.6758222843664
    vertex 7426.74828987273 4156.31910390567 -66.676304408864
  endloop
endfacet
facet normal -3.6280210642996e-031 -1.0 -4.49839765895509e-029
  outer loop
    vertex 7404.72877442129 4156.31910390567 -66.6758222843664
    vertex 7426.7489591011 4156.31910390567 -66.489847247578
    vertex 7404.72877442129 4156.31910390567 -58.0794747703401
  endloop
endfacet
facet normal -3.6280210642996e-031 -1.0 -4.49839765895509e-029
  outer loop
    vertex 7404.72877442129 4156.31910390567 -58.0794747703401
    vertex 7426.7489591011 4156.31910390567 -66.489847247578
    vertex 7426.76268019536 4156.31910390567 -66.3038393005249
  endloop
endfacet
facet normal -3.6280210642996e-031 -1.0 -4.49839765895509e-029
  outer loop
    vertex 7404.72877442129 4156.31910390567 -58.0794747703401
    vertex 7426.76268019536 4156.31910390567 -66.3038393005249
    vertex 7426.78551173933 4156.31910390567 -66.1187286703747
  endloop
endfacet
facet normal -3.6280210642996e-031 -1.0 -4.49839765895509e-029
  outer loop
    vertex 7404.72877442129 4156.31910390567 -58.0794747703401
    vertex 7426.78551173933 4156.31910390567 -66.1187286703747
    vertex 7426.81739872982 4156.31910390567 -65.9349613048493
  endloop
endfacet
facet normal -3.6280210642996e-031 -1.0 -4.49839765895509e-029
  outer loop
    vertex 7404.72877442129 4156.31910390567 -58.0794747703401
    vertex 7426.81739872982 4156.31910390567 -65.9349613048493
    vertex 7426.85826434828 4156.31910390567 -65.7529799156284
  endloop
endfacet
facet normal -3.6280210642996e-031 -1.0 -4.49839765895509e-029
  outer loop
    vertex 7404.72877442129 4156.31910390567 -58.0794747703401
    vertex 7426.85826434828 4156.31910390567 -65.7529799156284
    vertex 7426.90801014585 4156.31910390567 -65.5732229118182
  endloop
endfacet
facet normal -3.6280210642996e-031 -1.0 -4.49839765895509e-029
  outer loop
    vertex 7404.72877442129 4156.31910390567 -58.0794747703401
    vertex 7426.90801014585 4156.31910390567 -65.5732229118182
    vertex 7426.96651628055 4156.31910390567 -65.3961233437859
  endloop
endfacet
facet normal -3.6280210642996e-031 -1.0 -4.49839765895509e-029
  outer loop
    vertex 7404.72877442129 4156.31910390567 -58.0794747703401
    vertex 7426.96651628055 4156.31910390567 -65.3961233437859
    vertex 7427.03364180597 4156.31910390567 -65.2221078599029
  endloop
endfacet
facet normal -3.6280210642996e-031 -1.0 -4.49839765895509e-029
  outer loop
    vertex 7404.72877442129 4156.31910390567 -58.0794747703401
    vertex 7427.03364180597 4156.31910390567 -65.2221078599029
    vertex 7427.10922501085 4156.31910390567 -65.0515956787118
  endloop
endfacet
facet normal -3.6280210642996e-031 -1.0 -4.49839765895509e-029
  outer loop
    vertex 7404.72877442129 4156.31910390567 -58.0794747703401
    vertex 7427.10922501085 4156.31910390567 -65.0515956787118
    vertex 7427.19308380863 4156.31910390567 -64.8849975789922
  endloop
endfacet
facet normal -3.6280210642996e-031 -1.0 -4.49839765895509e-029
  outer loop
    vertex 7404.72877442129 4156.31910390567 -58.0794747703401
    vertex 7427.19308380863 4156.31910390567 -64.8849975789922
    vertex 7427.28501617611 4156.31910390567 -64.7227149101586
  endloop
endfacet
facet normal -3.6280210642996e-031 -1.0 -4.49839765895509e-029
  outer loop
    vertex 7404.72877442129 4156.31910390567 -58.0794747703401
    vertex 7427.28501617611 4156.31910390567 -64.7227149101586
    vertex 7427.38480064017 4156.31910390567 -64.5651386253746
  endloop
endfacet
facet normal -3.6280210642996e-031 -1.0 -4.49839765895509e-029
  outer loop
    vertex 7404.72877442129 4156.31910390567 -58.0794747703401
    vertex 7427.38480064017 4156.31910390567 -64.5651386253746
    vertex 7427.4921968113 4156.31910390567 -64.4126483397121
  endloop
endfacet
facet normal -3.6280210642996e-031 -1.0 -4.49839765895509e-029
  outer loop
    vertex 7404.72877442129 4156.31910390567 -58.0794747703401
    vertex 7427.4921968113 4156.31910390567 -64.4126483397121
    vertex 7427.60694596271 4156.31910390567 -64.265611415626
  endloop
endfacet
facet normal -3.6280210642996e-031 -1.0 -4.49839765895509e-029
  outer loop
    vertex 7404.72877442129 4156.31910390567 -58.0794747703401
    vertex 7427.60694596271 4156.31910390567 -64.265611415626
    vertex 7427.72877165365 4156.31910390567 -64.1243820779453
  endloop
endfacet
facet normal -3.6280210642996e-031 -1.0 -4.49839765895509e-029
  outer loop
    vertex 7404.72877442129 4156.31910390567 -58.0794747703401
    vertex 7427.72877165365 4156.31910390567 -64.1243820779453
    vertex 7427.85738039536 4156.31910390567 -63.9893005605147
  endloop
endfacet
facet normal -3.6280210642996e-031 -1.0 -4.49839765895509e-029
  outer loop
    vertex 7404.72877442129 4156.31910390567 -58.0794747703401
    vertex 7427.85738039536 4156.31910390567 -63.9893005605147
    vertex 7427.99246235811 4156.31910390567 -63.8606922865414
  endloop
endfacet
facet normal -3.6280210642996e-031 -1.0 -4.49839765895509e-029
  outer loop
    vertex 7404.72877442129 4156.31910390567 -58.0794747703401
    vertex 7427.99246235811 4156.31910390567 -63.8606922865414
    vertex 7428.13369211762 4156.31910390567 -63.7388670846222
  endloop
endfacet
facet normal -3.6280210642996e-031 -1.0 -4.49839765895509e-029
  outer loop
    vertex 7404.72877442129 4156.31910390567 -58.0794747703401
    vertex 7428.13369211762 4156.31910390567 -63.7388670846222
    vertex 7428.28072943904 4156.31910390567 -63.6241184423391
  endloop
endfacet
facet normal -3.6280210642996e-031 -1.0 -4.49839765895509e-029
  outer loop
    vertex 7404.72877442129 4156.31910390567 -58.0794747703401
    vertex 7428.28072943904 4156.31910390567 -63.6241184423391
    vertex 7428.43322009657 4156.31910390567 -63.5167227992222
  endloop
endfacet
facet normal -3.6280210642996e-031 -1.0 -4.49839765895509e-029
  outer loop
    vertex 7404.72877442129 4156.31910390567 -58.0794747703401
    vertex 7428.43322009657 4156.31910390567 -63.5167227992222
    vertex 7428.59079672686 4156.31910390567 -63.4169388807825
  endloop
endfacet
facet normal -3.6280210642996e-031 -1.0 -4.49839765895509e-029
  outer loop
    vertex 7404.72877442129 4156.31910390567 -58.0794747703401
    vertex 7428.59079672686 4156.31910390567 -63.4169388807825
    vertex 7428.75307971402 4156.31910390567 -63.3250070752195
  endloop
endfacet
facet normal -3.6280210642996e-031 -1.0 -4.49839765895509e-029
  outer loop
    vertex 7404.72877442129 4156.31910390567 -58.0794747703401
    vertex 7428.75307971402 4156.31910390567 -63.3250070752195
    vertex 7428.91967810411 4156.31910390567 -63.2411488543052
  endloop
endfacet
facet normal -3.6280210642996e-031 -1.0 -4.49839765895509e-029
  outer loop
    vertex 7404.72877442129 4156.31910390567 -58.0794747703401
    vertex 7428.91967810411 4156.31910390567 -63.2411488543052
    vertex 7429.09019054701 4156.31910390567 -63.1655662398388
  endloop
endfacet
facet normal -3.6280210642996e-031 -1.0 -4.49839765895509e-029
  outer loop
    vertex 7404.72877442129 4156.31910390567 -58.0794747703401
    vertex 7429.09019054701 4156.31910390567 -63.1655662398388
    vertex 7429.26420626332 4156.31910390567 -63.0984413169588
  endloop
endfacet
facet normal -3.6280210642996e-031 -1.0 -4.49839765895509e-029
  outer loop
    vertex 7404.72877442129 4156.31910390567 -58.0794747703401
    vertex 7429.26420626332 4156.31910390567 -63.0984413169588
    vertex 7429.44130603394 4156.31910390567 -63.0399357954839
  endloop
endfacet
facet normal -3.6280210642996e-031 -1.0 -4.49839765895509e-029
  outer loop
    vertex 7404.72877442129 4156.31910390567 -58.0794747703401
    vertex 7429.44130603394 4156.31910390567 -63.0399357954839
    vertex 7429.62106320999 4156.31910390567 -62.9901906203399
  endloop
endfacet
facet normal -3.6280210642996e-031 -1.0 -4.49839765895509e-029
  outer loop
    vertex 7404.72877442129 4156.31910390567 -58.0794747703401
    vertex 7429.62106320999 4156.31910390567 -62.9901906203399
    vertex 7429.80304474071 4156.31910390567 -62.9493256320107
  endloop
endfacet
facet normal -3.6280210642996e-031 -1.0 -4.49839765895509e-029
  outer loop
    vertex 7404.72877442129 4156.31910390567 -58.0794747703401
    vertex 7429.80304474071 4156.31910390567 -62.9493256320107
    vertex 7429.98681221665 4156.31910390567 -62.9174392778327
  endloop
endfacet
facet normal -3.6280210642996e-031 -1.0 -4.49839765895509e-029
  outer loop
    vertex 7404.72877442129 4156.31910390567 -58.0794747703401
    vertex 7429.98681221665 4156.31910390567 -62.9174392778327
    vertex 7430.17192292586 4156.31910390567 -62.8946083748259
  endloop
endfacet
facet normal -3.6280210642996e-031 -1.0 -4.49839765895509e-029
  outer loop
    vertex 7404.72877442129 4156.31910390567 -58.0794747703401
    vertex 7430.17192292586 4156.31910390567 -62.8946083748259
    vertex 7430.35793092042 4156.31910390567 -62.8808879246355
  endloop
endfacet
facet normal -3.6280210642996e-031 -1.0 -4.49839765895509e-029
  outer loop
    vertex 7404.72877442129 4156.31910390567 -58.0794747703401
    vertex 7430.35793092042 4156.31910390567 -62.8808879246355
    vertex 7430.54438809079 4156.31910390567 -62.8763109810277
  endloop
endfacet
facet normal -3.6280210642996e-031 -1.0 -4.49839765895509e-029
  outer loop
    vertex 7404.72877442129 4156.31910390567 -58.0794747703401
    vertex 7430.54438809079 4156.31910390567 -62.8763109810277
    vertex 7450.54438151186 4156.31910390567 -58.0795864178707
  endloop
endfacet
facet normal -0.382685031874509 -4.11099638481564e-028 -0.92387886997117
  outer loop
    vertex 7431.99858463298 4162.71910390567 -63.1655712751301
    vertex 7431.8245691491 4156.31910390567 -63.0984457497051
    vertex 7431.8245691491 4162.71910390567 -63.0984457497051
  endloop
endfacet
facet normal -0.336891483483243 -4.18959884911702e-028 -0.941543481925535
  outer loop
    vertex 7431.8245691491 4156.31910390567 -63.0984457497051
    vertex 7431.99858463298 4162.71910390567 -63.1655712751301
    vertex 7431.99858463298 4156.31910390567 -63.1655712751301
  endloop
endfacet
facet normal -0.634394622473298 -3.43967025029917e-028 -0.773009355038451
  outer loop
    vertex 7432.95508107726 4162.71910390567 -63.7388754318741
    vertex 7432.80804415317 4156.31910390567 -63.6241262804614
    vertex 7432.80804415317 4162.71910390567 -63.6241262804614
  endloop
endfacet
facet normal -0.595700695080607 -3.57403889799206e-028 -0.803206500148301
  outer loop
    vertex 7432.80804415317 4156.31910390567 -63.6241262804614
    vertex 7432.95508107726 4162.71910390567 -63.7388754318741
    vertex 7432.95508107726 4156.31910390567 -63.7388754318741
  endloop
endfacet
facet normal -0.514104229174951 -3.81664271191907e-028 -0.85772771993473
  outer loop
    vertex 7432.49797758273 4162.71910390567 -63.4169456452695
    vertex 7432.33569491389 4156.31910390567 -63.3250132777873
    vertex 7432.33569491389 4162.71910390567 -63.3250132777873
  endloop
endfacet
facet normal -0.471398263692308 -3.92429342432592e-028 -0.88192044821961
  outer loop
    vertex 7432.33569491389 4156.31910390567 -63.3250132777873
    vertex 7432.49797758273 4162.71910390567 -63.4169456452695
    vertex 7432.49797758273 4156.31910390567 -63.4169456452695
  endloop
endfacet
facet normal -0.55557167253682 -3.69979737292808e-028 -0.831468650446089
  outer loop
    vertex 7432.65555386751 4162.71910390567 -63.5167301093322
    vertex 7432.49797758273 4156.31910390567 -63.4169456452695
    vertex 7432.49797758273 4162.71910390567 -63.4169456452695
  endloop
endfacet
facet normal -0.514104229174951 -3.81664271191907e-028 -0.85772771993473
  outer loop
    vertex 7432.49797758273 4156.31910390567 -63.4169456452695
    vertex 7432.65555386751 4162.71910390567 -63.5167301093322
    vertex 7432.65555386751 4156.31910390567 -63.5167301093322
  endloop
endfacet
facet normal -0.970031673863798 -1.08118474117706e-028 -0.242978500491295
  outer loop
    vertex 7434.23050187255 4162.71910390567 -65.7529926791545
    vertex 7434.27136686087 4156.31910390567 -65.9349742098753
    vertex 7434.23050187255 4156.31910390567 -65.7529926791545
  endloop
endfacet
facet normal -0.980785618161397 -8.6808850573005e-029 -0.195088623983479
  outer loop
    vertex 7434.27136686087 4156.31910390567 -65.9349742098753
    vertex 7434.23050187255 4162.71910390567 -65.7529926791545
    vertex 7434.27136686087 4162.71910390567 -65.9349742098753
  endloop
endfacet
facet normal 0.336888223299951 -4.18960403992924e-028 -0.941544648437769
  outer loop
    vertex 7429.26420626332 4162.71910390567 -63.0984413169588
    vertex 7429.09019054701 4156.31910390567 -63.1655662398388
    vertex 7429.09019054701 4162.71910390567 -63.1655662398388
  endloop
endfacet
facet normal 0.382681832856729 -4.11100228121633e-028 -0.923880195047721
  outer loop
    vertex 7429.09019054701 4156.31910390567 -63.1655662398388
    vertex 7429.26420626332 4162.71910390567 -63.0984413169588
    vertex 7429.26420626332 4156.31910390567 -63.0984413169588
  endloop
endfacet
facet normal -0.941544648438434 -1.49905611319497e-028 -0.336888223298094
  outer loop
    vertex 7434.12225117593 4162.71910390567 -65.3961357324819
    vertex 7434.1807566974 4156.31910390567 -65.573235503096
    vertex 7434.12225117593 4156.31910390567 -65.3961357324819
  endloop
endfacet
facet normal -0.956940838299472 -1.29167630787325e-028 -0.290283020507063
  outer loop
    vertex 7434.1807566974 4156.31910390567 -65.573235503096
    vertex 7434.12225117593 4162.71910390567 -65.3961357324819
    vertex 7434.1807566974 4162.71910390567 -65.573235503096
  endloop
endfacet
facet normal -0.881922080474678 -2.09757368285687e-028 -0.47139520995786
  outer loop
    vertex 7433.89568541766 4162.71910390567 -64.8850091831803
    vertex 7433.97954363858 4156.31910390567 -65.0516075732677
    vertex 7433.89568541766 4156.31910390567 -64.8850091831803
  endloop
endfacet
facet normal -0.903990033345697 -1.90249075540039e-028 -0.427553528358316
  outer loop
    vertex 7433.97954363858 4156.31910390567 -65.0516075732677
    vertex 7433.89568541766 4162.71910390567 -64.8850091831803
    vertex 7433.97954363858 4162.71910390567 -65.0516075732677
  endloop
endfacet
facet normal -0.903990033345697 -1.90249075540039e-028 -0.427553528358316
  outer loop
    vertex 7433.97954363858 4162.71910390567 -65.0516075732677
    vertex 7434.05512625305 4156.31910390567 -65.2221200161716
    vertex 7433.97954363858 4156.31910390567 -65.0516075732677
  endloop
endfacet
facet normal -0.923880195046974 -1.70282456107047e-028 -0.382681832858532
  outer loop
    vertex 7434.05512625305 4156.31910390567 -65.2221200161716
    vertex 7433.97954363858 4162.71910390567 -65.0516075732677
    vertex 7434.05512625305 4162.71910390567 -65.2221200161716
  endloop
endfacet
facet normal 0.956939833161898 -1.29169105244887e-028 -0.290286334001582
  outer loop
    vertex 7426.90801014585 4162.71910390567 -65.5732229118182
    vertex 7426.96651628055 4156.31910390567 -65.3961233437859
    vertex 7426.90801014585 4156.31910390567 -65.5732229118182
  endloop
endfacet
facet normal 0.941543481925771 -1.49907062054859e-028 -0.336891483482585
  outer loop
    vertex 7426.96651628055 4156.31910390567 -65.3961233437859
    vertex 7426.90801014585 4162.71910390567 -65.5732229118182
    vertex 7426.96651628055 4162.71910390567 -65.3961233437859
  endloop
endfacet
facet normal 0.941543481925771 -1.49907062054859e-028 -0.336891483482585
  outer loop
    vertex 7426.96651628055 4162.71910390567 -65.3961233437859
    vertex 7427.03364180597 4156.31910390567 -65.2221078599029
    vertex 7426.96651628055 4156.31910390567 -65.3961233437859
  endloop
endfacet
facet normal 0.923878869971257 -1.70283879623204e-028 -0.382685031874298
  outer loop
    vertex 7427.03364180597 4156.31910390567 -65.2221078599029
    vertex 7426.96651628055 4162.71910390567 -65.3961233437859
    vertex 7427.03364180597 4162.71910390567 -65.2221078599029
  endloop
endfacet
facet normal 0.980784942642489 -8.68103617723027e-029 -0.195092020046359
  outer loop
    vertex 7426.81739872982 4162.71910390567 -65.9349613048493
    vertex 7426.85826434828 4156.31910390567 -65.7529799156284
    vertex 7426.81739872982 4156.31910390567 -65.9349613048493
  endloop
endfacet
facet normal 0.970030832522039 -1.08119968746496e-028 -0.242981859315878
  outer loop
    vertex 7426.85826434828 4156.31910390567 -65.7529799156284
    vertex 7426.81739872982 4162.71910390567 -65.9349613048493
    vertex 7426.85826434828 4162.71910390567 -65.7529799156284
  endloop
endfacet
facet normal -0.831470574157979 -2.47212202344501e-028 -0.55556879349852
  outer loop
    vertex 7433.70396969366 4162.71910390567 -64.5651495657274
    vertex 7433.8037536121 4156.31910390567 -64.7227261960234
    vertex 7433.70396969366 4156.31910390567 -64.5651495657274
  endloop
endfacet
facet normal -0.857729500062245 -2.28760337160494e-028 -0.514101259211618
  outer loop
    vertex 7433.8037536121 4156.31910390567 -64.7227261960234
    vertex 7433.70396969366 4162.71910390567 -64.5651495657274
    vertex 7433.8037536121 4162.71910390567 -64.7227261960234
  endloop
endfacet
facet normal -0.857729500062245 -2.28760337160494e-028 -0.514101259211618
  outer loop
    vertex 7433.8037536121 4162.71910390567 -64.7227261960234
    vertex 7433.89568541766 4156.31910390567 -64.8850091831803
    vertex 7433.8037536121 4156.31910390567 -64.7227261960234
  endloop
endfacet
facet normal -0.881922080474678 -2.09757368285687e-028 -0.47139520995786
  outer loop
    vertex 7433.89568541766 4156.31910390567 -64.8850091831803
    vertex 7433.8037536121 4162.71910390567 -64.7227261960234
    vertex 7433.89568541766 4162.71910390567 -64.8850091831803
  endloop
endfacet
facet normal 2.43688859775563e-006 0.0 0.999999999997031
  outer loop
    vertex 7450.54438151186 4156.31910390567 -58.0795864178707
    vertex 7404.72877442129 4162.71910390567 -58.0794747703401
    vertex 7404.72877442129 4156.31910390567 -58.0794747703401
  endloop
endfacet
facet normal 2.43688859775563e-006 0.0 0.999999999997031
  outer loop
    vertex 7404.72877442129 4162.71910390567 -58.0794747703401
    vertex 7450.54438151186 4156.31910390567 -58.0795864178707
    vertex 7450.54438151186 4162.71910390567 -58.0795864178707
  endloop
endfacet
facet normal 1.0 0.0 0.0
  outer loop
    vertex 7450.54438151186 4162.71910390567 -66.6763109810226
    vertex 7450.54438151186 4156.31910390567 -58.0795864178707
    vertex 7450.54438151186 4156.31910390567 -66.676310981023
  endloop
endfacet
facet normal 1.0 0.0 0.0
  outer loop
    vertex 7450.54438151186 4156.31910390567 -58.0795864178707
    vertex 7450.54438151186 4162.71910390567 -66.6763109810226
    vertex 7450.54438151186 4162.71910390567 -58.0795864178707
  endloop
endfacet
facet normal 0.999254688441786 -1.63774888613926e-029 -0.038601394108376
  outer loop
    vertex 7426.7489591011 4162.71910390567 -66.489847247578
    vertex 7426.76268019536 4156.31910390567 -66.3038393005249
    vertex 7426.7489591011 4156.31910390567 -66.489847247578
  endloop
endfacet
facet normal 0.995184556974208 -4.36155870591121e-029 -0.0980188632868667
  outer loop
    vertex 7426.76268019536 4156.31910390567 -66.3038393005249
    vertex 7426.7489591011 4162.71910390567 -66.489847247578
    vertex 7426.76268019536 4162.71910390567 -66.3038393005249
  endloop
endfacet
facet normal -0.195092020045158 -4.36421211111798e-028 -0.980784942642728
  outer loop
    vertex 7431.28573118804 4162.71910390567 -62.94932819898
    vertex 7431.10196382251 4156.31910390567 -62.9174412084903
    vertex 7431.10196382251 4162.71910390567 -62.9174412084903
  endloop
endfacet
facet normal -0.146732187012038 -4.40155105209693e-028 -0.98917625592948
  outer loop
    vertex 7431.10196382251 4156.31910390567 -62.9174412084903
    vertex 7431.28573118804 4162.71910390567 -62.94932819898
    vertex 7431.28573118804 4156.31910390567 -62.94932819898
  endloop
endfacet
facet normal -0.0490694035379596 -4.44435336052577e-028 -0.998795371253006
  outer loop
    vertex 7430.73084524531 4162.71910390567 -62.8808885702606
    vertex 7430.54438809079 4156.31910390567 -62.8763109810277
    vertex 7430.54438809079 4162.71910390567 -62.8763109810277
  endloop
endfacet
facet normal -1.73129598944985e-006 -4.44971361346593e-028 -0.999999999998501
  outer loop
    vertex 7430.54438809079 4156.31910390567 -62.8763109810277
    vertex 7430.73084524531 4162.71910390567 -62.8808885702606
    vertex 7430.73084524531 4156.31910390567 -62.8808885702606
  endloop
endfacet
facet normal -0.0980188632890205 -4.42828627106062e-028 -0.995184556973996
  outer loop
    vertex 7430.91685319236 4162.71910390567 -62.8946096645208
    vertex 7430.73084524531 4156.31910390567 -62.8808885702606
    vertex 7430.73084524531 4162.71910390567 -62.8808885702606
  endloop
endfacet
facet normal -0.0490694035379596 -4.44435336052577e-028 -0.998795371253006
  outer loop
    vertex 7430.73084524531 4156.31910390567 -62.8808885702606
    vertex 7430.91685319236 4162.71910390567 -62.8946096645208
    vertex 7430.91685319236 4156.31910390567 -62.8946096645208
  endloop
endfacet
facet normal -0.980785618161397 -8.6808850573005e-029 -0.195088623983479
  outer loop
    vertex 7434.27136686087 4162.71910390567 -65.9349742098753
    vertex 7434.30325321505 4156.31910390567 -66.1187416858113
    vertex 7434.27136686087 4156.31910390567 -65.9349742098753
  endloop
endfacet
facet normal -0.989176763997417 -6.52900969052663e-029 -0.146728761896226
  outer loop
    vertex 7434.30325321505 4156.31910390567 -66.1187416858113
    vertex 7434.27136686087 4162.71910390567 -65.9349742098753
    vertex 7434.30325321505 4162.71910390567 -66.1187416858113
  endloop
endfacet
facet normal -0.989176763997417 -6.52900969052663e-029 -0.146728761896226
  outer loop
    vertex 7434.30325321505 4162.71910390567 -66.1187416858113
    vertex 7434.32608411806 4156.31910390567 -66.3038523950167
    vertex 7434.30325321505 4156.31910390567 -66.1187416858113
  endloop
endfacet
facet normal -0.995184896367252 -4.36140536761555e-029 -0.0980154173714624
  outer loop
    vertex 7434.32608411806 4156.31910390567 -66.3038523950167
    vertex 7434.30325321505 4162.71910390567 -66.1187416858113
    vertex 7434.32608411806 4162.71910390567 -66.3038523950167
  endloop
endfacet
facet normal -0.956940838299472 -1.29167630787325e-028 -0.290283020507063
  outer loop
    vertex 7434.1807566974 4162.71910390567 -65.573235503096
    vertex 7434.23050187255 4156.31910390567 -65.7529926791545
    vertex 7434.1807566974 4156.31910390567 -65.573235503096
  endloop
endfacet
facet normal -0.970031673863798 -1.08118474117706e-028 -0.242978500491295
  outer loop
    vertex 7434.23050187255 4156.31910390567 -65.7529926791545
    vertex 7434.1807566974 4162.71910390567 -65.573235503096
    vertex 7434.23050187255 4162.71910390567 -65.7529926791545
  endloop
endfacet
facet normal -0.923880195046974 -1.70282456107047e-028 -0.382681832858532
  outer loop
    vertex 7434.05512625305 4162.71910390567 -65.2221200161716
    vertex 7434.12225117593 4156.31910390567 -65.3961357324819
    vertex 7434.05512625305 4156.31910390567 -65.2221200161716
  endloop
endfacet
facet normal -0.941544648438434 -1.49905611319497e-028 -0.336888223298094
  outer loop
    vertex 7434.12225117593 4156.31910390567 -65.3961357324819
    vertex 7434.05512625305 4162.71910390567 -65.2221200161716
    vertex 7434.12225117593 4162.71910390567 -65.3961357324819
  endloop
endfacet
facet normal 0.857727719934354 -2.2876165875188e-028 -0.514104229175577
  outer loop
    vertex 7427.28501617611 4162.71910390567 -64.7227149101586
    vertex 7427.38480064017 4156.31910390567 -64.5651386253746
    vertex 7427.28501617611 4156.31910390567 -64.7227149101586
  endloop
endfacet
facet normal 0.831468650444805 -2.47213483476128e-028 -0.555571672538742
  outer loop
    vertex 7427.38480064017 4156.31910390567 -64.5651386253746
    vertex 7427.28501617611 4162.71910390567 -64.7227149101586
    vertex 7427.38480064017 4162.71910390567 -64.5651386253746
  endloop
endfacet
facet normal 0.923878869971257 -1.70283879623204e-028 -0.382685031874298
  outer loop
    vertex 7427.03364180597 4162.71910390567 -65.2221078599029
    vertex 7427.10922501085 4156.31910390567 -65.0515956787118
    vertex 7427.03364180597 4156.31910390567 -65.2221078599029
  endloop
endfacet
facet normal 0.903988552898793 -1.90250468408352e-028 -0.427556658500305
  outer loop
    vertex 7427.10922501085 4156.31910390567 -65.0515956787118
    vertex 7427.03364180597 4162.71910390567 -65.2221078599029
    vertex 7427.10922501085 4162.71910390567 -65.0515956787118
  endloop
endfacet
facet normal 0.903988552898793 -1.90250468408352e-028 -0.427556658500305
  outer loop
    vertex 7427.10922501085 4162.71910390567 -65.0515956787118
    vertex 7427.19308380863 4156.31910390567 -64.8849975789922
    vertex 7427.10922501085 4156.31910390567 -65.0515956787118
  endloop
endfacet
facet normal 0.881920448220471 -2.09758727153024e-028 -0.471398263690697
  outer loop
    vertex 7427.19308380863 4156.31910390567 -64.8849975789922
    vertex 7427.10922501085 4162.71910390567 -65.0515956787118
    vertex 7427.19308380863 4162.71910390567 -64.8849975789922
  endloop
endfacet
facet normal 0.471395209956836 -3.92430068762943e-028 -0.881922080475226
  outer loop
    vertex 7428.75307971402 4162.71910390567 -63.3250070752195
    vertex 7428.59079672686 4156.31910390567 -63.4169388807825
    vertex 7428.59079672686 4162.71910390567 -63.4169388807825
  endloop
endfacet
facet normal 0.514101259210983 -3.81665063323302e-028 -0.857729500062625
  outer loop
    vertex 7428.59079672686 4156.31910390567 -63.4169388807825
    vertex 7428.75307971402 4162.71910390567 -63.3250070752195
    vertex 7428.75307971402 4156.31910390567 -63.3250070752195
  endloop
endfacet
facet normal 0.595697913900781 -3.57404807654911e-028 -0.803208562811838
  outer loop
    vertex 7428.28072943904 4162.71910390567 -63.6241184423391
    vertex 7428.13369211762 4156.31910390567 -63.7388670846222
    vertex 7428.13369211762 4162.71910390567 -63.7388670846222
  endloop
endfacet
facet normal 0.634391945851853 -3.43968002506099e-028 -0.773011551684902
  outer loop
    vertex 7428.13369211762 4156.31910390567 -63.7388670846222
    vertex 7428.28072943904 4162.71910390567 -63.6241184423391
    vertex 7428.28072943904 4156.31910390567 -63.6241184423391
  endloop
endfacet
facet normal 4.06106482686827e-007 3.60955710129116e-014 -0.999999999999918
  outer loop
    vertex 7450.54438151186 4162.71910390567 -66.6763109810226
    vertex 7434.34438151186 4156.31910390567 -66.6763175599478
    vertex 7434.34438151186 4162.71910390567 -66.6763175599478
  endloop
endfacet
facet normal 4.06106482686827e-007 3.60955710129116e-014 -0.999999999999918
  outer loop
    vertex 7434.34438151186 4156.31910390567 -66.6763175599478
    vertex 7450.54438151186 4162.71910390567 -66.6763109810226
    vertex 7450.54438151186 4156.31910390567 -66.676310981023
  endloop
endfacet
facet normal 0.382681832856729 -4.11100228121633e-028 -0.923880195047721
  outer loop
    vertex 7429.09019054701 4162.71910390567 -63.1655662398388
    vertex 7428.91967810411 4156.31910390567 -63.2411488543052
    vertex 7428.91967810411 4162.71910390567 -63.2411488543052
  endloop
endfacet
facet normal 0.427553528356376 -4.02249675793186e-028 -0.903990033346615
  outer loop
    vertex 7428.91967810411 4156.31910390567 -63.2411488543052
    vertex 7429.09019054701 4162.71910390567 -63.1655662398388
    vertex 7429.09019054701 4156.31910390567 -63.1655662398388
  endloop
endfacet
facet normal 0.999993558954703 0.0 -0.00358915715843114
  outer loop
    vertex 7426.74828987273 4162.71910390567 -66.676304408864
    vertex 7426.7489591011 4156.31910390567 -66.489847247578
    vertex 7426.74828987273 4156.31910390567 -66.676304408864
  endloop
endfacet
facet normal 0.999254688441786 -1.63774888613926e-029 -0.038601394108376
  outer loop
    vertex 7426.7489591011 4156.31910390567 -66.489847247578
    vertex 7426.74828987273 4162.71910390567 -66.676304408864
    vertex 7426.7489591011 4162.71910390567 -66.489847247578
  endloop
endfacet
facet normal 0.803206500148146 -2.6506974926551e-028 -0.595700695080815
  outer loop
    vertex 7427.4921968113 4162.71910390567 -64.4126483397121
    vertex 7427.60694596271 4156.31910390567 -64.265611415626
    vertex 7427.4921968113 4156.31910390567 -64.4126483397121
  endloop
endfacet
facet normal 0.773009355039876 -2.82287438811694e-028 -0.634394622471561
  outer loop
    vertex 7427.60694596271 4156.31910390567 -64.265611415626
    vertex 7427.4921968113 4162.71910390567 -64.4126483397121
    vertex 7427.60694596271 4162.71910390567 -64.265611415626
  endloop
endfacet
facet normal -0.290286334001 -4.2581082028236e-028 -0.956939833162075
  outer loop
    vertex 7431.64746958107 4162.71910390567 -63.0399396150063
    vertex 7431.46771257726 4156.31910390567 -62.9901938174367
    vertex 7431.46771257726 4162.71910390567 -62.9901938174367
  endloop
endfacet
facet normal -0.242981859314721 -4.3163594009026e-028 -0.970030832522328
  outer loop
    vertex 7431.46771257726 4156.31910390567 -62.9901938174367
    vertex 7431.64746958107 4162.71910390567 -63.0399396150063
    vertex 7431.64746958107 4156.31910390567 -63.0399396150063
  endloop
endfacet
facet normal -0.146732187012038 -4.40155105209693e-028 -0.98917625592948
  outer loop
    vertex 7431.10196382251 4162.71910390567 -62.9174412084903
    vertex 7430.91685319236 4156.31910390567 -62.8946096645208
    vertex 7430.91685319236 4162.71910390567 -62.8946096645208
  endloop
endfacet
facet normal -0.0980188632890205 -4.42828627106062e-028 -0.995184556973996
  outer loop
    vertex 7430.91685319236 4156.31910390567 -62.8946096645208
    vertex 7431.10196382251 4162.71910390567 -62.9174412084903
    vertex 7431.10196382251 4156.31910390567 -62.9174412084903
  endloop
endfacet
facet normal -0.427556658502307 -4.02249017014707e-028 -0.903988552897846
  outer loop
    vertex 7432.16909681417 4162.71910390567 -63.2411544800111
    vertex 7431.99858463298 4156.31910390567 -63.1655712751301
    vertex 7431.99858463298 4162.71910390567 -63.1655712751301
  endloop
endfacet
facet normal -0.382685031874509 -4.11099638481564e-028 -0.92387886997117
  outer loop
    vertex 7431.99858463298 4156.31910390567 -63.1655712751301
    vertex 7432.16909681417 4162.71910390567 -63.2411544800111
    vertex 7432.16909681417 4156.31910390567 -63.2411544800111
  endloop
endfacet
facet normal -0.471398263692308 -3.92429342432592e-028 -0.88192044821961
  outer loop
    vertex 7432.33569491389 4162.71910390567 -63.3250132777873
    vertex 7432.16909681417 4156.31910390567 -63.2411544800111
    vertex 7432.16909681417 4162.71910390567 -63.2411544800111
  endloop
endfacet
facet normal -0.427556658502307 -4.02249017014707e-028 -0.903988552897846
  outer loop
    vertex 7432.16909681417 4156.31910390567 -63.2411544800111
    vertex 7432.33569491389 4162.71910390567 -63.3250132777873
    vertex 7432.33569491389 4156.31910390567 -63.3250132777873
  endloop
endfacet
facet normal -0.336891483483243 -4.18959884911702e-028 -0.941543481925535
  outer loop
    vertex 7431.8245691491 4162.71910390567 -63.0984457497051
    vertex 7431.64746958107 4156.31910390567 -63.0399396150063
    vertex 7431.64746958107 4162.71910390567 -63.0399396150063
  endloop
endfacet
facet normal -0.290286334001 -4.2581082028236e-028 -0.956939833162075
  outer loop
    vertex 7431.64746958107 4156.31910390567 -63.0399396150063
    vertex 7431.8245691491 4162.71910390567 -63.0984457497051
    vertex 7431.8245691491 4156.31910390567 -63.0984457497051
  endloop
endfacet
facet normal 0.831468650444805 -2.47213483476128e-028 -0.555571672538742
  outer loop
    vertex 7427.38480064017 4162.71910390567 -64.5651386253746
    vertex 7427.4921968113 4156.31910390567 -64.4126483397121
    vertex 7427.38480064017 4156.31910390567 -64.5651386253746
  endloop
endfacet
facet normal 0.803206500148146 -2.6506974926551e-028 -0.595700695080815
  outer loop
    vertex 7427.4921968113 4156.31910390567 -64.4126483397121
    vertex 7427.38480064017 4162.71910390567 -64.5651386253746
    vertex 7427.4921968113 4162.71910390567 -64.4126483397121
  endloop
endfacet
facet normal -0.773011551684412 -2.8228624775456e-028 -0.63439194585245
  outer loop
    vertex 7433.48182540826 4162.71910390567 -64.265621586782
    vertex 7433.59657405055 4156.31910390567 -64.4126589081967
    vertex 7433.48182540826 4156.31910390567 -64.265621586782
  endloop
endfacet
facet normal -0.80320856281107 -2.65068511680724e-028 -0.595697913901816
  outer loop
    vertex 7433.59657405055 4156.31910390567 -64.4126589081967
    vertex 7433.48182540826 4162.71910390567 -64.265621586782
    vertex 7433.59657405055 4162.71910390567 -64.4126589081967
  endloop
endfacet
facet normal -0.80320856281107 -2.65068511680724e-028 -0.595697913901816
  outer loop
    vertex 7433.59657405055 4162.71910390567 -64.4126589081967
    vertex 7433.70396969366 4156.31910390567 -64.5651495657274
    vertex 7433.59657405055 4156.31910390567 -64.4126589081967
  endloop
endfacet
facet normal -0.831470574157979 -2.47212202344501e-028 -0.55556879349852
  outer loop
    vertex 7433.70396969366 4156.31910390567 -64.5651495657274
    vertex 7433.59657405055 4162.71910390567 -64.4126589081967
    vertex 7433.70396969366 4162.71910390567 -64.5651495657274
  endloop
endfacet
facet normal -0.707108005398017 -3.1464172228496e-028 -0.707105556972959
  outer loop
    vertex 7433.23139193237 4162.71910390567 -63.98930986452
    vertex 7433.36000020634 4156.31910390567 -64.1243918272694
    vertex 7433.23139193237 4156.31910390567 -63.98930986452
  endloop
endfacet
facet normal -0.7409522880224 -2.98823931532019e-028 -0.671557672038947
  outer loop
    vertex 7433.36000020634 4156.31910390567 -64.1243918272694
    vertex 7433.23139193237 4162.71910390567 -63.98930986452
    vertex 7433.36000020634 4162.71910390567 -64.1243918272694
  endloop
endfacet
facet normal 0.989176255929394 -6.52916210329608e-029 -0.146732187012618
  outer loop
    vertex 7426.78551173933 4162.71910390567 -66.1187286703747
    vertex 7426.81739872982 4156.31910390567 -65.9349613048493
    vertex 7426.78551173933 4156.31910390567 -66.1187286703747
  endloop
endfacet
facet normal 0.980784942642489 -8.68103617723027e-029 -0.195092020046359
  outer loop
    vertex 7426.81739872982 4156.31910390567 -65.9349613048493
    vertex 7426.78551173933 4162.71910390567 -66.1187286703747
    vertex 7426.81739872982 4162.71910390567 -65.9349613048493
  endloop
endfacet
endsolid master_design
