solid AutoSave_master_design
facet normal -0.999426886653244 0.0 -0.0338511186610281
  outer loop
    vertex 3452.04318528653 3941.73233061035 6.03303956985674
    vertex 3452.05444055081 3934.19582681854 5.70073699951372
    vertex 3452.04318528653 3934.19582681854 6.03303956985674
  endloop
endfacet
facet normal -0.999426886653244 0.0 -0.0338511186610281
  outer loop
    vertex 3452.05444055081 3934.19582681854 5.70073699951372
    vertex 3452.04318528653 3941.73233061035 6.03303956985674
    vertex 3452.05444055081 3941.73233061035 5.70073699951372
  endloop
endfacet
facet normal 0.999426885009878 0.0 0.0338511671800564
  outer loop
    vertex 3453.49441628933 3941.73233061035 5.74951076507769
    vertex 3453.48316102505 3934.19582681854 6.08181285858354
    vertex 3453.49441628933 3934.19582681854 5.74951076507769
  endloop
endfacet
facet normal 0.999426885009878 0.0 0.0338511671800564
  outer loop
    vertex 3453.48316102505 3934.19582681854 6.08181285858354
    vertex 3453.49441628933 3941.73233061035 5.74951076507769
    vertex 3453.48316102505 3941.73233061035 6.08181285858354
  endloop
endfacet
facet normal 0.0 -1.0 0.0
  outer loop
    vertex 3453.49441628933 3934.19582681854 5.74951076507769
    vertex 3452.04318528653 3934.19582681854 6.03303956985674
    vertex 3452.05444055081 3934.19582681854 5.70073699951372
  endloop
endfacet
facet normal 0.0 -1.0 0.0
  outer loop
    vertex 3452.04318528653 3934.19582681854 6.03303956985674
    vertex 3453.49441628933 3934.19582681854 5.74951076507769
    vertex 3453.48316102505 3934.19582681854 6.08181285858354
  endloop
endfacet
facet normal -0.0338514977535207 0.0 0.999426873813109
  outer loop
    vertex 3453.48316102505 3934.19582681854 6.08181285858354
    vertex 3452.04318528653 3941.73233061035 6.03303956985674
    vertex 3452.04318528653 3934.19582681854 6.03303956985674
  endloop
endfacet
facet normal -0.0338514977535207 0.0 0.999426873813109
  outer loop
    vertex 3452.04318528653 3941.73233061035 6.03303956985674
    vertex 3453.48316102505 3934.19582681854 6.08181285858354
    vertex 3453.48316102505 3941.73233061035 6.08181285858354
  endloop
endfacet
facet normal -0.0338515790304605 7.06564600345421e-010 0.999426871060181
  outer loop
    vertex 3450.96741014004 3931.42505293091 5.66391849518022
    vertex 3452.05444055081 3934.19582681854 5.70073699951372
    vertex 3450.96741014004 3941.73233061035 5.66391849518022
  endloop
endfacet
facet normal -0.0338515790304605 7.06564600345421e-010 0.999426871060181
  outer loop
    vertex 3452.05444055081 3934.19582681854 5.70073699951372
    vertex 3450.96741014004 3931.42505293091 5.66391849518022
    vertex 3454.62273507595 3931.42505293091 5.78772783279619
  endloop
endfacet
facet normal -0.0338515790304605 7.06564600345421e-010 0.999426871060181
  outer loop
    vertex 3452.05444055081 3934.19582681854 5.70073699951372
    vertex 3454.62273507595 3931.42505293091 5.78772783279619
    vertex 3453.49441628933 3934.19582681854 5.74951076507769
  endloop
endfacet
facet normal -0.0338515790304605 7.06564600345421e-010 0.999426871060181
  outer loop
    vertex 3453.49441628933 3934.19582681854 5.74951076507769
    vertex 3454.62273507595 3931.42505293091 5.78772783279619
    vertex 3453.49441628933 3941.73233061035 5.74951076507769
  endloop
endfacet
facet normal -0.0338515790304605 7.06564600345421e-010 0.999426871060181
  outer loop
    vertex 3453.49441628933 3941.73233061035 5.74951076507769
    vertex 3454.62273507595 3931.42505293091 5.78772783279619
    vertex 3454.62273507595 3941.73233061035 5.78772783279619
  endloop
endfacet
facet normal -0.0338515790304605 7.06564600345421e-010 0.999426871060181
  outer loop
    vertex 3452.05444055081 3941.73233061035 5.70073699951372
    vertex 3450.96741014004 3941.73233061035 5.66391849518022
    vertex 3452.05444055081 3934.19582681854 5.70073699951372
  endloop
endfacet
facet normal 0.0 -1.0 0.0
  outer loop
    vertex 3454.67901139737 3931.42505293091 4.12621641159258
    vertex 3450.96741014004 3931.42505293091 5.66391849518022
    vertex 3451.02368646145 3931.42505293091 4.00240707397661
  endloop
endfacet
facet normal 0.0 -1.0 0.0
  outer loop
    vertex 3450.96741014004 3931.42505293091 5.66391849518022
    vertex 3454.67901139737 3931.42505293091 4.12621641159258
    vertex 3454.62273507595 3931.42505293091 5.78772783279619
  endloop
endfacet
facet normal -0.999426885629099 -1.32633686812837e-010 -0.033851148898081
  outer loop
    vertex 3450.96741014004 3941.73233061035 5.66391849518022
    vertex 3451.02368646145 3931.42505293091 4.00240707397661
    vertex 3450.96741014004 3931.42505293091 5.66391849518022
  endloop
endfacet
facet normal -0.999426885629099 -1.32633686812837e-010 -0.033851148898081
  outer loop
    vertex 3451.02368646145 3931.42505293091 4.00240707397661
    vertex 3450.96741014004 3941.73233061035 5.66391849518022
    vertex 3450.98616891385 3938.85072736939 5.1100811958333
  endloop
endfacet
facet normal -0.999426885629099 -1.32633686812837e-010 -0.033851148898081
  outer loop
    vertex 3450.98616891385 3938.85072736939 5.1100811958333
    vertex 3450.96741014004 3941.73233061035 5.66391849518022
    vertex 3450.98616891385 3939.6628592511 5.1100811958333
  endloop
endfacet
facet normal -0.999426885629099 -1.32633686812837e-010 -0.033851148898081
  outer loop
    vertex 3450.98616891385 3939.6628592511 5.1100811958333
    vertex 3450.96741014004 3941.73233061035 5.66391849518022
    vertex 3451.02368646145 3939.6628592511 4.00240707397661
  endloop
endfacet
facet normal -0.999426885629099 -1.32633686812837e-010 -0.033851148898081
  outer loop
    vertex 3451.02368646145 3939.6628592511 4.00240707397661
    vertex 3450.96741014004 3941.73233061035 5.66391849518022
    vertex 3451.02368646145 3941.73233061035 4.00240707397661
  endloop
endfacet
facet normal -0.999426885629099 -1.32633686812837e-010 -0.033851148898081
  outer loop
    vertex 3451.02368646145 3938.85072736939 4.00240707397661
    vertex 3451.02368646145 3931.42505293091 4.00240707397661
    vertex 3450.98616891385 3938.85072736939 5.1100811958333
  endloop
endfacet
facet normal 0.0 -1.0 0.0
  outer loop
    vertex 3451.02368646145 3938.85072736939 4.00240707397661
    vertex 3432.36490111828 3938.85072736939 4.47936201095781
    vertex 3432.40241914273 3938.85072736939 3.37168788910112
  endloop
endfacet
facet normal 0.0 -1.0 0.0
  outer loop
    vertex 3432.36490111828 3938.85072736939 4.47936201095781
    vertex 3451.02368646145 3938.85072736939 4.00240707397661
    vertex 3450.98616891385 3938.85072736939 5.1100811958333
  endloop
endfacet
facet normal -0.0338514922953244 -2.0407161253591e-031 0.999426873997983
  outer loop
    vertex 3450.98616891385 3938.85072736939 5.1100811958333
    vertex 3432.36490111828 3939.6628592511 4.47936201095781
    vertex 3432.36490111828 3938.85072736939 4.47936201095781
  endloop
endfacet
facet normal -0.0338514922953244 -2.0407161253591e-031 0.999426873997983
  outer loop
    vertex 3432.36490111828 3939.6628592511 4.47936201095781
    vertex 3450.98616891385 3938.85072736939 5.1100811958333
    vertex 3450.98616891385 3939.6628592511 5.1100811958333
  endloop
endfacet
facet normal 0.0 -1.0 0.0
  outer loop
    vertex 3470.62219911099 3938.85072736939 4.66622638702593
    vertex 3454.64149384976 3938.85072736939 5.23389053344927
    vertex 3454.67901139737 3938.85072736939 4.12621641159258
  endloop
endfacet
facet normal 0.0 -1.0 0.0
  outer loop
    vertex 3454.64149384976 3938.85072736939 5.23389053344927
    vertex 3470.62219911099 3938.85072736939 4.66622638702593
    vertex 3470.58468156338 3938.85072736939 5.77390098571978
  endloop
endfacet
facet normal 0.0 1.0 0.0
  outer loop
    vertex 3454.64149384976 3939.6628592511 5.23389053344927
    vertex 3470.62219911099 3939.6628592511 4.66622638702593
    vertex 3454.67901139737 3939.6628592511 4.12621641159258
  endloop
endfacet
facet normal 0.0 1.0 0.0
  outer loop
    vertex 3470.62219911099 3939.6628592511 4.66622638702593
    vertex 3454.64149384976 3939.6628592511 5.23389053344927
    vertex 3470.58468156338 3939.6628592511 5.77390098571978
  endloop
endfacet
facet normal 0.0 1.0 0.0
  outer loop
    vertex 3452.04318528653 3941.73233061035 6.03303956985674
    vertex 3453.49441628933 3941.73233061035 5.74951076507769
    vertex 3452.05444055081 3941.73233061035 5.70073699951372
  endloop
endfacet
facet normal 0.0 1.0 0.0
  outer loop
    vertex 3453.49441628933 3941.73233061035 5.74951076507769
    vertex 3452.04318528653 3941.73233061035 6.03303956985674
    vertex 3453.48316102505 3941.73233061035 6.08181285858354
  endloop
endfacet
facet normal 0.0 1.0 0.0
  outer loop
    vertex 3450.96741014004 3941.73233061035 5.66391849518022
    vertex 3454.67901139737 3941.73233061035 4.12621641159258
    vertex 3451.02368646145 3941.73233061035 4.00240707397661
  endloop
endfacet
facet normal 0.0 1.0 0.0
  outer loop
    vertex 3454.67901139737 3941.73233061035 4.12621641159258
    vertex 3450.96741014004 3941.73233061035 5.66391849518022
    vertex 3452.05444055081 3941.73233061035 5.70073699951372
  endloop
endfacet
facet normal 0.0 1.0 0.0
  outer loop
    vertex 3454.67901139737 3941.73233061035 4.12621641159258
    vertex 3452.05444055081 3941.73233061035 5.70073699951372
    vertex 3454.62273507595 3941.73233061035 5.78772783279619
  endloop
endfacet
facet normal 0.0 1.0 0.0
  outer loop
    vertex 3454.62273507595 3941.73233061035 5.78772783279619
    vertex 3452.05444055081 3941.73233061035 5.70073699951372
    vertex 3453.49441628933 3941.73233061035 5.74951076507769
  endloop
endfacet
facet normal 0.0 1.0 0.0
  outer loop
    vertex 3432.36490111828 3939.6628592511 4.47936201095781
    vertex 3451.02368646145 3939.6628592511 4.00240707397661
    vertex 3432.40241914273 3939.6628592511 3.37168788910112
  endloop
endfacet
facet normal 0.0 1.0 0.0
  outer loop
    vertex 3451.02368646145 3939.6628592511 4.00240707397661
    vertex 3432.36490111828 3939.6628592511 4.47936201095781
    vertex 3450.98616891385 3939.6628592511 5.1100811958333
  endloop
endfacet
facet normal 0.0 -1.0 0.0
  outer loop
    vertex 3479.59282975674 3940.26530485352 18.8659248352071
    vertex 3470.62219911099 3940.26530485352 4.66622638702593
    vertex 3473.83279328824 3940.26530485352 2.02923025367926e-012
  endloop
endfacet
facet normal 0.0 -1.0 0.0
  outer loop
    vertex 3470.62219911099 3940.26530485352 4.66622638702593
    vertex 3479.59282975674 3940.26530485352 18.8659248352071
    vertex 3474.98073487759 3940.26530485352 18.9417991638204
  endloop
endfacet
facet normal 0.0 -1.0 0.0
  outer loop
    vertex 3474.98073487759 3940.26530485352 18.9417991638204
    vertex 3479.59282975674 3940.26530485352 18.8659248352071
    vertex 3474.2928076315 3940.26530485352 20.4840984344502
  endloop
endfacet
facet normal 0.0 -1.0 0.0
  outer loop
    vertex 3474.98073487759 3940.26530485352 18.9417991638204
    vertex 3474.2928076315 3940.26530485352 20.4840984344502
    vertex 3473.9207296896 3940.26530485352 19.2654342651387
  endloop
endfacet
facet normal 0.823830574978774 -1.94002456664218e-016 0.56683611717157
  outer loop
    vertex 3473.83279328824 3940.26530485352 2.02923025367926e-012
    vertex 3470.62219911099 3920.11701231201 4.66622638702593
    vertex 3473.83279328824 3920.11701231201 2.01231045715566e-012
  endloop
endfacet
facet normal 0.823830574978774 -1.94002456664218e-016 0.56683611717157
  outer loop
    vertex 3470.62219911099 3920.11701231201 4.66622638702593
    vertex 3473.83279328824 3940.26530485352 2.02923025367926e-012
    vertex 3470.62219911099 3938.85072736939 4.66622638702593
  endloop
endfacet
facet normal 0.823830574978774 -1.94002456664218e-016 0.56683611717157
  outer loop
    vertex 3470.62219911099 3938.85072736939 4.66622638702593
    vertex 3473.83279328824 3940.26530485352 2.02923025367926e-012
    vertex 3470.62219911099 3939.6628592511 4.66622638702593
  endloop
endfacet
facet normal 0.823830574978774 -1.94002456664218e-016 0.56683611717157
  outer loop
    vertex 3470.62219911099 3939.6628592511 4.66622638702593
    vertex 3473.83279328824 3940.26530485352 2.02923025367926e-012
    vertex 3470.62219911099 3940.26530485352 4.66622638702593
  endloop
endfacet
facet normal -0.238390567937243 2.83437312767964e-031 0.971169365825837
  outer loop
    vertex 3462.31590562344 3944.15575437744 8.34741973877153
    vertex 3461.42544847012 3947.8131754895 8.12884140014848
    vertex 3461.42544847012 3944.15575437744 8.12884140014848
  endloop
endfacet
facet normal -0.238390567937243 2.83437312767964e-031 0.971169365825837
  outer loop
    vertex 3461.42544847012 3947.8131754895 8.12884140014848
    vertex 3462.31590562344 3944.15575437744 8.34741973877153
    vertex 3462.31590562344 3947.8131754895 8.34741973877153
  endloop
endfacet
facet normal -0.279517962770419 -2.51034001137311e-018 0.960140462895234
  outer loop
    vertex 3463.19625001431 3944.15575437744 8.6037073135396
    vertex 3462.31590562344 3947.8131754895 8.34741973877153
    vertex 3462.31590562344 3944.15575437744 8.34741973877153
  endloop
endfacet
facet normal -0.279517962770419 -2.51034001137311e-018 0.960140462895234
  outer loop
    vertex 3462.31590562344 3947.8131754895 8.34741973877153
    vertex 3463.19625001431 3944.15575437744 8.6037073135396
    vertex 3463.19625001431 3947.8131754895 8.6037073135396
  endloop
endfacet
facet normal -0.360179267839356 3.7668339675957e-018 0.932883108979204
  outer loop
    vertex 3464.92024140835 3944.15575437744 9.2274866104146
    vertex 3464.06488709927 3947.8131754895 8.89724063873491
    vertex 3464.06488709927 3944.15575437744 8.89724063873491
  endloop
endfacet
facet normal -0.360179267839356 3.7668339675957e-018 0.932883108979204
  outer loop
    vertex 3464.06488709927 3947.8131754895 8.89724063873491
    vertex 3464.92024140835 3944.15575437744 9.2274866104146
    vertex 3464.92024140835 3947.8131754895 9.2274866104146
  endloop
endfacet
facet normal -0.320139237175662 2.81596868240005e-031 0.947370502401561
  outer loop
    vertex 3464.06488709927 3944.15575437744 8.89724063873491
    vertex 3463.19625001431 3947.8131754895 8.6037073135396
    vertex 3463.19625001431 3944.15575437744 8.6037073135396
  endloop
endfacet
facet normal -0.320139237175662 2.81596868240005e-031 0.947370502401561
  outer loop
    vertex 3463.19625001431 3947.8131754895 8.6037073135396
    vertex 3464.06488709927 3944.15575437744 8.89724063873491
    vertex 3464.06488709927 3947.8131754895 8.89724063873491
  endloop
endfacet
facet normal -0.438231156514432 -4.5831177788766e-018 0.898862310623837
  outer loop
    vertex 3466.58491807461 3944.15575437744 9.99565601349077
    vertex 3465.76076035977 3947.8131754895 9.59384632110796
    vertex 3465.76076035977 3944.15575437744 9.59384632110796
  endloop
endfacet
facet normal -0.438231156514432 -4.5831177788766e-018 0.898862310623837
  outer loop
    vertex 3465.76076035977 3947.8131754895 9.59384632110796
    vertex 3466.58491807461 3944.15575437744 9.99565601349077
    vertex 3466.58491807461 3947.8131754895 9.99565601349077
  endloop
endfacet
facet normal -0.39956677419833 0.0 0.91670409236391
  outer loop
    vertex 3465.76076035977 3944.15575437744 9.59384632110796
    vertex 3464.92024140835 3947.8131754895 9.2274866104146
    vertex 3464.92024140835 3944.15575437744 9.2274866104146
  endloop
endfacet
facet normal -0.39956677419833 0.0 0.91670409236391
  outer loop
    vertex 3464.92024140835 3947.8131754895 9.2274866104146
    vertex 3465.76076035977 3944.15575437744 9.59384632110796
    vertex 3465.76076035977 3947.8131754895 9.59384632110796
  endloop
endfacet
facet normal -0.476098045000212 -3.04671490152307e-031 0.879392205757463
  outer loop
    vertex 3467.39122682095 3944.15575437744 10.4321870803853
    vertex 3466.58491807461 3947.8131754895 9.99565601349077
    vertex 3466.58491807461 3944.15575437744 9.99565601349077
  endloop
endfacet
facet normal -0.476098045000212 -3.04671490152307e-031 0.879392205757463
  outer loop
    vertex 3466.58491807461 3947.8131754895 9.99565601349077
    vertex 3467.39122682095 3944.15575437744 10.4321870803853
    vertex 3467.39122682095 3947.8131754895 10.4321870803853
  endloop
endfacet
facet normal -0.16714573771962 0.0 0.985932199678134
  outer loop
    vertex 3452.97739129544 3977.51586942871 6.44678783416948
    vertex 3450.854041152 3981.17329054077 6.0868148803731
    vertex 3450.854041152 3977.51586942871 6.0868148803731
  endloop
endfacet
facet normal -0.16714573771962 0.0 0.985932199678134
  outer loop
    vertex 3450.854041152 3981.17329054077 6.0868148803731
    vertex 3452.97739129544 3977.51586942871 6.44678783416948
    vertex 3452.97739129544 3981.17329054077 6.44678783416948
  endloop
endfacet
facet normal -0.549179422521762 0.0 0.835704470419217
  outer loop
    vertex 3468.94447236538 3977.51586942871 11.4061861038228
    vertex 3468.17822175503 3981.17329054077 10.9026479721089
    vertex 3468.17822175503 3977.51586942871 10.9026479721089
  endloop
endfacet
facet normal -0.549179422521762 0.0 0.835704470419217
  outer loop
    vertex 3468.17822175503 3981.17329054077 10.9026479721089
    vertex 3468.94447236538 3977.51586942871 11.4061861038228
    vertex 3468.94447236538 3981.17329054077 11.4061861038228
  endloop
endfacet
facet normal -0.0877381341106479 0.0 0.99614357390026
  outer loop
    vertex 3438.04014211178 3977.51586942871 4.43901777267656
    vertex 3432.26197486401 3981.17329054077 3.93008947372637
    vertex 3432.26197486401 3977.51586942871 3.93008947372637
  endloop
endfacet
facet normal -0.0877381341106479 0.0 0.99614357390026
  outer loop
    vertex 3432.26197486401 3981.17329054077 3.93008947372637
    vertex 3438.04014211178 3977.51586942871 4.43901777267656
    vertex 3438.04014211178 3981.17329054077 4.43901777267656
  endloop
endfacet
facet normal -0.178414138589993 0.0 0.983955484334119
  outer loop
    vertex 3455.09648423672 3977.51586942871 6.83102893829546
    vertex 3452.97739129544 3981.17329054077 6.44678783416948
    vertex 3452.97739129544 3977.51586942871 6.44678783416948
  endloop
endfacet
facet normal -0.178414138589993 0.0 0.983955484334119
  outer loop
    vertex 3452.97739129544 3981.17329054077 6.44678783416948
    vertex 3455.09648423672 3977.51586942871 6.83102893829546
    vertex 3455.09648423672 3981.17329054077 6.83102893829546
  endloop
endfacet
facet normal -0.243914765935678 0.0 0.969796672998286
  outer loop
    vertex 3473.37309175015 3977.51586942871 13.6762685775777
    vertex 3471.10508637906 3981.17329054077 13.1058397293111
    vertex 3471.10508637906 3977.51586942871 13.1058397293111
  endloop
endfacet
facet normal -0.243914765935678 0.0 0.969796672998286
  outer loop
    vertex 3471.10508637906 3981.17329054077 13.1058397293111
    vertex 3473.37309175015 3977.51586942871 13.6762685775777
    vertex 3473.37309175015 3981.17329054077 13.6762685775777
  endloop
endfacet
facet normal -0.0338514916103781 8.09075703099065e-009 0.999426874021183
  outer loop
    vertex 3470.62219911099 3939.6628592511 4.66622638702593
    vertex 3454.67901139737 3941.73233061035 4.12621641159258
    vertex 3454.67901139737 3939.6628592511 4.12621641159258
  endloop
endfacet
facet normal -0.0338514916103781 8.09075703099065e-009 0.999426874021183
  outer loop
    vertex 3451.02368646145 3939.6628592511 4.00240707397661
    vertex 3432.40241914273 3944.15575437744 3.37168788910112
    vertex 3432.40241914273 3939.6628592511 3.37168788910112
  endloop
endfacet
facet normal -0.0338514916103781 8.09075703099065e-009 0.999426874021183
  outer loop
    vertex 3432.40241914273 3944.15575437744 3.37168788910112
    vertex 3451.02368646145 3939.6628592511 4.00240707397661
    vertex 3451.02368646145 3941.73233061035 4.00240707397661
  endloop
endfacet
facet normal -0.0338514916103781 8.09075703099065e-009 0.999426874021183
  outer loop
    vertex 3432.40241914273 3944.15575437744 3.37168788910112
    vertex 3451.02368646145 3941.73233061035 4.00240707397661
    vertex 3470.62219911099 3944.15575437744 4.66622638702593
  endloop
endfacet
facet normal -0.0338514916103781 8.09075703099065e-009 0.999426874021183
  outer loop
    vertex 3470.62219911099 3944.15575437744 4.66622638702593
    vertex 3451.02368646145 3941.73233061035 4.00240707397661
    vertex 3454.67901139737 3941.73233061035 4.12621641159258
  endloop
endfacet
facet normal -0.0338514916103781 8.09075703099065e-009 0.999426874021183
  outer loop
    vertex 3470.62219911099 3944.15575437744 4.66622638702593
    vertex 3454.67901139737 3941.73233061035 4.12621641159258
    vertex 3470.62219911099 3939.6628592511 4.66622638702593
  endloop
endfacet
facet normal -0.0338514916103781 8.09075703099065e-009 0.999426874021183
  outer loop
    vertex 3470.62219911099 3944.15575437744 4.66622638702593
    vertex 3470.62219911099 3939.6628592511 4.66622638702593
    vertex 3470.62219911099 3940.26530485352 4.66622638702593
  endloop
endfacet
facet normal -0.0338514916975354 -9.49486727930224e-031 0.99942687401823
  outer loop
    vertex 3470.62219911099 3981.17329054077 4.66622638702593
    vertex 3432.40241914273 3984.06646757324 3.37168788910112
    vertex 3432.40241914273 3981.17329054077 3.37168788910112
  endloop
endfacet
facet normal -0.0338514916975354 -9.49486727930224e-031 0.99942687401823
  outer loop
    vertex 3432.40241914273 3984.06646757324 3.37168788910112
    vertex 3470.62219911099 3981.17329054077 4.66622638702593
    vertex 3470.62219911099 3984.06646757324 4.66622638702593
  endloop
endfacet
facet normal 2.38871809282129e-031 -1.0 -1.21831015090996e-030
  outer loop
    vertex 3432.40241914273 3944.15575437744 3.37168788910112
    vertex 3432.26197486401 3944.15575437744 3.93008947372637
    vertex 3431.37299447537 3944.15575437744 2.00182370677751e-012
  endloop
endfacet
facet normal 2.38871809282129e-031 -1.0 -1.21831015090996e-030
  outer loop
    vertex 3432.26197486401 3944.15575437744 3.93008947372637
    vertex 3432.40241914273 3944.15575437744 3.37168788910112
    vertex 3470.62219911099 3944.15575437744 4.66622638702593
  endloop
endfacet
facet normal 2.38871809282129e-031 -1.0 -1.21831015090996e-030
  outer loop
    vertex 3432.26197486401 3944.15575437744 3.93008947372637
    vertex 3470.62219911099 3944.15575437744 4.66622638702593
    vertex 3438.04014211178 3944.15575437744 4.43901777267656
  endloop
endfacet
facet normal 2.38871809282129e-031 -1.0 -1.21831015090996e-030
  outer loop
    vertex 3438.04014211178 3944.15575437744 4.43901777267656
    vertex 3470.62219911099 3944.15575437744 4.66622638702593
    vertex 3440.18318181515 3944.15575437744 4.65250539779863
  endloop
endfacet
facet normal 2.38871809282129e-031 -1.0 -1.21831015090996e-030
  outer loop
    vertex 3440.18318181515 3944.15575437744 4.65250539779863
    vertex 3470.62219911099 3944.15575437744 4.66622638702593
    vertex 3442.3236380148 3944.15575437744 4.89049577713213
  endloop
endfacet
facet normal 2.38871809282129e-031 -1.0 -1.21831015090996e-030
  outer loop
    vertex 3442.3236380148 3944.15575437744 4.89049577713213
    vertex 3470.62219911099 3944.15575437744 4.66622638702593
    vertex 3444.46123223782 3944.15575437744 5.15295791626177
  endloop
endfacet
facet normal 2.38871809282129e-031 -1.0 -1.21831015090996e-030
  outer loop
    vertex 3444.46123223782 3944.15575437744 5.15295791626177
    vertex 3470.62219911099 3944.15575437744 4.66622638702593
    vertex 3446.5956831503 3944.15575437744 5.43985748291216
  endloop
endfacet
facet normal 2.38871809282129e-031 -1.0 -1.21831015090996e-030
  outer loop
    vertex 3446.5956831503 3944.15575437744 5.43985748291216
    vertex 3470.62219911099 3944.15575437744 4.66622638702593
    vertex 3448.72671227932 3944.15575437744 5.7511568069478
  endloop
endfacet
facet normal 2.38871809282129e-031 -1.0 -1.21831015090996e-030
  outer loop
    vertex 3448.72671227932 3944.15575437744 5.7511568069478
    vertex 3470.62219911099 3944.15575437744 4.66622638702593
    vertex 3450.854041152 3944.15575437744 6.0868148803731
  endloop
endfacet
facet normal 2.38871809282129e-031 -1.0 -1.21831015090996e-030
  outer loop
    vertex 3450.854041152 3944.15575437744 6.0868148803731
    vertex 3470.62219911099 3944.15575437744 4.66622638702593
    vertex 3452.97739129544 3944.15575437744 6.44678783416948
  endloop
endfacet
facet normal 2.38871809282129e-031 -1.0 -1.21831015090996e-030
  outer loop
    vertex 3452.97739129544 3944.15575437744 6.44678783416948
    vertex 3470.62219911099 3944.15575437744 4.66622638702593
    vertex 3455.09648423672 3944.15575437744 6.83102893829546
  endloop
endfacet
facet normal 2.38871809282129e-031 -1.0 -1.21831015090996e-030
  outer loop
    vertex 3455.09648423672 3944.15575437744 6.83102893829546
    vertex 3470.62219911099 3944.15575437744 4.66622638702593
    vertex 3457.21104150296 3944.15575437744 7.23948764801226
  endloop
endfacet
facet normal 2.38871809282129e-031 -1.0 -1.21831015090996e-030
  outer loop
    vertex 3457.21104150296 3944.15575437744 7.23948764801226
    vertex 3470.62219911099 3944.15575437744 4.66622638702593
    vertex 3459.32078843594 3944.15575437744 7.67211055755815
  endloop
endfacet
facet normal 2.38871809282129e-031 -1.0 -1.21831015090996e-030
  outer loop
    vertex 3459.32078843594 3944.15575437744 7.67211055755815
    vertex 3470.62219911099 3944.15575437744 4.66622638702593
    vertex 3461.42544847012 3944.15575437744 8.12884140014848
  endloop
endfacet
facet normal 2.38871809282129e-031 -1.0 -1.21831015090996e-030
  outer loop
    vertex 3461.42544847012 3944.15575437744 8.12884140014848
    vertex 3470.62219911099 3944.15575437744 4.66622638702593
    vertex 3462.31590562344 3944.15575437744 8.34741973877153
  endloop
endfacet
facet normal 2.38871809282129e-031 -1.0 -1.21831015090996e-030
  outer loop
    vertex 3462.31590562344 3944.15575437744 8.34741973877153
    vertex 3470.62219911099 3944.15575437744 4.66622638702593
    vertex 3463.19625001431 3944.15575437744 8.6037073135396
  endloop
endfacet
facet normal 2.38871809282129e-031 -1.0 -1.21831015090996e-030
  outer loop
    vertex 3463.19625001431 3944.15575437744 8.6037073135396
    vertex 3470.62219911099 3944.15575437744 4.66622638702593
    vertex 3464.06488709927 3944.15575437744 8.89724063873491
  endloop
endfacet
facet normal 2.38871809282129e-031 -1.0 -1.21831015090996e-030
  outer loop
    vertex 3464.06488709927 3944.15575437744 8.89724063873491
    vertex 3470.62219911099 3944.15575437744 4.66622638702593
    vertex 3464.92024140835 3944.15575437744 9.2274866104146
  endloop
endfacet
facet normal 2.38871809282129e-031 -1.0 -1.21831015090996e-030
  outer loop
    vertex 3464.92024140835 3944.15575437744 9.2274866104146
    vertex 3470.62219911099 3944.15575437744 4.66622638702593
    vertex 3465.76076035977 3944.15575437744 9.59384632110796
  endloop
endfacet
facet normal 2.38871809282129e-031 -1.0 -1.21831015090996e-030
  outer loop
    vertex 3465.76076035977 3944.15575437744 9.59384632110796
    vertex 3470.62219911099 3944.15575437744 4.66622638702593
    vertex 3466.58491807461 3944.15575437744 9.99565601349077
  endloop
endfacet
facet normal 2.38871809282129e-031 -1.0 -1.21831015090996e-030
  outer loop
    vertex 3466.58491807461 3944.15575437744 9.99565601349077
    vertex 3470.62219911099 3944.15575437744 4.66622638702593
    vertex 3467.39122682095 3944.15575437744 10.4321870803853
  endloop
endfacet
facet normal 2.38871809282129e-031 -1.0 -1.21831015090996e-030
  outer loop
    vertex 3467.39122682095 3944.15575437744 10.4321870803853
    vertex 3470.62219911099 3944.15575437744 4.66622638702593
    vertex 3473.37309175015 3944.15575437744 13.6762685775777
  endloop
endfacet
facet normal 2.38871809282129e-031 -1.0 -1.21831015090996e-030
  outer loop
    vertex 3467.39122682095 3944.15575437744 10.4321870803853
    vertex 3473.37309175015 3944.15575437744 13.6762685775777
    vertex 3468.17822175503 3944.15575437744 10.9026479721089
  endloop
endfacet
facet normal 2.38871809282129e-031 -1.0 -1.21831015090996e-030
  outer loop
    vertex 3468.17822175503 3944.15575437744 10.9026479721089
    vertex 3473.37309175015 3944.15575437744 13.6762685775777
    vertex 3468.94447236538 3944.15575437744 11.4061861038228
  endloop
endfacet
facet normal 2.38871809282129e-031 -1.0 -1.21831015090996e-030
  outer loop
    vertex 3468.94447236538 3944.15575437744 11.4061861038228
    vertex 3473.37309175015 3944.15575437744 13.6762685775777
    vertex 3469.6885939169 3944.15575437744 11.9418869018575
  endloop
endfacet
facet normal 2.38871809282129e-031 -1.0 -1.21831015090996e-030
  outer loop
    vertex 3469.6885939169 3944.15575437744 11.9418869018575
    vertex 3473.37309175015 3944.15575437744 13.6762685775777
    vertex 3470.40923219204 3944.15575437744 12.5087814331075
  endloop
endfacet
facet normal 2.38871809282129e-031 -1.0 -1.21831015090996e-030
  outer loop
    vertex 3470.40923219204 3944.15575437744 12.5087814331075
    vertex 3473.37309175015 3944.15575437744 13.6762685775777
    vertex 3471.10508637906 3944.15575437744 13.1058397293111
  endloop
endfacet
facet normal -0.5842568016962 0.0 0.811568844690164
  outer loop
    vertex 3469.6885939169 3977.51586942871 11.9418869018575
    vertex 3468.94447236538 3981.17329054077 11.4061861038228
    vertex 3468.94447236538 3977.51586942871 11.4061861038228
  endloop
endfacet
facet normal -0.5842568016962 0.0 0.811568844690164
  outer loop
    vertex 3468.94447236538 3981.17329054077 11.4061861038228
    vertex 3469.6885939169 3977.51586942871 11.9418869018575
    vertex 3469.6885939169 3981.17329054077 11.9418869018575
  endloop
endfacet
facet normal -0.956416020335266 1.13193906260312e-018 0.292007527379095
  outer loop
    vertex 3432.40241914273 3938.85072736939 3.37168788910112
    vertex 3431.37299447537 3920.11701231201 2.00182370677751e-012
    vertex 3432.40241914273 3920.11701231201 3.37168788910112
  endloop
endfacet
facet normal -0.956416020335266 1.13193906260312e-018 0.292007527379095
  outer loop
    vertex 3431.37299447537 3920.11701231201 2.00182370677751e-012
    vertex 3432.40241914273 3938.85072736939 3.37168788910112
    vertex 3431.37299447537 3944.15575437744 2.00182370677751e-012
  endloop
endfacet
facet normal -0.956416020335266 1.13193906260312e-018 0.292007527379095
  outer loop
    vertex 3431.37299447537 3944.15575437744 2.00182370677751e-012
    vertex 3432.40241914273 3938.85072736939 3.37168788910112
    vertex 3432.40241914273 3939.6628592511 3.37168788910112
  endloop
endfacet
facet normal -0.956416020335266 1.13193906260312e-018 0.292007527379095
  outer loop
    vertex 3431.37299447537 3944.15575437744 2.00182370677751e-012
    vertex 3432.40241914273 3939.6628592511 3.37168788910112
    vertex 3432.40241914273 3944.15575437744 3.37168788910112
  endloop
endfacet
facet normal -0.975358775224873 0.0 0.220624703040788
  outer loop
    vertex 3432.26197486401 3981.17329054077 3.93008947372637
    vertex 3431.37299447537 3977.51586942871 2.00182370677751e-012
    vertex 3432.26197486401 3977.51586942871 3.93008947372637
  endloop
endfacet
facet normal -0.975358775224873 0.0 0.220624703040788
  outer loop
    vertex 3431.37299447537 3977.51586942871 2.00182370677751e-012
    vertex 3432.26197486401 3981.17329054077 3.93008947372637
    vertex 3431.37299447537 3981.17329054077 2.00182370677751e-012
  endloop
endfacet
facet normal -0.212073179904184 0.0 0.977253788104875
  outer loop
    vertex 3461.42544847012 3944.15575437744 8.12884140014848
    vertex 3459.32078843594 3947.8131754895 7.67211055755815
    vertex 3459.32078843594 3944.15575437744 7.67211055755815
  endloop
endfacet
facet normal -0.212073179904184 0.0 0.977253788104875
  outer loop
    vertex 3459.32078843594 3947.8131754895 7.67211055755815
    vertex 3461.42544847012 3944.15575437744 8.12884140014848
    vertex 3461.42544847012 3947.8131754895 8.12884140014848
  endloop
endfacet
facet normal -0.200879225832166 2.38837754586696e-031 0.979616014890054
  outer loop
    vertex 3459.32078843594 3944.15575437744 7.67211055755815
    vertex 3457.21104150296 3947.8131754895 7.23948764801226
    vertex 3457.21104150296 3944.15575437744 7.23948764801226
  endloop
endfacet
facet normal -0.200879225832166 2.38837754586696e-031 0.979616014890054
  outer loop
    vertex 3457.21104150296 3947.8131754895 7.23948764801226
    vertex 3459.32078843594 3944.15575437744 7.67211055755815
    vertex 3459.32078843594 3947.8131754895 7.67211055755815
  endloop
endfacet
facet normal -0.189659171488302 0.0 0.981849987864934
  outer loop
    vertex 3457.21104150296 3944.15575437744 7.23948764801226
    vertex 3455.09648423672 3947.8131754895 6.83102893829546
    vertex 3455.09648423672 3944.15575437744 6.83102893829546
  endloop
endfacet
facet normal -0.189659171488302 0.0 0.981849987864934
  outer loop
    vertex 3455.09648423672 3947.8131754895 6.83102893829546
    vertex 3457.21104150296 3944.15575437744 7.23948764801226
    vertex 3457.21104150296 3947.8131754895 7.23948764801226
  endloop
endfacet
facet normal -0.178414138589993 0.0 0.983955484334119
  outer loop
    vertex 3455.09648423672 3944.15575437744 6.83102893829546
    vertex 3452.97739129544 3947.8131754895 6.44678783416948
    vertex 3452.97739129544 3944.15575437744 6.44678783416948
  endloop
endfacet
facet normal -0.178414138589993 0.0 0.983955484334119
  outer loop
    vertex 3452.97739129544 3947.8131754895 6.44678783416948
    vertex 3455.09648423672 3944.15575437744 6.83102893829546
    vertex 3455.09648423672 3947.8131754895 6.83102893829546
  endloop
endfacet
facet normal -0.16714573771962 -1.4652948293331e-031 0.985932199678134
  outer loop
    vertex 3452.97739129544 3944.15575437744 6.44678783416948
    vertex 3450.854041152 3947.8131754895 6.0868148803731
    vertex 3450.854041152 3944.15575437744 6.0868148803731
  endloop
endfacet
facet normal -0.16714573771962 -1.4652948293331e-031 0.985932199678134
  outer loop
    vertex 3450.854041152 3947.8131754895 6.0868148803731
    vertex 3452.97739129544 3944.15575437744 6.44678783416948
    vertex 3452.97739129544 3947.8131754895 6.44678783416948
  endloop
endfacet
facet normal -0.13321573591031 0.0 0.991087063635619
  outer loop
    vertex 3446.5956831503 3944.15575437744 5.43985748291216
    vertex 3444.46123223782 3947.8131754895 5.15295791626177
    vertex 3444.46123223782 3944.15575437744 5.15295791626177
  endloop
endfacet
facet normal -0.13321573591031 0.0 0.991087063635619
  outer loop
    vertex 3444.46123223782 3947.8131754895 5.15295791626177
    vertex 3446.5956831503 3944.15575437744 5.43985748291216
    vertex 3446.5956831503 3947.8131754895 5.43985748291216
  endloop
endfacet
facet normal -0.155855675013137 0.0 0.987779838104726
  outer loop
    vertex 3450.854041152 3944.15575437744 6.0868148803731
    vertex 3448.72671227932 3947.8131754895 5.7511568069478
    vertex 3448.72671227932 3944.15575437744 5.7511568069478
  endloop
endfacet
facet normal -0.155855675013137 0.0 0.987779838104726
  outer loop
    vertex 3448.72671227932 3947.8131754895 5.7511568069478
    vertex 3450.854041152 3944.15575437744 6.0868148803731
    vertex 3450.854041152 3947.8131754895 6.0868148803731
  endloop
endfacet
facet normal -0.144545240761247 0.0 0.989498192708442
  outer loop
    vertex 3448.72671227932 3944.15575437744 5.7511568069478
    vertex 3446.5956831503 3947.8131754895 5.43985748291216
    vertex 3446.5956831503 3944.15575437744 5.43985748291216
  endloop
endfacet
facet normal -0.144545240761247 0.0 0.989498192708442
  outer loop
    vertex 3446.5956831503 3947.8131754895 5.43985748291216
    vertex 3448.72671227932 3944.15575437744 5.7511568069478
    vertex 3448.72671227932 3947.8131754895 5.7511568069478
  endloop
endfacet
facet normal -0.121868689765017 5.1441257757058e-018 0.99254623189802
  outer loop
    vertex 3444.46123223782 3944.15575437744 5.15295791626177
    vertex 3442.3236380148 3947.8131754895 4.89049577713213
    vertex 3442.3236380148 3944.15575437744 4.89049577713213
  endloop
endfacet
facet normal -0.121868689765017 5.1441257757058e-018 0.99254623189802
  outer loop
    vertex 3442.3236380148 3947.8131754895 4.89049577713213
    vertex 3444.46123223782 3944.15575437744 5.15295791626177
    vertex 3444.46123223782 3947.8131754895 5.15295791626177
  endloop
endfacet
facet normal -0.110505789662543 2.31138768543774e-018 0.993875480355088
  outer loop
    vertex 3442.3236380148 3944.15575437744 4.89049577713213
    vertex 3440.18318181515 3947.8131754895 4.65250539779863
    vertex 3440.18318181515 3944.15575437744 4.65250539779863
  endloop
endfacet
facet normal -0.110505789662543 2.31138768543774e-018 0.993875480355088
  outer loop
    vertex 3440.18318181515 3947.8131754895 4.65250539779863
    vertex 3442.3236380148 3944.15575437744 4.89049577713213
    vertex 3442.3236380148 3947.8131754895 4.89049577713213
  endloop
endfacet
facet normal -0.0991284124979135 2.07341346208504e-018 0.995074649378449
  outer loop
    vertex 3440.18318181515 3944.15575437744 4.65250539779863
    vertex 3438.04014211178 3947.8131754895 4.43901777267656
    vertex 3438.04014211178 3944.15575437744 4.43901777267656
  endloop
endfacet
facet normal -0.0991284124979135 2.07341346208504e-018 0.995074649378449
  outer loop
    vertex 3438.04014211178 3947.8131754895 4.43901777267656
    vertex 3440.18318181515 3944.15575437744 4.65250539779863
    vertex 3440.18318181515 3947.8131754895 4.65250539779863
  endloop
endfacet
facet normal 0.0 1.0 0.0
  outer loop
    vertex 3432.26197486401 3947.8131754895 3.93008947372637
    vertex 3432.40241914273 3947.8131754895 3.37168788910112
    vertex 3431.37299447537 3947.8131754895 2.00182370677751e-012
  endloop
endfacet
facet normal 0.0 1.0 0.0
  outer loop
    vertex 3432.40241914273 3947.8131754895 3.37168788910112
    vertex 3432.26197486401 3947.8131754895 3.93008947372637
    vertex 3470.62219911099 3947.8131754895 4.66622638702593
  endloop
endfacet
facet normal 0.0 1.0 0.0
  outer loop
    vertex 3470.62219911099 3947.8131754895 4.66622638702593
    vertex 3432.26197486401 3947.8131754895 3.93008947372637
    vertex 3438.04014211178 3947.8131754895 4.43901777267656
  endloop
endfacet
facet normal 0.0 1.0 0.0
  outer loop
    vertex 3470.62219911099 3947.8131754895 4.66622638702593
    vertex 3438.04014211178 3947.8131754895 4.43901777267656
    vertex 3440.18318181515 3947.8131754895 4.65250539779863
  endloop
endfacet
facet normal 0.0 1.0 0.0
  outer loop
    vertex 3470.62219911099 3947.8131754895 4.66622638702593
    vertex 3440.18318181515 3947.8131754895 4.65250539779863
    vertex 3442.3236380148 3947.8131754895 4.89049577713213
  endloop
endfacet
facet normal 0.0 1.0 0.0
  outer loop
    vertex 3470.62219911099 3947.8131754895 4.66622638702593
    vertex 3442.3236380148 3947.8131754895 4.89049577713213
    vertex 3444.46123223782 3947.8131754895 5.15295791626177
  endloop
endfacet
facet normal 0.0 1.0 0.0
  outer loop
    vertex 3470.62219911099 3947.8131754895 4.66622638702593
    vertex 3444.46123223782 3947.8131754895 5.15295791626177
    vertex 3446.5956831503 3947.8131754895 5.43985748291216
  endloop
endfacet
facet normal 0.0 1.0 0.0
  outer loop
    vertex 3470.62219911099 3947.8131754895 4.66622638702593
    vertex 3446.5956831503 3947.8131754895 5.43985748291216
    vertex 3448.72671227932 3947.8131754895 5.7511568069478
  endloop
endfacet
facet normal 0.0 1.0 0.0
  outer loop
    vertex 3470.62219911099 3947.8131754895 4.66622638702593
    vertex 3448.72671227932 3947.8131754895 5.7511568069478
    vertex 3450.854041152 3947.8131754895 6.0868148803731
  endloop
endfacet
facet normal 0.0 1.0 0.0
  outer loop
    vertex 3470.62219911099 3947.8131754895 4.66622638702593
    vertex 3450.854041152 3947.8131754895 6.0868148803731
    vertex 3452.97739129544 3947.8131754895 6.44678783416948
  endloop
endfacet
facet normal 0.0 1.0 0.0
  outer loop
    vertex 3470.62219911099 3947.8131754895 4.66622638702593
    vertex 3452.97739129544 3947.8131754895 6.44678783416948
    vertex 3455.09648423672 3947.8131754895 6.83102893829546
  endloop
endfacet
facet normal 0.0 1.0 0.0
  outer loop
    vertex 3470.62219911099 3947.8131754895 4.66622638702593
    vertex 3455.09648423672 3947.8131754895 6.83102893829546
    vertex 3457.21104150296 3947.8131754895 7.23948764801226
  endloop
endfacet
facet normal 0.0 1.0 0.0
  outer loop
    vertex 3470.62219911099 3947.8131754895 4.66622638702593
    vertex 3457.21104150296 3947.8131754895 7.23948764801226
    vertex 3459.32078843594 3947.8131754895 7.67211055755815
  endloop
endfacet
facet normal 0.0 1.0 0.0
  outer loop
    vertex 3470.62219911099 3947.8131754895 4.66622638702593
    vertex 3459.32078843594 3947.8131754895 7.67211055755815
    vertex 3461.42544847012 3947.8131754895 8.12884140014848
  endloop
endfacet
facet normal 0.0 1.0 0.0
  outer loop
    vertex 3470.62219911099 3947.8131754895 4.66622638702593
    vertex 3461.42544847012 3947.8131754895 8.12884140014848
    vertex 3462.31590562344 3947.8131754895 8.34741973877153
  endloop
endfacet
facet normal 0.0 1.0 0.0
  outer loop
    vertex 3470.62219911099 3947.8131754895 4.66622638702593
    vertex 3462.31590562344 3947.8131754895 8.34741973877153
    vertex 3463.19625001431 3947.8131754895 8.6037073135396
  endloop
endfacet
facet normal 0.0 1.0 0.0
  outer loop
    vertex 3470.62219911099 3947.8131754895 4.66622638702593
    vertex 3463.19625001431 3947.8131754895 8.6037073135396
    vertex 3464.06488709927 3947.8131754895 8.89724063873491
  endloop
endfacet
facet normal 0.0 1.0 0.0
  outer loop
    vertex 3470.62219911099 3947.8131754895 4.66622638702593
    vertex 3464.06488709927 3947.8131754895 8.89724063873491
    vertex 3464.92024140835 3947.8131754895 9.2274866104146
  endloop
endfacet
facet normal 0.0 1.0 0.0
  outer loop
    vertex 3470.62219911099 3947.8131754895 4.66622638702593
    vertex 3464.92024140835 3947.8131754895 9.2274866104146
    vertex 3465.76076035977 3947.8131754895 9.59384632110796
  endloop
endfacet
facet normal 0.0 1.0 0.0
  outer loop
    vertex 3470.62219911099 3947.8131754895 4.66622638702593
    vertex 3465.76076035977 3947.8131754895 9.59384632110796
    vertex 3466.58491807461 3947.8131754895 9.99565601349077
  endloop
endfacet
facet normal 0.0 1.0 0.0
  outer loop
    vertex 3470.62219911099 3947.8131754895 4.66622638702593
    vertex 3466.58491807461 3947.8131754895 9.99565601349077
    vertex 3467.39122682095 3947.8131754895 10.4321870803853
  endloop
endfacet
facet normal 0.0 1.0 0.0
  outer loop
    vertex 3470.62219911099 3947.8131754895 4.66622638702593
    vertex 3467.39122682095 3947.8131754895 10.4321870803853
    vertex 3473.37309175015 3947.8131754895 13.6762685775777
  endloop
endfacet
facet normal 0.0 1.0 0.0
  outer loop
    vertex 3473.37309175015 3947.8131754895 13.6762685775777
    vertex 3467.39122682095 3947.8131754895 10.4321870803853
    vertex 3468.17822175503 3947.8131754895 10.9026479721089
  endloop
endfacet
facet normal 0.0 1.0 0.0
  outer loop
    vertex 3473.37309175015 3947.8131754895 13.6762685775777
    vertex 3468.17822175503 3947.8131754895 10.9026479721089
    vertex 3468.94447236538 3947.8131754895 11.4061861038228
  endloop
endfacet
facet normal 0.0 1.0 0.0
  outer loop
    vertex 3473.37309175015 3947.8131754895 13.6762685775777
    vertex 3468.94447236538 3947.8131754895 11.4061861038228
    vertex 3469.6885939169 3947.8131754895 11.9418869018575
  endloop
endfacet
facet normal 0.0 1.0 0.0
  outer loop
    vertex 3473.37309175015 3947.8131754895 13.6762685775777
    vertex 3469.6885939169 3947.8131754895 11.9418869018575
    vertex 3470.40923219204 3947.8131754895 12.5087814331075
  endloop
endfacet
facet normal 0.0 1.0 0.0
  outer loop
    vertex 3473.37309175015 3947.8131754895 13.6762685775777
    vertex 3470.40923219204 3947.8131754895 12.5087814331075
    vertex 3471.10508637906 3947.8131754895 13.1058397293111
  endloop
endfacet
facet normal -0.292007394170255 0.0 -0.956416061005825
  outer loop
    vertex 3475.44742875576 3975.45606260498 12.8793983459493
    vertex 3473.32741837979 3962.90308790405 13.5266675949117
    vertex 3473.32741837979 3975.45606260498 13.5266675949117
  endloop
endfacet
facet normal -0.292007394170255 0.0 -0.956416061005825
  outer loop
    vertex 3473.32741837979 3962.90308790405 13.5266675949117
    vertex 3475.44742875576 3975.45606260498 12.8793983459493
    vertex 3475.44742875576 3962.90308790405 12.8793983459493
  endloop
endfacet
facet normal 0.0 1.0 0.0
  outer loop
    vertex 3471.06197648526 3962.90308790405 6.10663318634233
    vertex 3475.44742875576 3962.90308790405 12.8793983459493
    vertex 3473.18198686123 3962.90308790405 5.45936346054277
  endloop
endfacet
facet normal 0.0 1.0 0.0
  outer loop
    vertex 3475.44742875576 3962.90308790405 12.8793983459493
    vertex 3471.06197648526 3962.90308790405 6.10663318634233
    vertex 3473.32741837979 3962.90308790405 13.5266675949117
  endloop
endfacet
facet normal 0.29200759094649 -9.65320245569158e-032 0.956416000927226
  outer loop
    vertex 3473.18198686123 3962.90308790405 5.45936346054277
    vertex 3471.06197648526 3975.45606260498 6.10663318634233
    vertex 3471.06197648526 3962.90308790405 6.10663318634233
  endloop
endfacet
facet normal 0.29200759094649 -9.65320245569158e-032 0.956416000927226
  outer loop
    vertex 3471.06197648526 3975.45606260498 6.10663318634233
    vertex 3473.18198686123 3962.90308790405 5.45936346054277
    vertex 3473.18198686123 3975.45606260498 5.45936346054277
  endloop
endfacet
facet normal 0.292008071576164 0.0 0.956415854183927
  outer loop
    vertex 3473.20637040616 3950.73222570618 5.53923892975054
    vertex 3471.08636384488 3959.37704115113 6.1865086555501
    vertex 3471.08636384488 3950.73222570618 6.1865086555501
  endloop
endfacet
facet normal 0.292008071576164 0.0 0.956415854183927
  outer loop
    vertex 3471.08636384488 3959.37704115113 6.1865086555501
    vertex 3473.20637040616 3950.73222570618 5.53923892975054
    vertex 3473.20637040616 3959.37704115113 5.53923892975054
  endloop
endfacet
facet normal 0.0 -1.0 0.0
  outer loop
    vertex 3475.44742875576 3975.45606260498 12.8793983459493
    vertex 3471.06197648526 3975.45606260498 6.10663318634233
    vertex 3473.18198686123 3975.45606260498 5.45936346054277
  endloop
endfacet
facet normal 0.0 -1.0 0.0
  outer loop
    vertex 3471.06197648526 3975.45606260498 6.10663318634233
    vertex 3475.44742875576 3975.45606260498 12.8793983459493
    vertex 3473.32741837979 3975.45606260498 13.5266675949117
  endloop
endfacet
facet normal 0.0 -1.0 0.0
  outer loop
    vertex 3475.43945222378 3959.37704115113 12.8532733917256
    vertex 3471.08636384488 3959.37704115113 6.1865086555501
    vertex 3473.20637040616 3959.37704115113 5.53923892975054
  endloop
endfacet
facet normal 0.0 -1.0 0.0
  outer loop
    vertex 3471.08636384488 3959.37704115113 6.1865086555501
    vertex 3475.43945222378 3959.37704115113 12.8532733917256
    vertex 3473.31944184781 3959.37704115113 13.500542640688
  endloop
endfacet
facet normal -0.292007394170255 -3.58074262477689e-018 -0.956416061005825
  outer loop
    vertex 3475.43945222378 3959.37704115113 12.8532733917256
    vertex 3473.31944184781 3950.73222570618 13.500542640688
    vertex 3473.31944184781 3959.37704115113 13.500542640688
  endloop
endfacet
facet normal -0.292007394170255 -3.58074262477689e-018 -0.956416061005825
  outer loop
    vertex 3473.31944184781 3950.73222570618 13.500542640688
    vertex 3475.43945222378 3959.37704115113 12.8532733917256
    vertex 3475.43945222378 3950.73222570618 12.8532733917256
  endloop
endfacet
facet normal 0.0 1.0 0.0
  outer loop
    vertex 3471.08636384488 3950.73222570618 6.1865086555501
    vertex 3475.43945222378 3950.73222570618 12.8532733917256
    vertex 3473.20637040616 3950.73222570618 5.53923892975054
  endloop
endfacet
facet normal 0.0 1.0 0.0
  outer loop
    vertex 3475.43945222378 3950.73222570618 12.8532733917256
    vertex 3471.08636384488 3950.73222570618 6.1865086555501
    vertex 3473.31944184781 3950.73222570618 13.500542640688
  endloop
endfacet
facet normal -0.956416062448697 0.0 0.292007389444395
  outer loop
    vertex 3475.44742875576 3975.45606260498 12.8793983459493
    vertex 3473.18198686123 3962.90308790405 5.45936346054277
    vertex 3475.44742875576 3962.90308790405 12.8793983459493
  endloop
endfacet
facet normal -0.956416062448697 0.0 0.292007389444395
  outer loop
    vertex 3473.18198686123 3962.90308790405 5.45936346054277
    vertex 3475.44742875576 3975.45606260498 12.8793983459493
    vertex 3473.18198686123 3975.45606260498 5.45936346054277
  endloop
endfacet
facet normal -0.956415939892891 -8.7460241299108e-018 0.292007790852911
  outer loop
    vertex 3475.43945222378 3959.37704115113 12.8532733917256
    vertex 3473.20637040616 3950.73222570618 5.53923892975054
    vertex 3475.43945222378 3950.73222570618 12.8532733917256
  endloop
endfacet
facet normal -0.956415939892891 -8.7460241299108e-018 0.292007790852911
  outer loop
    vertex 3473.20637040616 3950.73222570618 5.53923892975054
    vertex 3475.43945222378 3959.37704115113 12.8532733917256
    vertex 3473.20637040616 3959.37704115113 5.53923892975054
  endloop
endfacet
facet normal 0.999426885995899 1.38879463209027e-019 0.0338511380686193
  outer loop
    vertex 3470.62219911099 3939.6628592511 4.66622638702593
    vertex 3470.58468156338 3938.85072736939 5.77390098571978
    vertex 3470.62219911099 3938.85072736939 4.66622638702593
  endloop
endfacet
facet normal 0.999426885995899 1.38879463209027e-019 0.0338511380686193
  outer loop
    vertex 3470.58468156338 3938.85072736939 5.77390098571978
    vertex 3470.62219911099 3939.6628592511 4.66622638702593
    vertex 3470.58468156338 3939.6628592511 5.77390098571978
  endloop
endfacet
facet normal 0.0 -1.0 0.0
  outer loop
    vertex 3432.40241914273 3977.51586942871 3.37168788910112
    vertex 3432.26197486401 3977.51586942871 3.93008947372637
    vertex 3431.37299447537 3977.51586942871 2.00182370677751e-012
  endloop
endfacet
facet normal 0.0 -1.0 0.0
  outer loop
    vertex 3432.26197486401 3977.51586942871 3.93008947372637
    vertex 3432.40241914273 3977.51586942871 3.37168788910112
    vertex 3470.62219911099 3977.51586942871 4.66622638702593
  endloop
endfacet
facet normal 0.0 -1.0 0.0
  outer loop
    vertex 3432.26197486401 3977.51586942871 3.93008947372637
    vertex 3470.62219911099 3977.51586942871 4.66622638702593
    vertex 3438.04014211178 3977.51586942871 4.43901777267656
  endloop
endfacet
facet normal 0.0 -1.0 0.0
  outer loop
    vertex 3438.04014211178 3977.51586942871 4.43901777267656
    vertex 3470.62219911099 3977.51586942871 4.66622638702593
    vertex 3440.18318181515 3977.51586942871 4.65250539779863
  endloop
endfacet
facet normal 0.0 -1.0 0.0
  outer loop
    vertex 3440.18318181515 3977.51586942871 4.65250539779863
    vertex 3470.62219911099 3977.51586942871 4.66622638702593
    vertex 3442.3236380148 3977.51586942871 4.89049577713213
  endloop
endfacet
facet normal 0.0 -1.0 0.0
  outer loop
    vertex 3442.3236380148 3977.51586942871 4.89049577713213
    vertex 3470.62219911099 3977.51586942871 4.66622638702593
    vertex 3444.46123223782 3977.51586942871 5.15295791626177
  endloop
endfacet
facet normal 0.0 -1.0 0.0
  outer loop
    vertex 3444.46123223782 3977.51586942871 5.15295791626177
    vertex 3470.62219911099 3977.51586942871 4.66622638702593
    vertex 3446.5956831503 3977.51586942871 5.43985748291216
  endloop
endfacet
facet normal 0.0 -1.0 0.0
  outer loop
    vertex 3446.5956831503 3977.51586942871 5.43985748291216
    vertex 3470.62219911099 3977.51586942871 4.66622638702593
    vertex 3448.72671227932 3977.51586942871 5.7511568069478
  endloop
endfacet
facet normal 0.0 -1.0 0.0
  outer loop
    vertex 3448.72671227932 3977.51586942871 5.7511568069478
    vertex 3470.62219911099 3977.51586942871 4.66622638702593
    vertex 3450.854041152 3977.51586942871 6.0868148803731
  endloop
endfacet
facet normal 0.0 -1.0 0.0
  outer loop
    vertex 3450.854041152 3977.51586942871 6.0868148803731
    vertex 3470.62219911099 3977.51586942871 4.66622638702593
    vertex 3452.97739129544 3977.51586942871 6.44678783416948
  endloop
endfacet
facet normal 0.0 -1.0 0.0
  outer loop
    vertex 3452.97739129544 3977.51586942871 6.44678783416948
    vertex 3470.62219911099 3977.51586942871 4.66622638702593
    vertex 3455.09648423672 3977.51586942871 6.83102893829546
  endloop
endfacet
facet normal 0.0 -1.0 0.0
  outer loop
    vertex 3455.09648423672 3977.51586942871 6.83102893829546
    vertex 3470.62219911099 3977.51586942871 4.66622638702593
    vertex 3457.21104150296 3977.51586942871 7.23948764801226
  endloop
endfacet
facet normal 0.0 -1.0 0.0
  outer loop
    vertex 3457.21104150296 3977.51586942871 7.23948764801226
    vertex 3470.62219911099 3977.51586942871 4.66622638702593
    vertex 3459.32078843594 3977.51586942871 7.67211055755815
  endloop
endfacet
facet normal 0.0 -1.0 0.0
  outer loop
    vertex 3459.32078843594 3977.51586942871 7.67211055755815
    vertex 3470.62219911099 3977.51586942871 4.66622638702593
    vertex 3461.42544847012 3977.51586942871 8.12884140014848
  endloop
endfacet
facet normal 0.0 -1.0 0.0
  outer loop
    vertex 3461.42544847012 3977.51586942871 8.12884140014848
    vertex 3470.62219911099 3977.51586942871 4.66622638702593
    vertex 3462.31590562344 3977.51586942871 8.34741973877153
  endloop
endfacet
facet normal 0.0 -1.0 0.0
  outer loop
    vertex 3462.31590562344 3977.51586942871 8.34741973877153
    vertex 3470.62219911099 3977.51586942871 4.66622638702593
    vertex 3463.19625001431 3977.51586942871 8.6037073135396
  endloop
endfacet
facet normal 0.0 -1.0 0.0
  outer loop
    vertex 3463.19625001431 3977.51586942871 8.6037073135396
    vertex 3470.62219911099 3977.51586942871 4.66622638702593
    vertex 3464.06488709927 3977.51586942871 8.89724063873491
  endloop
endfacet
facet normal 0.0 -1.0 0.0
  outer loop
    vertex 3464.06488709927 3977.51586942871 8.89724063873491
    vertex 3470.62219911099 3977.51586942871 4.66622638702593
    vertex 3464.92024140835 3977.51586942871 9.2274866104146
  endloop
endfacet
facet normal 0.0 -1.0 0.0
  outer loop
    vertex 3464.92024140835 3977.51586942871 9.2274866104146
    vertex 3470.62219911099 3977.51586942871 4.66622638702593
    vertex 3465.76076035977 3977.51586942871 9.59384632110796
  endloop
endfacet
facet normal 0.0 -1.0 0.0
  outer loop
    vertex 3465.76076035977 3977.51586942871 9.59384632110796
    vertex 3470.62219911099 3977.51586942871 4.66622638702593
    vertex 3466.58491807461 3977.51586942871 9.99565601349077
  endloop
endfacet
facet normal 0.0 -1.0 0.0
  outer loop
    vertex 3466.58491807461 3977.51586942871 9.99565601349077
    vertex 3470.62219911099 3977.51586942871 4.66622638702593
    vertex 3467.39122682095 3977.51586942871 10.4321870803853
  endloop
endfacet
facet normal 0.0 -1.0 0.0
  outer loop
    vertex 3467.39122682095 3977.51586942871 10.4321870803853
    vertex 3470.62219911099 3977.51586942871 4.66622638702593
    vertex 3473.37309175015 3977.51586942871 13.6762685775777
  endloop
endfacet
facet normal 0.0 -1.0 0.0
  outer loop
    vertex 3467.39122682095 3977.51586942871 10.4321870803853
    vertex 3473.37309175015 3977.51586942871 13.6762685775777
    vertex 3468.17822175503 3977.51586942871 10.9026479721089
  endloop
endfacet
facet normal 0.0 -1.0 0.0
  outer loop
    vertex 3468.17822175503 3977.51586942871 10.9026479721089
    vertex 3473.37309175015 3977.51586942871 13.6762685775777
    vertex 3468.94447236538 3977.51586942871 11.4061861038228
  endloop
endfacet
facet normal 0.0 -1.0 0.0
  outer loop
    vertex 3468.94447236538 3977.51586942871 11.4061861038228
    vertex 3473.37309175015 3977.51586942871 13.6762685775777
    vertex 3469.6885939169 3977.51586942871 11.9418869018575
  endloop
endfacet
facet normal 0.0 -1.0 0.0
  outer loop
    vertex 3469.6885939169 3977.51586942871 11.9418869018575
    vertex 3473.37309175015 3977.51586942871 13.6762685775777
    vertex 3470.40923219204 3977.51586942871 12.5087814331075
  endloop
endfacet
facet normal 0.0 -1.0 0.0
  outer loop
    vertex 3470.40923219204 3977.51586942871 12.5087814331075
    vertex 3473.37309175015 3977.51586942871 13.6762685775777
    vertex 3471.10508637906 3977.51586942871 13.1058397293111
  endloop
endfacet
facet normal -0.99942687094708 0.0 -0.0338515823696509
  outer loop
    vertex 3432.36490111828 3939.6628592511 4.47936201095781
    vertex 3432.40241914273 3938.85072736939 3.37168788910112
    vertex 3432.36490111828 3938.85072736939 4.47936201095781
  endloop
endfacet
facet normal -0.99942687094708 0.0 -0.0338515823696509
  outer loop
    vertex 3432.40241914273 3938.85072736939 3.37168788910112
    vertex 3432.36490111828 3939.6628592511 4.47936201095781
    vertex 3432.40241914273 3939.6628592511 3.37168788910112
  endloop
endfacet
facet normal -0.0338514923179495 -2.77218420997935e-009 0.999426873997216
  outer loop
    vertex 3470.62219911099 3920.11701231201 4.66622638702593
    vertex 3432.40241914273 3938.85072736939 3.37168788910112
    vertex 3432.40241914273 3920.11701231201 3.37168788910112
  endloop
endfacet
facet normal -0.0338514923179495 -2.77218420997935e-009 0.999426873997216
  outer loop
    vertex 3432.40241914273 3938.85072736939 3.37168788910112
    vertex 3470.62219911099 3920.11701231201 4.66622638702593
    vertex 3451.02368646145 3931.42505293091 4.00240707397661
  endloop
endfacet
facet normal -0.0338514923179495 -2.77218420997935e-009 0.999426873997216
  outer loop
    vertex 3451.02368646145 3931.42505293091 4.00240707397661
    vertex 3470.62219911099 3920.11701231201 4.66622638702593
    vertex 3454.67901139737 3931.42505293091 4.12621641159258
  endloop
endfacet
facet normal -0.0338514923179495 -2.77218420997935e-009 0.999426873997216
  outer loop
    vertex 3454.67901139737 3931.42505293091 4.12621641159258
    vertex 3470.62219911099 3920.11701231201 4.66622638702593
    vertex 3454.67901139737 3938.85072736939 4.12621641159258
  endloop
endfacet
facet normal -0.0338514923179495 -2.77218420997935e-009 0.999426873997216
  outer loop
    vertex 3454.67901139737 3938.85072736939 4.12621641159258
    vertex 3470.62219911099 3920.11701231201 4.66622638702593
    vertex 3470.62219911099 3938.85072736939 4.66622638702593
  endloop
endfacet
facet normal -0.0338514923179495 -2.77218420997935e-009 0.999426873997216
  outer loop
    vertex 3451.02368646145 3938.85072736939 4.00240707397661
    vertex 3432.40241914273 3938.85072736939 3.37168788910112
    vertex 3451.02368646145 3931.42505293091 4.00240707397661
  endloop
endfacet
facet normal 0.0 -1.0 0.0
  outer loop
    vertex 3473.83279328824 3920.11701231201 2.01231045715566e-012
    vertex 3432.40241914273 3920.11701231201 3.37168788910112
    vertex 3431.37299447537 3920.11701231201 2.00182370677751e-012
  endloop
endfacet
facet normal 0.0 -1.0 0.0
  outer loop
    vertex 3432.40241914273 3920.11701231201 3.37168788910112
    vertex 3473.83279328824 3920.11701231201 2.01231045715566e-012
    vertex 3470.62219911099 3920.11701231201 4.66622638702593
  endloop
endfacet
facet normal -0.189659171488302 0.0 0.981849987864934
  outer loop
    vertex 3457.21104150296 3977.51586942871 7.23948764801226
    vertex 3455.09648423672 3981.17329054077 6.83102893829546
    vertex 3455.09648423672 3977.51586942871 6.83102893829546
  endloop
endfacet
facet normal -0.189659171488302 0.0 0.981849987864934
  outer loop
    vertex 3455.09648423672 3981.17329054077 6.83102893829546
    vertex 3457.21104150296 3977.51586942871 7.23948764801226
    vertex 3457.21104150296 3981.17329054077 7.23948764801226
  endloop
endfacet
facet normal -0.110505789662543 0.0 0.993875480355088
  outer loop
    vertex 3442.3236380148 3977.51586942871 4.89049577713213
    vertex 3440.18318181515 3981.17329054077 4.65250539779863
    vertex 3440.18318181515 3977.51586942871 4.65250539779863
  endloop
endfacet
facet normal -0.110505789662543 0.0 0.993875480355088
  outer loop
    vertex 3440.18318181515 3981.17329054077 4.65250539779863
    vertex 3442.3236380148 3977.51586942871 4.89049577713213
    vertex 3442.3236380148 3981.17329054077 4.89049577713213
  endloop
endfacet
facet normal -0.0338514916975354 1.74661483851571e-018 0.99942687401823
  outer loop
    vertex 3470.62219911099 3947.8131754895 4.66622638702593
    vertex 3432.40241914273 3977.51586942871 3.37168788910112
    vertex 3432.40241914273 3947.8131754895 3.37168788910112
  endloop
endfacet
facet normal -0.0338514916975354 1.74661483851571e-018 0.99942687401823
  outer loop
    vertex 3432.40241914273 3977.51586942871 3.37168788910112
    vertex 3470.62219911099 3947.8131754895 4.66622638702593
    vertex 3470.62219911099 3977.51586942871 4.66622638702593
  endloop
endfacet
facet normal -0.121868689765017 0.0 0.99254623189802
  outer loop
    vertex 3444.46123223782 3977.51586942871 5.15295791626177
    vertex 3442.3236380148 3981.17329054077 4.89049577713213
    vertex 3442.3236380148 3977.51586942871 4.89049577713213
  endloop
endfacet
facet normal -0.121868689765017 0.0 0.99254623189802
  outer loop
    vertex 3442.3236380148 3981.17329054077 4.89049577713213
    vertex 3444.46123223782 3977.51586942871 5.15295791626177
    vertex 3444.46123223782 3981.17329054077 5.15295791626177
  endloop
endfacet
facet normal -0.476098045000212 0.0 0.879392205757463
  outer loop
    vertex 3467.39122682095 3977.51586942871 10.4321870803853
    vertex 3466.58491807461 3981.17329054077 9.99565601349077
    vertex 3466.58491807461 3977.51586942871 9.99565601349077
  endloop
endfacet
facet normal -0.476098045000212 0.0 0.879392205757463
  outer loop
    vertex 3466.58491807461 3981.17329054077 9.99565601349077
    vertex 3467.39122682095 3977.51586942871 10.4321870803853
    vertex 3467.39122682095 3981.17329054077 10.4321870803853
  endloop
endfacet
facet normal -0.618279151482874 0.0 0.785958580869003
  outer loop
    vertex 3470.40923219204 3977.51586942871 12.5087814331075
    vertex 3469.6885939169 3981.17329054077 11.9418869018575
    vertex 3469.6885939169 3977.51586942871 11.9418869018575
  endloop
endfacet
facet normal -0.618279151482874 0.0 0.785958580869003
  outer loop
    vertex 3469.6885939169 3981.17329054077 11.9418869018575
    vertex 3470.40923219204 3977.51586942871 12.5087814331075
    vertex 3470.40923219204 3981.17329054077 12.5087814331075
  endloop
endfacet
facet normal -0.651175973716623 0.0 0.758926775950229
  outer loop
    vertex 3471.10508637906 3977.51586942871 13.1058397293111
    vertex 3470.40923219204 3981.17329054077 12.5087814331075
    vertex 3470.40923219204 3977.51586942871 12.5087814331075
  endloop
endfacet
facet normal -0.651175973716623 0.0 0.758926775950229
  outer loop
    vertex 3470.40923219204 3981.17329054077 12.5087814331075
    vertex 3471.10508637906 3977.51586942871 13.1058397293111
    vertex 3471.10508637906 3981.17329054077 13.1058397293111
  endloop
endfacet
facet normal -0.618279151482874 0.0 0.785958580869003
  outer loop
    vertex 3470.40923219204 3944.15575437744 12.5087814331075
    vertex 3469.6885939169 3947.8131754895 11.9418869018575
    vertex 3469.6885939169 3944.15575437744 11.9418869018575
  endloop
endfacet
facet normal -0.618279151482874 0.0 0.785958580869003
  outer loop
    vertex 3469.6885939169 3947.8131754895 11.9418869018575
    vertex 3470.40923219204 3944.15575437744 12.5087814331075
    vertex 3470.40923219204 3947.8131754895 12.5087814331075
  endloop
endfacet
facet normal -0.5842568016962 -2.41231117547546e-031 0.811568844690164
  outer loop
    vertex 3469.6885939169 3944.15575437744 11.9418869018575
    vertex 3468.94447236538 3947.8131754895 11.4061861038228
    vertex 3468.94447236538 3944.15575437744 11.4061861038228
  endloop
endfacet
facet normal -0.5842568016962 -2.41231117547546e-031 0.811568844690164
  outer loop
    vertex 3468.94447236538 3947.8131754895 11.4061861038228
    vertex 3469.6885939169 3944.15575437744 11.9418869018575
    vertex 3469.6885939169 3947.8131754895 11.9418869018575
  endloop
endfacet
facet normal -0.087738137650163 2.23739163239819e-008 0.996143573588507
  outer loop
    vertex 3438.04014211178 3944.15575437744 4.43901777267656
    vertex 3432.26197486401 3947.8131754895 3.93008947372637
    vertex 3432.26197486401 3944.15575437744 3.93008947372637
  endloop
endfacet
facet normal -0.087738137650163 2.23739163239819e-008 0.996143573588507
  outer loop
    vertex 3432.26197486401 3947.8131754895 3.93008947372637
    vertex 3438.04014211178 3944.15575437744 4.43901777267656
    vertex 3438.04014211178 3947.8131754895 4.43901777267656
  endloop
endfacet
facet normal -0.956416020335266 0.0 0.292007527379095
  outer loop
    vertex 3432.40241914273 3977.51586942871 3.37168788910112
    vertex 3431.37299447537 3947.8131754895 2.00182370677751e-012
    vertex 3432.40241914273 3947.8131754895 3.37168788910112
  endloop
endfacet
facet normal -0.956416020335266 0.0 0.292007527379095
  outer loop
    vertex 3431.37299447537 3947.8131754895 2.00182370677751e-012
    vertex 3432.40241914273 3977.51586942871 3.37168788910112
    vertex 3431.37299447537 3977.51586942871 2.00182370677751e-012
  endloop
endfacet
facet normal -0.212073179904184 0.0 0.977253788104875
  outer loop
    vertex 3461.42544847012 3977.51586942871 8.12884140014848
    vertex 3459.32078843594 3981.17329054077 7.67211055755815
    vertex 3459.32078843594 3977.51586942871 7.67211055755815
  endloop
endfacet
facet normal -0.212073179904184 0.0 0.977253788104875
  outer loop
    vertex 3459.32078843594 3981.17329054077 7.67211055755815
    vertex 3461.42544847012 3977.51586942871 8.12884140014848
    vertex 3461.42544847012 3981.17329054077 8.12884140014848
  endloop
endfacet
facet normal -0.279517962770419 0.0 0.960140462895234
  outer loop
    vertex 3463.19625001431 3977.51586942871 8.6037073135396
    vertex 3462.31590562344 3981.17329054077 8.34741973877153
    vertex 3462.31590562344 3977.51586942871 8.34741973877153
  endloop
endfacet
facet normal -0.279517962770419 0.0 0.960140462895234
  outer loop
    vertex 3462.31590562344 3981.17329054077 8.34741973877153
    vertex 3463.19625001431 3977.51586942871 8.6037073135396
    vertex 3463.19625001431 3981.17329054077 8.6037073135396
  endloop
endfacet
facet normal -0.513102853970991 0.0 0.858327129506474
  outer loop
    vertex 3468.17822175503 3977.51586942871 10.9026479721089
    vertex 3467.39122682095 3981.17329054077 10.4321870803853
    vertex 3467.39122682095 3977.51586942871 10.4321870803853
  endloop
endfacet
facet normal -0.513102853970991 0.0 0.858327129506474
  outer loop
    vertex 3467.39122682095 3981.17329054077 10.4321870803853
    vertex 3468.17822175503 3977.51586942871 10.9026479721089
    vertex 3468.17822175503 3981.17329054077 10.9026479721089
  endloop
endfacet
facet normal 0.0 1.0 0.0
  outer loop
    vertex 3432.26197486401 3981.17329054077 3.93008947372637
    vertex 3432.40241914273 3981.17329054077 3.37168788910112
    vertex 3431.37299447537 3981.17329054077 2.00182370677751e-012
  endloop
endfacet
facet normal 0.0 1.0 0.0
  outer loop
    vertex 3432.40241914273 3981.17329054077 3.37168788910112
    vertex 3432.26197486401 3981.17329054077 3.93008947372637
    vertex 3470.62219911099 3981.17329054077 4.66622638702593
  endloop
endfacet
facet normal 0.0 1.0 0.0
  outer loop
    vertex 3470.62219911099 3981.17329054077 4.66622638702593
    vertex 3432.26197486401 3981.17329054077 3.93008947372637
    vertex 3438.04014211178 3981.17329054077 4.43901777267656
  endloop
endfacet
facet normal 0.0 1.0 0.0
  outer loop
    vertex 3470.62219911099 3981.17329054077 4.66622638702593
    vertex 3438.04014211178 3981.17329054077 4.43901777267656
    vertex 3440.18318181515 3981.17329054077 4.65250539779863
  endloop
endfacet
facet normal 0.0 1.0 0.0
  outer loop
    vertex 3470.62219911099 3981.17329054077 4.66622638702593
    vertex 3440.18318181515 3981.17329054077 4.65250539779863
    vertex 3442.3236380148 3981.17329054077 4.89049577713213
  endloop
endfacet
facet normal 0.0 1.0 0.0
  outer loop
    vertex 3470.62219911099 3981.17329054077 4.66622638702593
    vertex 3442.3236380148 3981.17329054077 4.89049577713213
    vertex 3444.46123223782 3981.17329054077 5.15295791626177
  endloop
endfacet
facet normal 0.0 1.0 0.0
  outer loop
    vertex 3470.62219911099 3981.17329054077 4.66622638702593
    vertex 3444.46123223782 3981.17329054077 5.15295791626177
    vertex 3446.5956831503 3981.17329054077 5.43985748291216
  endloop
endfacet
facet normal 0.0 1.0 0.0
  outer loop
    vertex 3470.62219911099 3981.17329054077 4.66622638702593
    vertex 3446.5956831503 3981.17329054077 5.43985748291216
    vertex 3448.72671227932 3981.17329054077 5.7511568069478
  endloop
endfacet
facet normal 0.0 1.0 0.0
  outer loop
    vertex 3470.62219911099 3981.17329054077 4.66622638702593
    vertex 3448.72671227932 3981.17329054077 5.7511568069478
    vertex 3450.854041152 3981.17329054077 6.0868148803731
  endloop
endfacet
facet normal 0.0 1.0 0.0
  outer loop
    vertex 3470.62219911099 3981.17329054077 4.66622638702593
    vertex 3450.854041152 3981.17329054077 6.0868148803731
    vertex 3452.97739129544 3981.17329054077 6.44678783416948
  endloop
endfacet
facet normal 0.0 1.0 0.0
  outer loop
    vertex 3470.62219911099 3981.17329054077 4.66622638702593
    vertex 3452.97739129544 3981.17329054077 6.44678783416948
    vertex 3455.09648423672 3981.17329054077 6.83102893829546
  endloop
endfacet
facet normal 0.0 1.0 0.0
  outer loop
    vertex 3470.62219911099 3981.17329054077 4.66622638702593
    vertex 3455.09648423672 3981.17329054077 6.83102893829546
    vertex 3457.21104150296 3981.17329054077 7.23948764801226
  endloop
endfacet
facet normal 0.0 1.0 0.0
  outer loop
    vertex 3470.62219911099 3981.17329054077 4.66622638702593
    vertex 3457.21104150296 3981.17329054077 7.23948764801226
    vertex 3459.32078843594 3981.17329054077 7.67211055755815
  endloop
endfacet
facet normal 0.0 1.0 0.0
  outer loop
    vertex 3470.62219911099 3981.17329054077 4.66622638702593
    vertex 3459.32078843594 3981.17329054077 7.67211055755815
    vertex 3461.42544847012 3981.17329054077 8.12884140014848
  endloop
endfacet
facet normal 0.0 1.0 0.0
  outer loop
    vertex 3470.62219911099 3981.17329054077 4.66622638702593
    vertex 3461.42544847012 3981.17329054077 8.12884140014848
    vertex 3462.31590562344 3981.17329054077 8.34741973877153
  endloop
endfacet
facet normal 0.0 1.0 0.0
  outer loop
    vertex 3470.62219911099 3981.17329054077 4.66622638702593
    vertex 3462.31590562344 3981.17329054077 8.34741973877153
    vertex 3463.19625001431 3981.17329054077 8.6037073135396
  endloop
endfacet
facet normal 0.0 1.0 0.0
  outer loop
    vertex 3470.62219911099 3981.17329054077 4.66622638702593
    vertex 3463.19625001431 3981.17329054077 8.6037073135396
    vertex 3464.06488709927 3981.17329054077 8.89724063873491
  endloop
endfacet
facet normal 0.0 1.0 0.0
  outer loop
    vertex 3470.62219911099 3981.17329054077 4.66622638702593
    vertex 3464.06488709927 3981.17329054077 8.89724063873491
    vertex 3464.92024140835 3981.17329054077 9.2274866104146
  endloop
endfacet
facet normal 0.0 1.0 0.0
  outer loop
    vertex 3470.62219911099 3981.17329054077 4.66622638702593
    vertex 3464.92024140835 3981.17329054077 9.2274866104146
    vertex 3465.76076035977 3981.17329054077 9.59384632110796
  endloop
endfacet
facet normal 0.0 1.0 0.0
  outer loop
    vertex 3470.62219911099 3981.17329054077 4.66622638702593
    vertex 3465.76076035977 3981.17329054077 9.59384632110796
    vertex 3466.58491807461 3981.17329054077 9.99565601349077
  endloop
endfacet
facet normal 0.0 1.0 0.0
  outer loop
    vertex 3470.62219911099 3981.17329054077 4.66622638702593
    vertex 3466.58491807461 3981.17329054077 9.99565601349077
    vertex 3467.39122682095 3981.17329054077 10.4321870803853
  endloop
endfacet
facet normal 0.0 1.0 0.0
  outer loop
    vertex 3470.62219911099 3981.17329054077 4.66622638702593
    vertex 3467.39122682095 3981.17329054077 10.4321870803853
    vertex 3473.37309175015 3981.17329054077 13.6762685775777
  endloop
endfacet
facet normal 0.0 1.0 0.0
  outer loop
    vertex 3473.37309175015 3981.17329054077 13.6762685775777
    vertex 3467.39122682095 3981.17329054077 10.4321870803853
    vertex 3468.17822175503 3981.17329054077 10.9026479721089
  endloop
endfacet
facet normal 0.0 1.0 0.0
  outer loop
    vertex 3473.37309175015 3981.17329054077 13.6762685775777
    vertex 3468.17822175503 3981.17329054077 10.9026479721089
    vertex 3468.94447236538 3981.17329054077 11.4061861038228
  endloop
endfacet
facet normal 0.0 1.0 0.0
  outer loop
    vertex 3473.37309175015 3981.17329054077 13.6762685775777
    vertex 3468.94447236538 3981.17329054077 11.4061861038228
    vertex 3469.6885939169 3981.17329054077 11.9418869018575
  endloop
endfacet
facet normal 0.0 1.0 0.0
  outer loop
    vertex 3473.37309175015 3981.17329054077 13.6762685775777
    vertex 3469.6885939169 3981.17329054077 11.9418869018575
    vertex 3470.40923219204 3981.17329054077 12.5087814331075
  endloop
endfacet
facet normal 0.0 1.0 0.0
  outer loop
    vertex 3473.37309175015 3981.17329054077 13.6762685775777
    vertex 3470.40923219204 3981.17329054077 12.5087814331075
    vertex 3471.10508637906 3981.17329054077 13.1058397293111
  endloop
endfacet
facet normal -0.144545240761247 0.0 0.989498192708442
  outer loop
    vertex 3448.72671227932 3977.51586942871 5.7511568069478
    vertex 3446.5956831503 3981.17329054077 5.43985748291216
    vertex 3446.5956831503 3977.51586942871 5.43985748291216
  endloop
endfacet
facet normal -0.144545240761247 0.0 0.989498192708442
  outer loop
    vertex 3446.5956831503 3981.17329054077 5.43985748291216
    vertex 3448.72671227932 3977.51586942871 5.7511568069478
    vertex 3448.72671227932 3981.17329054077 5.7511568069478
  endloop
endfacet
facet normal -0.0991284124979135 0.0 0.995074649378449
  outer loop
    vertex 3440.18318181515 3977.51586942871 4.65250539779863
    vertex 3438.04014211178 3981.17329054077 4.43901777267656
    vertex 3438.04014211178 3977.51586942871 4.43901777267656
  endloop
endfacet
facet normal -0.0991284124979135 0.0 0.995074649378449
  outer loop
    vertex 3438.04014211178 3981.17329054077 4.43901777267656
    vertex 3440.18318181515 3977.51586942871 4.65250539779863
    vertex 3440.18318181515 3981.17329054077 4.65250539779863
  endloop
endfacet
facet normal -0.243914765935678 -5.76525668159632e-031 0.969796672998286
  outer loop
    vertex 3473.37309175015 3944.15575437744 13.6762685775777
    vertex 3471.10508637906 3947.8131754895 13.1058397293111
    vertex 3471.10508637906 3944.15575437744 13.1058397293111
  endloop
endfacet
facet normal -0.243914765935678 -5.76525668159632e-031 0.969796672998286
  outer loop
    vertex 3471.10508637906 3947.8131754895 13.1058397293111
    vertex 3473.37309175015 3944.15575437744 13.6762685775777
    vertex 3473.37309175015 3947.8131754895 13.6762685775777
  endloop
endfacet
facet normal -0.320139237175662 0.0 0.947370502401561
  outer loop
    vertex 3464.06488709927 3977.51586942871 8.89724063873491
    vertex 3463.19625001431 3981.17329054077 8.6037073135396
    vertex 3463.19625001431 3977.51586942871 8.6037073135396
  endloop
endfacet
facet normal -0.320139237175662 0.0 0.947370502401561
  outer loop
    vertex 3463.19625001431 3981.17329054077 8.6037073135396
    vertex 3464.06488709927 3977.51586942871 8.89724063873491
    vertex 3464.06488709927 3981.17329054077 8.89724063873491
  endloop
endfacet
facet normal -0.39956677419833 0.0 0.91670409236391
  outer loop
    vertex 3465.76076035977 3977.51586942871 9.59384632110796
    vertex 3464.92024140835 3981.17329054077 9.2274866104146
    vertex 3464.92024140835 3977.51586942871 9.2274866104146
  endloop
endfacet
facet normal -0.39956677419833 0.0 0.91670409236391
  outer loop
    vertex 3464.92024140835 3981.17329054077 9.2274866104146
    vertex 3465.76076035977 3977.51586942871 9.59384632110796
    vertex 3465.76076035977 3981.17329054077 9.59384632110796
  endloop
endfacet
facet normal -0.13321573591031 0.0 0.991087063635619
  outer loop
    vertex 3446.5956831503 3977.51586942871 5.43985748291216
    vertex 3444.46123223782 3981.17329054077 5.15295791626177
    vertex 3444.46123223782 3977.51586942871 5.15295791626177
  endloop
endfacet
facet normal -0.13321573591031 0.0 0.991087063635619
  outer loop
    vertex 3444.46123223782 3981.17329054077 5.15295791626177
    vertex 3446.5956831503 3977.51586942871 5.43985748291216
    vertex 3446.5956831503 3981.17329054077 5.43985748291216
  endloop
endfacet
facet normal -0.651175973716623 2.25583763468796e-031 0.758926775950229
  outer loop
    vertex 3471.10508637906 3944.15575437744 13.1058397293111
    vertex 3470.40923219204 3947.8131754895 12.5087814331075
    vertex 3470.40923219204 3944.15575437744 12.5087814331075
  endloop
endfacet
facet normal -0.651175973716623 2.25583763468796e-031 0.758926775950229
  outer loop
    vertex 3470.40923219204 3947.8131754895 12.5087814331075
    vertex 3471.10508637906 3944.15575437744 13.1058397293111
    vertex 3471.10508637906 3947.8131754895 13.1058397293111
  endloop
endfacet
facet normal -0.238390567937243 0.0 0.971169365825837
  outer loop
    vertex 3462.31590562344 3977.51586942871 8.34741973877153
    vertex 3461.42544847012 3981.17329054077 8.12884140014848
    vertex 3461.42544847012 3977.51586942871 8.12884140014848
  endloop
endfacet
facet normal -0.238390567937243 0.0 0.971169365825837
  outer loop
    vertex 3461.42544847012 3981.17329054077 8.12884140014848
    vertex 3462.31590562344 3977.51586942871 8.34741973877153
    vertex 3462.31590562344 3981.17329054077 8.34741973877153
  endloop
endfacet
facet normal -0.360179267839356 0.0 0.932883108979204
  outer loop
    vertex 3464.92024140835 3977.51586942871 9.2274866104146
    vertex 3464.06488709927 3981.17329054077 8.89724063873491
    vertex 3464.06488709927 3977.51586942871 8.89724063873491
  endloop
endfacet
facet normal -0.360179267839356 0.0 0.932883108979204
  outer loop
    vertex 3464.06488709927 3981.17329054077 8.89724063873491
    vertex 3464.92024140835 3977.51586942871 9.2274866104146
    vertex 3464.92024140835 3981.17329054077 9.2274866104146
  endloop
endfacet
facet normal -0.438231156514432 0.0 0.898862310623837
  outer loop
    vertex 3466.58491807461 3977.51586942871 9.99565601349077
    vertex 3465.76076035977 3981.17329054077 9.59384632110796
    vertex 3465.76076035977 3977.51586942871 9.59384632110796
  endloop
endfacet
facet normal -0.438231156514432 0.0 0.898862310623837
  outer loop
    vertex 3465.76076035977 3981.17329054077 9.59384632110796
    vertex 3466.58491807461 3977.51586942871 9.99565601349077
    vertex 3466.58491807461 3981.17329054077 9.99565601349077
  endloop
endfacet
facet normal -0.549179422521762 0.0 0.835704470419217
  outer loop
    vertex 3468.94447236538 3944.15575437744 11.4061861038228
    vertex 3468.17822175503 3947.8131754895 10.9026479721089
    vertex 3468.17822175503 3944.15575437744 10.9026479721089
  endloop
endfacet
facet normal -0.549179422521762 0.0 0.835704470419217
  outer loop
    vertex 3468.17822175503 3947.8131754895 10.9026479721089
    vertex 3468.94447236538 3944.15575437744 11.4061861038228
    vertex 3468.94447236538 3947.8131754895 11.4061861038228
  endloop
endfacet
facet normal -0.513102853970991 -1.22011953208985e-030 0.858327129506474
  outer loop
    vertex 3468.17822175503 3944.15575437744 10.9026479721089
    vertex 3467.39122682095 3947.8131754895 10.4321870803853
    vertex 3467.39122682095 3944.15575437744 10.4321870803853
  endloop
endfacet
facet normal -0.513102853970991 -1.22011953208985e-030 0.858327129506474
  outer loop
    vertex 3467.39122682095 3947.8131754895 10.4321870803853
    vertex 3468.17822175503 3944.15575437744 10.9026479721089
    vertex 3468.17822175503 3947.8131754895 10.9026479721089
  endloop
endfacet
facet normal -0.155855675013137 0.0 0.987779838104726
  outer loop
    vertex 3450.854041152 3977.51586942871 6.0868148803731
    vertex 3448.72671227932 3981.17329054077 5.7511568069478
    vertex 3448.72671227932 3977.51586942871 5.7511568069478
  endloop
endfacet
facet normal -0.155855675013137 0.0 0.987779838104726
  outer loop
    vertex 3448.72671227932 3981.17329054077 5.7511568069478
    vertex 3450.854041152 3977.51586942871 6.0868148803731
    vertex 3450.854041152 3981.17329054077 6.0868148803731
  endloop
endfacet
facet normal -0.956416020335266 -1.3870813308604e-031 0.292007527379095
  outer loop
    vertex 3432.40241914273 3984.06646757324 3.37168788910112
    vertex 3431.37299447537 3981.17329054077 2.00182370677751e-012
    vertex 3432.40241914273 3981.17329054077 3.37168788910112
  endloop
endfacet
facet normal -0.956416020335266 -1.3870813308604e-031 0.292007527379095
  outer loop
    vertex 3431.37299447537 3981.17329054077 2.00182370677751e-012
    vertex 3432.40241914273 3984.06646757324 3.37168788910112
    vertex 3431.37299447537 3984.06646757324 2.00182370677751e-012
  endloop
endfacet
facet normal -0.975358775224873 -9.22936659281022e-018 0.220624703040788
  outer loop
    vertex 3432.26197486401 3947.8131754895 3.93008947372637
    vertex 3431.37299447537 3944.15575437744 2.00182370677751e-012
    vertex 3432.26197486401 3944.15575437744 3.93008947372637
  endloop
endfacet
facet normal -0.975358775224873 -9.22936659281022e-018 0.220624703040788
  outer loop
    vertex 3431.37299447537 3944.15575437744 2.00182370677751e-012
    vertex 3432.26197486401 3947.8131754895 3.93008947372637
    vertex 3431.37299447537 3947.8131754895 2.00182370677751e-012
  endloop
endfacet
facet normal -0.200879225832166 0.0 0.979616014890054
  outer loop
    vertex 3459.32078843594 3977.51586942871 7.67211055755815
    vertex 3457.21104150296 3981.17329054077 7.23948764801226
    vertex 3457.21104150296 3977.51586942871 7.23948764801226
  endloop
endfacet
facet normal -0.200879225832166 0.0 0.979616014890054
  outer loop
    vertex 3457.21104150296 3981.17329054077 7.23948764801226
    vertex 3459.32078843594 3977.51586942871 7.67211055755815
    vertex 3459.32078843594 3981.17329054077 7.67211055755815
  endloop
endfacet
facet normal 5.35134375633526e-016 8.68994780266392e-017 -1.0
  outer loop
    vertex 3473.83279328824 3984.06646757324 2.02923025367926e-012
    vertex 3431.37299447537 3981.17329054077 2.00182370677751e-012
    vertex 3431.37299447537 3984.06646757324 2.00182370677751e-012
  endloop
endfacet
facet normal 5.35134375633526e-016 8.68994780266392e-017 -1.0
  outer loop
    vertex 3431.37299447537 3981.17329054077 2.00182370677751e-012
    vertex 3473.83279328824 3984.06646757324 2.02923025367926e-012
    vertex 3431.37299447537 3977.51586942871 2.00182370677751e-012
  endloop
endfacet
facet normal 5.35134375633526e-016 8.68994780266392e-017 -1.0
  outer loop
    vertex 3431.37299447537 3977.51586942871 2.00182370677751e-012
    vertex 3473.83279328824 3984.06646757324 2.02923025367926e-012
    vertex 3431.37299447537 3947.8131754895 2.00182370677751e-012
  endloop
endfacet
facet normal 5.35134375633526e-016 8.68994780266392e-017 -1.0
  outer loop
    vertex 3431.37299447537 3947.8131754895 2.00182370677751e-012
    vertex 3473.83279328824 3984.06646757324 2.02923025367926e-012
    vertex 3431.37299447537 3944.15575437744 2.00182370677751e-012
  endloop
endfacet
facet normal 5.35134375633526e-016 8.68994780266392e-017 -1.0
  outer loop
    vertex 3431.37299447537 3944.15575437744 2.00182370677751e-012
    vertex 3473.83279328824 3984.06646757324 2.02923025367926e-012
    vertex 3431.37299447537 3920.11701231201 2.00182370677751e-012
  endloop
endfacet
facet normal 5.35134375633526e-016 8.68994780266392e-017 -1.0
  outer loop
    vertex 3431.37299447537 3920.11701231201 2.00182370677751e-012
    vertex 3473.83279328824 3984.06646757324 2.02923025367926e-012
    vertex 3473.83279328824 3920.11701231201 2.01231045715566e-012
  endloop
endfacet
facet normal 5.35134375633526e-016 8.68994780266392e-017 -1.0
  outer loop
    vertex 3473.83279328824 3920.11701231201 2.01231045715566e-012
    vertex 3473.83279328824 3984.06646757324 2.02923025367926e-012
    vertex 3473.83279328824 3940.26530485352 2.02923025367926e-012
  endloop
endfacet
facet normal 0.0 1.0 0.0
  outer loop
    vertex 3432.40241914273 3984.06646757324 3.37168788910112
    vertex 3473.83279328824 3984.06646757324 2.02923025367926e-012
    vertex 3431.37299447537 3984.06646757324 2.00182370677751e-012
  endloop
endfacet
facet normal 0.0 1.0 0.0
  outer loop
    vertex 3473.83279328824 3984.06646757324 2.02923025367926e-012
    vertex 3432.40241914273 3984.06646757324 3.37168788910112
    vertex 3470.62219911099 3984.06646757324 4.66622638702593
  endloop
endfacet
facet normal 0.0 1.0 0.0
  outer loop
    vertex 3473.83279328824 3984.06646757324 2.02923025367926e-012
    vertex 3470.62219911099 3984.06646757324 4.66622638702593
    vertex 3479.59282975674 3984.06646757324 18.8659248352071
  endloop
endfacet
facet normal 0.0 1.0 0.0
  outer loop
    vertex 3479.59282975674 3984.06646757324 18.8659248352071
    vertex 3470.62219911099 3984.06646757324 4.66622638702593
    vertex 3474.98073487759 3984.06646757324 18.9417991638204
  endloop
endfacet
facet normal 0.0 1.0 0.0
  outer loop
    vertex 3479.59282975674 3984.06646757324 18.8659248352071
    vertex 3474.98073487759 3984.06646757324 18.9417991638204
    vertex 3474.2928076315 3984.06646757324 20.4840984344502
  endloop
endfacet
facet normal 0.0 1.0 0.0
  outer loop
    vertex 3474.2928076315 3984.06646757324 20.4840984344502
    vertex 3474.98073487759 3984.06646757324 18.9417991638204
    vertex 3473.9207296896 3984.06646757324 19.2654342651387
  endloop
endfacet
facet normal -0.95641606235235 5.08306920730869e-009 0.292007389759961
  outer loop
    vertex 3474.98073487759 3940.26530485352 18.9417991638204
    vertex 3473.37309175015 3944.15575437744 13.6762685775777
    vertex 3470.62219911099 3940.26530485352 4.66622638702593
  endloop
endfacet
facet normal -0.95641606235235 5.08306920730869e-009 0.292007389759961
  outer loop
    vertex 3473.37309175015 3944.15575437744 13.6762685775777
    vertex 3474.98073487759 3940.26530485352 18.9417991638204
    vertex 3474.98073487759 3984.06646757324 18.9417991638204
  endloop
endfacet
facet normal -0.95641606235235 5.08306920730869e-009 0.292007389759961
  outer loop
    vertex 3473.37309175015 3944.15575437744 13.6762685775777
    vertex 3474.98073487759 3984.06646757324 18.9417991638204
    vertex 3473.37309175015 3947.8131754895 13.6762685775777
  endloop
endfacet
facet normal -0.95641606235235 5.08306920730869e-009 0.292007389759961
  outer loop
    vertex 3473.37309175015 3947.8131754895 13.6762685775777
    vertex 3474.98073487759 3984.06646757324 18.9417991638204
    vertex 3473.31944184781 3950.73222570618 13.500542640688
  endloop
endfacet
facet normal -0.95641606235235 5.08306920730869e-009 0.292007389759961
  outer loop
    vertex 3473.37309175015 3947.8131754895 13.6762685775777
    vertex 3473.31944184781 3950.73222570618 13.500542640688
    vertex 3470.62219911099 3947.8131754895 4.66622638702593
  endloop
endfacet
facet normal -0.95641606235235 5.08306920730869e-009 0.292007389759961
  outer loop
    vertex 3473.31944184781 3950.73222570618 13.500542640688
    vertex 3474.98073487759 3984.06646757324 18.9417991638204
    vertex 3473.31944184781 3959.37704115113 13.500542640688
  endloop
endfacet
facet normal -0.95641606235235 5.08306920730869e-009 0.292007389759961
  outer loop
    vertex 3473.31944184781 3959.37704115113 13.500542640688
    vertex 3474.98073487759 3984.06646757324 18.9417991638204
    vertex 3473.32741837979 3962.90308790405 13.5266675949117
  endloop
endfacet
facet normal -0.95641606235235 5.08306920730869e-009 0.292007389759961
  outer loop
    vertex 3473.31944184781 3959.37704115113 13.500542640688
    vertex 3473.32741837979 3962.90308790405 13.5266675949117
    vertex 3471.08636384488 3959.37704115113 6.1865086555501
  endloop
endfacet
facet normal -0.95641606235235 5.08306920730869e-009 0.292007389759961
  outer loop
    vertex 3473.32741837979 3962.90308790405 13.5266675949117
    vertex 3474.98073487759 3984.06646757324 18.9417991638204
    vertex 3473.32741837979 3975.45606260498 13.5266675949117
  endloop
endfacet
facet normal -0.95641606235235 5.08306920730869e-009 0.292007389759961
  outer loop
    vertex 3473.32741837979 3975.45606260498 13.5266675949117
    vertex 3474.98073487759 3984.06646757324 18.9417991638204
    vertex 3473.37309175015 3977.51586942871 13.6762685775777
  endloop
endfacet
facet normal -0.95641606235235 5.08306920730869e-009 0.292007389759961
  outer loop
    vertex 3473.32741837979 3975.45606260498 13.5266675949117
    vertex 3473.37309175015 3977.51586942871 13.6762685775777
    vertex 3471.06197648526 3975.45606260498 6.10663318634233
  endloop
endfacet
facet normal -0.95641606235235 5.08306920730869e-009 0.292007389759961
  outer loop
    vertex 3473.37309175015 3977.51586942871 13.6762685775777
    vertex 3474.98073487759 3984.06646757324 18.9417991638204
    vertex 3473.37309175015 3981.17329054077 13.6762685775777
  endloop
endfacet
facet normal -0.95641606235235 5.08306920730869e-009 0.292007389759961
  outer loop
    vertex 3473.37309175015 3981.17329054077 13.6762685775777
    vertex 3474.98073487759 3984.06646757324 18.9417991638204
    vertex 3470.62219911099 3981.17329054077 4.66622638702593
  endloop
endfacet
facet normal -0.95641606235235 5.08306920730869e-009 0.292007389759961
  outer loop
    vertex 3470.62219911099 3981.17329054077 4.66622638702593
    vertex 3474.98073487759 3984.06646757324 18.9417991638204
    vertex 3470.62219911099 3984.06646757324 4.66622638702593
  endloop
endfacet
facet normal -0.95641606235235 5.08306920730869e-009 0.292007389759961
  outer loop
    vertex 3470.62219911099 3947.8131754895 4.66622638702593
    vertex 3471.08636384488 3950.73222570618 6.1865086555501
    vertex 3470.62219911099 3977.51586942871 4.66622638702593
  endloop
endfacet
facet normal -0.95641606235235 5.08306920730869e-009 0.292007389759961
  outer loop
    vertex 3471.08636384488 3950.73222570618 6.1865086555501
    vertex 3470.62219911099 3947.8131754895 4.66622638702593
    vertex 3473.31944184781 3950.73222570618 13.500542640688
  endloop
endfacet
facet normal -0.95641606235235 5.08306920730869e-009 0.292007389759961
  outer loop
    vertex 3470.62219911099 3977.51586942871 4.66622638702593
    vertex 3471.08636384488 3950.73222570618 6.1865086555501
    vertex 3471.08636384488 3959.37704115113 6.1865086555501
  endloop
endfacet
facet normal -0.95641606235235 5.08306920730869e-009 0.292007389759961
  outer loop
    vertex 3470.62219911099 3977.51586942871 4.66622638702593
    vertex 3471.08636384488 3959.37704115113 6.1865086555501
    vertex 3471.06197648526 3962.90308790405 6.10663318634233
  endloop
endfacet
facet normal -0.95641606235235 5.08306920730869e-009 0.292007389759961
  outer loop
    vertex 3471.06197648526 3962.90308790405 6.10663318634233
    vertex 3471.08636384488 3959.37704115113 6.1865086555501
    vertex 3473.32741837979 3962.90308790405 13.5266675949117
  endloop
endfacet
facet normal -0.95641606235235 5.08306920730869e-009 0.292007389759961
  outer loop
    vertex 3470.62219911099 3977.51586942871 4.66622638702593
    vertex 3471.06197648526 3962.90308790405 6.10663318634233
    vertex 3471.06197648526 3975.45606260498 6.10663318634233
  endloop
endfacet
facet normal -0.95641606235235 5.08306920730869e-009 0.292007389759961
  outer loop
    vertex 3470.62219911099 3977.51586942871 4.66622638702593
    vertex 3471.06197648526 3975.45606260498 6.10663318634233
    vertex 3473.37309175015 3977.51586942871 13.6762685775777
  endloop
endfacet
facet normal -0.95641606235235 5.08306920730869e-009 0.292007389759961
  outer loop
    vertex 3470.62219911099 3944.15575437744 4.66622638702593
    vertex 3470.62219911099 3940.26530485352 4.66622638702593
    vertex 3473.37309175015 3944.15575437744 13.6762685775777
  endloop
endfacet
facet normal -0.292007787722687 -1.54357136365133e-033 -0.956415940848595
  outer loop
    vertex 3474.98073487759 3984.06646757324 18.9417991638204
    vertex 3473.9207296896 3940.26530485352 19.2654342651387
    vertex 3473.9207296896 3984.06646757324 19.2654342651387
  endloop
endfacet
facet normal -0.292007787722687 -1.54357136365133e-033 -0.956415940848595
  outer loop
    vertex 3473.9207296896 3940.26530485352 19.2654342651387
    vertex 3474.98073487759 3984.06646757324 18.9417991638204
    vertex 3474.98073487759 3940.26530485352 18.9417991638204
  endloop
endfacet
facet normal -0.956415517615224 1.21035595206353e-033 0.292009173939455
  outer loop
    vertex 3474.2928076315 3984.06646757324 20.4840984344502
    vertex 3473.9207296896 3940.26530485352 19.2654342651387
    vertex 3474.2928076315 3940.26530485352 20.4840984344502
  endloop
endfacet
facet normal -0.956415517615224 1.21035595206353e-033 0.292009173939455
  outer loop
    vertex 3473.9207296896 3940.26530485352 19.2654342651387
    vertex 3474.2928076315 3984.06646757324 20.4840984344502
    vertex 3473.9207296896 3984.06646757324 19.2654342651387
  endloop
endfacet
facet normal 0.292007665132379 1.18928157941691e-032 0.956415978277202
  outer loop
    vertex 3479.59282975674 3940.26530485352 18.8659248352071
    vertex 3474.2928076315 3984.06646757324 20.4840984344502
    vertex 3474.2928076315 3940.26530485352 20.4840984344502
  endloop
endfacet
facet normal 0.292007665132379 1.18928157941691e-032 0.956415978277202
  outer loop
    vertex 3474.2928076315 3984.06646757324 20.4840984344502
    vertex 3479.59282975674 3940.26530485352 18.8659248352071
    vertex 3479.59282975674 3984.06646757324 18.8659248352071
  endloop
endfacet
facet normal 0.956416029756527 1.12021619391477e-008 -0.292007496521515
  outer loop
    vertex 3473.83279328824 3984.06646757324 2.02923025367926e-012
    vertex 3479.59282975674 3940.26530485352 18.8659248352071
    vertex 3473.83279328824 3940.26530485352 2.02923025367926e-012
  endloop
endfacet
facet normal 0.956416029756527 1.12021619391477e-008 -0.292007496521515
  outer loop
    vertex 3479.59282975674 3940.26530485352 18.8659248352071
    vertex 3473.83279328824 3984.06646757324 2.02923025367926e-012
    vertex 3479.59282975674 3984.06646757324 18.8659248352071
  endloop
endfacet
facet normal -0.033851508721643 2.64981539127693e-017 0.999426873441608
  outer loop
    vertex 3470.58468156338 3938.85072736939 5.77390098571978
    vertex 3454.64149384976 3939.6628592511 5.23389053344927
    vertex 3454.64149384976 3938.85072736939 5.23389053344927
  endloop
endfacet
facet normal -0.033851508721643 2.64981539127693e-017 0.999426873441608
  outer loop
    vertex 3454.64149384976 3939.6628592511 5.23389053344927
    vertex 3470.58468156338 3938.85072736939 5.77390098571978
    vertex 3470.58468156338 3939.6628592511 5.77390098571978
  endloop
endfacet
facet normal 0.999426885629099 1.32633663550719e-010 0.0338511488980791
  outer loop
    vertex 3454.67901139737 3941.73233061035 4.12621641159258
    vertex 3454.64149384976 3939.6628592511 5.23389053344927
    vertex 3454.67901139737 3939.6628592511 4.12621641159258
  endloop
endfacet
facet normal 0.999426885629099 1.32633663550719e-010 0.0338511488980791
  outer loop
    vertex 3454.67901139737 3938.85072736939 4.12621641159258
    vertex 3454.62273507595 3931.42505293091 5.78772783279619
    vertex 3454.67901139737 3931.42505293091 4.12621641159258
  endloop
endfacet
facet normal 0.999426885629099 1.32633663550719e-010 0.0338511488980791
  outer loop
    vertex 3454.62273507595 3931.42505293091 5.78772783279619
    vertex 3454.67901139737 3938.85072736939 4.12621641159258
    vertex 3454.64149384976 3938.85072736939 5.23389053344927
  endloop
endfacet
facet normal 0.999426885629099 1.32633663550719e-010 0.0338511488980791
  outer loop
    vertex 3454.62273507595 3931.42505293091 5.78772783279619
    vertex 3454.64149384976 3938.85072736939 5.23389053344927
    vertex 3454.62273507595 3941.73233061035 5.78772783279619
  endloop
endfacet
facet normal 0.999426885629099 1.32633663550719e-010 0.0338511488980791
  outer loop
    vertex 3454.62273507595 3941.73233061035 5.78772783279619
    vertex 3454.64149384976 3938.85072736939 5.23389053344927
    vertex 3454.64149384976 3939.6628592511 5.23389053344927
  endloop
endfacet
facet normal 0.999426885629099 1.32633663550719e-010 0.0338511488980791
  outer loop
    vertex 3454.62273507595 3941.73233061035 5.78772783279619
    vertex 3454.64149384976 3939.6628592511 5.23389053344927
    vertex 3454.67901139737 3941.73233061035 4.12621641159258
  endloop
endfacet
endsolid AutoSave_master_design
