solid AutoSave_AutoSave_AutoSave_AutoSave_AutoSave_AutoSave_AutoSave_tajger_1_1_1
facet normal 0.0179551670089191 0.999838355711046 -0.000935107862313689
  outer loop
    vertex 6295.58728552584 5410.40404193265 567.760007218495
    vertex 6269.64949165953 5410.87306564749 571.214666568574
    vertex 6295.94724624658 5410.40080888128 571.214823744558
  endloop
endfacet
facet normal 0.0179551670089191 0.999838355711046 -0.000935107862313689
  outer loop
    vertex 6269.64949165953 5410.87306564749 571.214666568574
    vertex 6295.58728552584 5410.40404193265 567.760007218495
    vertex 6269.28953093878 5410.87629869885 567.759850042511
  endloop
endfacet
facet normal 1.25072919982653e-005 0.000932359676647231 -0.999999565274406
  outer loop
    vertex 6269.28953093878 5346.92095355291 567.7
    vertex 6295.58728552584 5410.40404193265 567.760007218495
    vertex 6295.58728552584 5346.4486967867 567.700157175984
  endloop
endfacet
facet normal 1.25072919982653e-005 0.000932359676647231 -0.999999565274406
  outer loop
    vertex 6295.58728552584 5410.40404193265 567.760007218495
    vertex 6269.28953093878 5346.92095355291 567.7
    vertex 6269.28953093878 5410.87629869885 567.759850042511
  endloop
endfacet
facet normal -0.0177348158140644 -0.985104979218912 -0.171037002505739
  outer loop
    vertex 6269.64949165953 5346.31592562717 571.154253360486
    vertex 6295.58728552584 5346.4486967867 567.700157175984
    vertex 6295.94724624658 5345.84366886097 571.15441053647
  endloop
endfacet
facet normal -0.0177348158140644 -0.985104979218912 -0.171037002505739
  outer loop
    vertex 6295.58728552584 5346.4486967867 567.700157175984
    vertex 6269.64949165953 5346.31592562717 571.154253360486
    vertex 6269.28953093878 5346.92095355291 567.7
  endloop
endfacet
facet normal -2.27821070162425e-005 -0.000935809448806759 0.99999956187073
  outer loop
    vertex 6295.94724624658 5410.40080888128 571.214823744558
    vertex 6269.64949165953 5346.31592562717 571.154253360486
    vertex 6295.94724624658 5345.84366886097 571.15441053647
  endloop
endfacet
facet normal -2.27821070162425e-005 -0.000935809448806759 0.99999956187073
  outer loop
    vertex 6269.64949165953 5346.31592562717 571.154253360486
    vertex 6295.94724624658 5410.40080888128 571.214823744558
    vertex 6269.64949165953 5410.87306564749 571.214666568574
  endloop
endfacet
facet normal 0.994615921281919 9.69778981334833e-005 -0.103629917146585
  outer loop
    vertex 6295.58728552584 5410.40404193265 567.760007218495
    vertex 6295.94724624658 5345.84366886097 571.15441053647
    vertex 6295.58728552584 5346.4486967867 567.700157175984
  endloop
endfacet
facet normal 0.994615921281919 9.69778981334833e-005 -0.103629917146585
  outer loop
    vertex 6295.94724624658 5345.84366886097 571.15441053647
    vertex 6295.58728552584 5410.40404193265 567.760007218495
    vertex 6295.94724624658 5410.40080888128 571.214823744558
  endloop
endfacet
facet normal -0.994615921281919 -9.69778981334833e-005 0.103629917146585
  outer loop
    vertex 6269.64949165953 5346.31592562717 571.154253360486
    vertex 6269.28953093878 5410.87629869885 567.759850042511
    vertex 6269.28953093878 5346.92095355291 567.7
  endloop
endfacet
facet normal -0.994615921281919 -9.69778981334833e-005 0.103629917146585
  outer loop
    vertex 6269.28953093878 5410.87629869885 567.759850042511
    vertex 6269.64949165953 5346.31592562717 571.154253360486
    vertex 6269.64949165953 5410.87306564749 571.214666568574
  endloop
endfacet
endsolid AutoSave_AutoSave_AutoSave_AutoSave_AutoSave_AutoSave_AutoSave_tajger_1_1_1
