solid AutoSave_AutoSave_AutoSave_AutoSave_AutoSave_AutoSave_AutoSave_tajger_1_1_1
facet normal 0.985192967692717 5.44215625064952e-010 0.171449165669644
  outer loop
    vertex 6035.56003244399 4965.14630140278 2.34344268079667e-007
    vertex 6034.66070028989 4965.00641651634 5.16780440798675
    vertex 6035.56003248754 4960.14630140278 0.0
  endloop
endfacet
facet normal 0.985192967692717 5.44215625064952e-010 0.171449165669644
  outer loop
    vertex 6035.41126460437 4960.14630136142 0.854860224862048
    vertex 6028.07476461791 4869.25638692779 43.012360469141
    vertex 6035.41126461753 4869.25638692779 0.854860437727105
  endloop
endfacet
facet normal 0.985192967692717 5.44215625064952e-010 0.171449165669644
  outer loop
    vertex 6028.07476461791 4869.25638692779 43.012360469141
    vertex 6035.41126460437 4960.14630136142 0.854860224862048
    vertex 6028.07476454479 5005.63863692779 43.0123604564159
  endloop
endfacet
facet normal 0.985192967692717 5.44215625064952e-010 0.171449165669644
  outer loop
    vertex 6028.07476454479 5005.63863692779 43.0123604564159
    vertex 6035.41126460437 4960.14630136142 0.854860224862048
    vertex 6034.66070028989 4965.00641651634 5.16780440798675
  endloop
endfacet
facet normal 0.985192967692717 5.44215625064952e-010 0.171449165669644
  outer loop
    vertex 6034.66070028989 4965.00641651634 5.16780440798675
    vertex 6035.41126460437 4960.14630136142 0.854860224862048
    vertex 6035.56003248754 4960.14630140278 0.0
  endloop
endfacet
facet normal 0.985192967692717 5.44215625064952e-010 0.171449165669644
  outer loop
    vertex 6028.07476454479 5005.63863692779 43.0123604564159
    vertex 6034.66070028989 4965.00641651634 5.16780440798675
    vertex 6034.66070026811 5005.63863692779 5.16780440419563
  endloop
endfacet
facet normal -0.171449165669663 -2.74513975971741e-016 0.985192967692714
  outer loop
    vertex 6023.16250816986 4869.25638692779 42.1575002567845
    vertex 6028.07476454479 5005.63863692779 43.0123604564159
    vertex 6023.16250816646 5005.63863692779 42.1575002561937
  endloop
endfacet
facet normal -0.171449165669663 -2.74513975971741e-016 0.985192967692714
  outer loop
    vertex 6028.07476454479 5005.63863692779 43.0123604564159
    vertex 6023.16250816986 4869.25638692779 42.1575002567845
    vertex 6028.07476461791 4869.25638692779 43.012360469141
  endloop
endfacet
facet normal -0.985192967798821 -4.06162682594425e-011 -0.171449165059941
  outer loop
    vertex 6023.16250816646 5005.63863692779 42.1575002561937
    vertex 6030.49900816634 4869.25638692779 2.24824151473513e-007
    vertex 6023.16250816986 4869.25638692779 42.1575002567845
  endloop
endfacet
facet normal -0.985192967798821 -4.06162682594425e-011 -0.171449165059941
  outer loop
    vertex 6030.49900816634 4869.25638692779 2.24824151473513e-007
    vertex 6023.16250816646 5005.63863692779 42.1575002561937
    vertex 6030.49900808446 4960.14630136142 8.79829542554944e-013
  endloop
endfacet
facet normal -0.985192967798821 -4.06162682594425e-011 -0.171449165059941
  outer loop
    vertex 6030.49900808446 4960.14630136142 8.79829542554944e-013
    vertex 6023.16250816646 5005.63863692779 42.1575002561937
    vertex 6029.74844389488 4965.00641651634 4.31294420486004
  endloop
endfacet
facet normal -0.985192967798821 -4.06162682594425e-011 -0.171449165059941
  outer loop
    vertex 6029.74844389488 4965.00641651634 4.31294420486004
    vertex 6023.16250816646 5005.63863692779 42.1575002561937
    vertex 6029.74844389488 5005.63863692779 4.31294420486004
  endloop
endfacet
facet normal -0.985192967798821 -4.06162682594425e-011 -0.171449165059941
  outer loop
    vertex 6030.49900816646 4965.14630136142 2.56193718062292e-007
    vertex 6030.49900808446 4960.14630136142 8.79829542554944e-013
    vertex 6029.74844389488 4965.00641651634 4.31294420486004
  endloop
endfacet
facet normal 0.0 1.0 0.0
  outer loop
    vertex 6023.16250816646 5005.63863692779 42.1575002561937
    vertex 6034.66070026811 5005.63863692779 5.16780440419563
    vertex 6029.74844389488 5005.63863692779 4.31294420486004
  endloop
endfacet
facet normal 0.0 1.0 0.0
  outer loop
    vertex 6034.66070026811 5005.63863692779 5.16780440419563
    vertex 6023.16250816646 5005.63863692779 42.1575002561937
    vertex 6028.07476454479 5005.63863692779 43.0123604564159
  endloop
endfacet
facet normal -0.00247108100838396 0.99958130431571 0.0288289753746741
  outer loop
    vertex 6030.49900816646 4965.14630136142 2.56193718062292e-007
    vertex 6034.66070028989 4965.00641651634 5.16780440798675
    vertex 6035.56003244399 4965.14630140278 2.34344268079667e-007
  endloop
endfacet
facet normal -0.00247108100838396 0.99958130431571 0.0288289753746741
  outer loop
    vertex 6034.66070028989 4965.00641651634 5.16780440798675
    vertex 6030.49900816646 4965.14630136142 2.56193718062292e-007
    vertex 6029.74844389488 4965.00641651634 4.31294420486004
  endloop
endfacet
facet normal -2.15868687145711e-009 4.90537106395408e-008 -0.999999999999999
  outer loop
    vertex 6030.49900816646 4965.14630136142 2.56193718062292e-007
    vertex 6035.56003248754 4960.14630140278 0.0
    vertex 6030.49900808446 4960.14630136142 8.79829542554944e-013
  endloop
endfacet
facet normal -2.15868687145711e-009 4.90537106395408e-008 -0.999999999999999
  outer loop
    vertex 6035.56003248754 4960.14630140278 0.0
    vertex 6030.49900816646 4965.14630136142 2.56193718062292e-007
    vertex 6035.56003244399 4965.14630140278 2.34344268079667e-007
  endloop
endfacet
facet normal 0.17144916566965 -2.28250091394873e-009 -0.985192967692716
  outer loop
    vertex 6035.41126460437 4960.14630136142 0.854860224862048
    vertex 6030.49900816634 4869.25638692779 2.24824151473513e-007
    vertex 6030.49900808446 4960.14630136142 8.79829542554944e-013
  endloop
endfacet
facet normal 0.17144916566965 -2.28250091394873e-009 -0.985192967692716
  outer loop
    vertex 6030.49900816634 4869.25638692779 2.24824151473513e-007
    vertex 6035.41126460437 4960.14630136142 0.854860224862048
    vertex 6035.41126461753 4869.25638692779 0.854860437727105
  endloop
endfacet
facet normal -0.171449165669659 -7.16986222786628e-016 0.985192967692714
  outer loop
    vertex 6034.66070028989 4965.00641651634 5.16780440798675
    vertex 6029.74844389488 5005.63863692779 4.31294420486004
    vertex 6029.74844389488 4965.00641651634 4.31294420486004
  endloop
endfacet
facet normal -0.171449165669659 -7.16986222786628e-016 0.985192967692714
  outer loop
    vertex 6029.74844389488 5005.63863692779 4.31294420486004
    vertex 6034.66070028989 4965.00641651634 5.16780440798675
    vertex 6034.66070026811 5005.63863692779 5.16780440419563
  endloop
endfacet
facet normal 8.17263689874691e-009 -0.999999999999999 -4.69621672914142e-008
  outer loop
    vertex 6035.41126460437 4960.14630136142 0.854860224862048
    vertex 6030.49900808446 4960.14630136142 8.79829542554944e-013
    vertex 6035.56003248754 4960.14630140278 0.0
  endloop
endfacet
facet normal 0.0 -1.0 0.0
  outer loop
    vertex 6035.41126461753 4869.25638692779 0.854860437727105
    vertex 6023.16250816986 4869.25638692779 42.1575002567845
    vertex 6030.49900816634 4869.25638692779 2.24824151473513e-007
  endloop
endfacet
facet normal 0.0 -1.0 0.0
  outer loop
    vertex 6023.16250816986 4869.25638692779 42.1575002567845
    vertex 6035.41126461753 4869.25638692779 0.854860437727105
    vertex 6028.07476461791 4869.25638692779 43.012360469141
  endloop
endfacet
endsolid AutoSave_AutoSave_AutoSave_AutoSave_AutoSave_AutoSave_AutoSave_tajger_1_1_1
